<?xml version="1.0" encoding="utf-8"?>
<!-- Generator: Adobe Illustrator 24.2.0, SVG Export Plug-In . SVG Version: 6.00 Build 0)  -->
<svg version="1.1" id="Layer_1" xmlns="http://www.w3.org/2000/svg" xmlns:xlink="http://www.w3.org/1999/xlink" x="0px" y="0px"
	 viewBox="0 0 1262.6 509.5" style="enable-background:new 0 0 1262.6 509.5;" xml:space="preserve">
<style type="text/css">
	.st0{fill:#F7DB34;}
	.st1{fill:none;}
	.st2{fill:#2B871B;}
	.st3{opacity:0.66;}
	.st4{fill:#FFFFFF;}
	.st5{fill:#FF931E;}
</style>
<g>
	<path id="JAM1370_2_" class="st0" d="M671.1,211.8l16.1,41.3l2.3,10.6l-2.1,4.4l-1.6,5.6l-1.3,8.6l0.6,5.1l6.4,9.6l3.3,5.9l2.1,7
		l0.1,21l0.5,4.5l0.6,3.5l1.4,3.1l11.1,14.8l1.5,5.1l-0.3,2l2.8,28.7l-4.1,2.4l-9.4,18.8l-2.1,5.5l4.3,16.7l-4.1,1.6l-7.3,4.5
		l-4.1,1.8l1.5,3.1l0.9,6.1l1.5,3.8l-6.1-2.8l-6.1-0.4l-6,2.1l-5.5,4.6l10,6.3l10.6,2.4l11.1-1l11.5-3.5l5.8,22.7l-1.8,10.3l-14,4.4
		l-11.9-0.6l-10.6-2.4l-10.5-5.1l-49.6-44.4l-10.4-13L566,411.9l2.8-2.4l1.8-0.5l5,0.6l3.3-0.4l2.1-2l0.6-1.5l1.3-7.4l3.4-11.1
		l0.3-1.9l-0.6-2l-1.3-2.1l-6.5-5.8l-2.6-3.5l-2-6.3l-1.3-8.1l-0.4-4l0.3-2.9l1.6-4.8l0.8-3.4l-62.2-127.8l-1.4-9l13.5,4.5l14.5,2.5
		l5.1-0.6l4.1-1.6l2.1-1.3l4-3.1l1.4-0.8l19.3-4.4l5.4,0.5l11,4.5l27.9,5.1L671.1,211.8z"/>
	<path id="JAM1371_2_" class="st0" d="M220,54.9v5.6l-0.4,1.9l-3.8,13.5l1,2.1l2,2.4l9.3,7.8l2.4,4.5l0.9,4.4l1.6,3.8l6.4,12
		l2.9,6.5l3.3,2.8l8,4.1l2.8,2.8l1.5,1.9l7.3,14.6l-47.9-2.8l-12.5-2.4l-31.4-18.3l-5-1.4l-5.3-0.8l-71,0.4l-3.3,0.8l-21.4,25.4
		l-2.9,2.3l-2.9,0.6h-3.1l-30.8-4.5l-5.1-0.5l0.9-4.4l-0.8-18.2l1-5.1l4.4-7.1l0.5-4.6l2-2.4l8.9-0.6l5.6-3.8l4.5-7l5.9-4.8l9.5,3.1
		l5.9-17l17.5-16.3l20.4-6.8l14.6,11.3l8.5-10l9.1-0.3l10.5,4l13,2.5l36.9-4.5h12.4L220,54.9L220,54.9z"/>
	<path id="JAM1372_2_" class="st0" d="M510.8,205.7l1.4,9l62.2,127.8l-0.8,3.4l-1.6,4.8l-0.3,2.9l0.4,4l1.3,8.1l2,6.3l2.6,3.5
		l6.5,5.8l1.3,2.1l0.6,2l-0.3,1.9l-3.4,11.1l-1.3,7.4l-0.6,1.5l-2.1,2l-3.3,0.4l-5-0.6l-1.8,0.5l-2.8,2.4l-0.6-0.4l-12.5-4.6
		l-13.4-1.9l-10.5,4.4l-12.1,8.3l-12,1l-25-7.1l-10.9-1.9l-1.4-2.8l-38.9-162.1l-2.9-54l7.3-1.8l3.5-1.4l6.4-3.9l4.1-1.9l3.3-0.9
		h3.3l21.9,3.4l1.8-0.1l8.1,3.6L510.8,205.7L510.8,205.7z"/>
	<path id="JAM1373_2_" class="st0" d="M425.7,190.8l2.9,54l38.9,162.1l1.4,2.8l-13.5-2.4l-77.5,4.5l-3.9-0.8l-11.9-8.1l-20.2-10
		l-5-4l-2.5-4.5l-5.9-15.4l-1.3-4.9l-2.1-3.8l-10.3-3.8l-3.1-2.5l-0.9-12.6l1-15.1l-3.5-12.8l-14.5-5.4l-39.7-0.4l-9.1-3.4l-4.8-11
		l4-7.8l11.3-32.5l1.4-9l-1.4-4.5V236l1-3.8l3.6-7.6l6.3-10l4.5-4.3l8.6-4.3l65.5-23.4L425.7,190.8L425.7,190.8z"/>
	<path id="JAM1374_2_" class="st0" d="M371.2,18.7l-0.3,1l-25.9,163l-65.5,23.4l5.5-15.9l0.3-5.8l-4.6-14.5l-1.6-3l-1.9-2.3
		l-2.6-1.6l-3.3-4l-6.3-13.5l-7.3-14.6l-1.5-1.9l-2.8-2.8l-8-4.1l-3.3-2.8l-2.9-6.5l-6.4-12l-1.6-3.8l-0.9-4.4l-2.4-4.5l-9.3-7.8
		l-2-2.4l-1-2.1l3.8-13.5l0.4-1.9v-5.6l4.5,1.6l6.3,1.5l6.5-1l5.8-4.1l0.6-3.9l-0.3-4.6l3.6-6.3L260,21.5l5.9-5.5l10.1-4.6l23-3.8
		l26.2,1L371.2,18.7L371.2,18.7z"/>
	<path id="JAM1375_2_" class="st0" d="M525.6,37.1l-1.4,13.3l0.4,4.9l6.6,17.2l0.4,4.3l-0.4,3.5l-1.5,3.9v2.1l0.8,1.6l3,3.9v5.6
		l-22.7,108.4L485.3,188l-8.1-3.6l-1.8,0.1l-21.9-3.4h-3.3L447,182l-4.1,1.9l-6.4,3.9l-3.5,1.4l-7.3,1.8l-80.6-8.1l25.9-163l0.3-1
		l40.6,8.9l55.6,1l24.5,6L525.6,37.1L525.6,37.1z"/>
	<path id="JAM1376_2_" class="st0" d="M265.1,145.5l6.3,13.5l3.3,4l2.6,1.6l1.9,2.3l1.6,3l4.6,14.5l-0.3,5.8l-5.5,15.9l-8.6,4.3
		l-4.5,4.3l-6.3,10l-3.6,7.6l-1,3.8v3.5l1.4,4.5l-1.4,9l-11.3,32.5l-4,7.8l-8.8-20.4l-4.5-6.5l-4.9-3.5l-5.6-2.9l-4.6-1.1l-3.5-3.3
		l-2.8-7.3l-3.5-14.3l-10.8-21.8l-14.1-8l-42.1,1.1l-25.7-4.4l-9.4-0.1l-5.4,4.9l-4.4,2.5l-3.9-0.9l-14.1-5.6l-1.4-0.9l-8-1.3
		L45.4,194l-9.9-1.3l-10-2.5l-9.8-6.5l-7.1-9.3l-2.5-10.5l3.1-5l8.5-6l4-5l0.8-3.5l5.1,0.5l30.8,4.5h3.1l2.9-0.6l2.9-2.3l21.4-25.4
		l3.3-0.8l71-0.4l5.3,0.8l5,1.4l31.4,18.3l12.5,2.4L265.1,145.5L265.1,145.5z"/>
	<path id="JAM1377_2_" class="st0" d="M947.5,351.6l-4.3-4.1l-7.4-1.8l-17.3-0.3l-11.8,0.3l-8.1-4.9l1.9-5.5l1-2.3l4.4-2.9l5.8-2.4
		l4.8-1.3l14.8-0.8l8.5,2l5.6,3l4.8,11.1l0.5,7.8L947.5,351.6L947.5,351.6z"/>
	<path id="JAM1378_2_" class="st0" d="M1216.1,325.9l-16.3,5.1l-6,0.6l-20.8-2.8l-7.8-2l-3.9-3.5l-3.8-5.5l-2-2l-3-1.3l-16.9-5
		l-18.7-3l-12.6-7.3l-2.8-0.8l-2.4-0.1l-2.9,1.3l-3.9,2.1l-4.9,0.9l-8,0.1l-2.4,0.3l-2.5,1.6l-2.5,2.5l-2.3,1.4l-4.6,1.8h-4.8
		l-4-2.3l-27.2-8.6l-4.3-2l-3.8-2.6l-2.3-2.1l-4.4-5.9l-10.6-7.4l-25.8-10.8l-7.5-1.1l-1.9,2.3l-2.5,4.8l-2.8,1.1l-5.6,1.1l-7.5-1.6
		l-3.6-1.1l-2.1-1.3l-2.5-3.6l-5.1-15.1l-0.1-1.5l-3.6-12.1l26.9-75.2l1.8-2l3.3,0.8l8.4,4.5l10.9,11l8.4,5.5l9.6,3l19-1.3l9.9,7.1
		l3.1,0.8l2.9,2.8l3.5,2.5l4.8,1.1h42.8l3,1.8l4.5,8.6l2.1,2.6l42.1,8l21.8,7.9l2.9,12.5l16.1,15.6l12.6,18l18.3,40.2L1216.1,325.9
		L1216.1,325.9z"/>
	<path id="JAM1379_2_" class="st0" d="M751.3,74.9l0.5,2.8l4.9,22l0.4,3.1l1.1,4.3l1.1,2.1l3,3l1.6,2.1l1,2.3l-1.3,13.5l0.3,1.9
		l1.1,2.1l7.1,8.5l2.4,3.8l1.8,5.6l0.9,5.1l1.6,4.9l3.8,5l10.9,11.1l-34.3,19.4l-11.5,4.5l-76.6,9.6l-51.8-0.6l-27.9-5.1l-11-4.5
		l-5.4-0.5l-19.3,4.4l-1.4,0.8l-4,3.1l-2.1,1.3l-4.1,1.6l-5.1,0.6l-14.5-2.5l-13.5-4.5l22.7-108.4v-5.6l-3-3.9l-0.8-1.6v-2.1
		l1.5-3.9l0.4-3.5l-0.4-4.3l-6.6-17.2l-0.4-4.9l1.4-13.3l5.9,0.5l15,3.6l11.8,7.1l18-4.6h29.3l30.2,3.5l20.7,5.3l2.6,2.8l2.1,7.4
		l2.8,2.6h3.4l3-1.5l1.9-1.9l-0.5-1.1l25.5,4.5l3.1,1.9l9.6,8.5l3,1.9l18.7,0.8L751.3,74.9L751.3,74.9z"/>
	<path id="JAM1380_2_" class="st0" d="M864.1,234.5l-1.3,15.8l1.1,6.1l3.8,7.9l0.6,3l-0.1,2.3l-2,4.4l-1.6,2.4l-2.3,1.9l-1.8,3.1
		l-2,5.1l-3.4,12.1l-0.8,5.1l0.1,3.5l4.1,3.6l1,1.6l1.1,2.8l1.8,2.1l1.4,0.6l3-0.4l4.5-1.6l3.9,5.4l1.9,7l-1.8,6.1l-2.8,6.4l-7.1,8
		l-2.1,4.6l-7.5-0.9l-2.3,4.4l-2.3,13.8l-10.1,36.3l-7.6,10.8l-9.1,5.9H817l-5-2.3l-4.6-3.1l-6.3-2.5h-31.5v-4.4l12-4.1l-6.1-5.4
		l-7.6-10.5l-6-4.6l-7-2.8l-16.5-1.8l-14.9,5.3l-8.8,5.1l-2.8-28.7l0.3-2l-1.5-5.1l-11.1-14.8l-1.4-3.1l-0.6-3.5l-0.5-4.5l-0.1-21
		l-2.1-7l-3.3-5.9l-6.4-9.6l-0.6-5.1l1.3-8.6l1.6-5.6l2.1-4.4l-2.3-10.6l-16.1-41.3l76.6-9.6l11.5-4.5l34.3-19.4l8.8-2.6l3.5-0.5
		l10.9,1.3l1.9,1.4l1.8,2.1l3.4,8.3l2,2.6l4.5,3.4l2.4,2.6l2.3,4.6l1.3,4.9l0.6,5.1l1.3,2.6l6.6,9.1l6.1,5.9L864.1,234.5
		L864.1,234.5z"/>
	<path id="JAM1381_2_" class="st0" d="M962.1,163.2l-1.8,2l-26.9,75.2l-31.7-15.1l-9.5-1.9l-3.4,0.6l-7.3,0.1l-3.5,0.5l-2.1,1
		l-1.4,3l-2.8,2.8l-7.8,3.1l-13.4-5.5l-6.1-5.9l-6.6-9.1l-1.3-2.6l-0.6-5.1l-1.3-4.9l-2.3-4.6l-2.4-2.6l-4.5-3.4l-2-2.6l-3.4-8.3
		l-1.8-2.1l-1.9-1.4l-10.9-1.3l-3.5,0.5l-8.8,2.6l-10.9-11.1l-3.8-5l-1.6-4.9l-0.9-5.1l-1.8-5.6l-2.4-3.8l-7.1-8.5L764,132l-0.3-1.9
		l1.3-13.5l-1-2.3l-1.6-2.1l-3-3l-1.1-2.1l-1.1-4.3l-0.4-3.1l-4.9-22l-0.5-2.8l10.5-1.8l6.8,1.8l12,5.6l6.8,1.1l33.8-1.4l6.5-3.5
		l9.4-1.1l7.5,0.5l7,1.3l4,5.3l-1.8,6.4v8.1l6.4,5.8l20.3,12.9l18,10.5l2.9,5.9l5.3,15.8l3.4,5.3l5.5,3.3l10.4,2.9l29.5,2.4
		L962.1,163.2L962.1,163.2z"/>
	<path id="JAM1382_2_" class="st0" d="M933.5,240.4l3.6,12.1l0.1,1.5l5.1,15.1l2.5,3.6l2.1,1.3l3.6,1.1l7.5,1.6l5.6-1.1l2.8-1.1
		l2.5-4.8l1.9-2.3l7.5,1.1l25.8,10.8l-5.3,4.9l-1,3.8l-0.8,4.9l-0.3,9.1l0.8,3.6l1.4,3.4l1.5,2.8l3.3,11.3l1,2l4.1,5.9l1.8,3.4v2
		l-0.9,1.3l-1.5,0.3l-5.8-0.5l-2.3,0.5l-2.3,1l-2.5,3.9l-0.6,3.5l0.4,5.5l-0.9,4.6l-3.6,4.1l-3.4,5.4l-15.9-3.8l-4.3-2.4l-8.8-3.6
		l-11.9,0.8l-20.7,4.9l-8.8,1.1l-29.9-1.1v-4.1l62.8-3.6l-2.6-2.5l3.1-1.9l-0.5-7.8l-4.8-11.1l-5.6-3l-8.5-2l-14.8,0.8l-4.8,1.3
		l-5.8,2.4l-4.4,2.9l-1,2.3l-1.9,5.5l-3.8-2.3l-10.1-6.6l-7.5-3.5l-1.9-7l-3.9-5.4l-4.5,1.6l-3,0.4l-1.4-0.6l-1.8-2.1l-1.1-2.8
		l-1-1.6l-4.1-3.6l-0.1-3.5l0.8-5.1l3.4-12.1l2-5.1l1.8-3.1l2.3-1.9l1.6-2.4l2-4.4l0.1-2.3l-0.6-3l-3.8-7.9l-1.1-6.1l1.3-15.8
		l7.8-3.1l2.8-2.8l1.4-3l2.1-1l3.5-0.5l7.3-0.1l3.4-0.6l9.5,1.9L933.5,240.4L933.5,240.4z"/>
	<path id="JAM1383_2_" class="st0" d="M1216.1,325.9l4.6,11.1l8.4,14.4l10.8,11.4l15.5,11.8l-6,4.8l-29.4,7.5l-20.9,11.5l-11.9,3.4
		l-10.1-2.6l4-2.9l1.5-2l2.3-7.4l-10.3,3.8l-9.1,13.8l-10,3l-8.9-2.5l-10.3-4.9l-10.5-2.6l-17.2,6.4l-44.9,4l-31.7-4.9l-4.5,0.1
		l-4.4,0.9l-4.6-0.6l-5.9-4.1l-2.6-5.4l-1.1-7l-1.8-5.9l-4.5-2.6l-4.6-1.4l-3-3.4l-2.6-4l-3.5-3.1l-1.4-0.4l3.4-5.4l3.6-4.1l0.9-4.6
		l-0.4-5.5l0.6-3.5l2.5-3.9l2.3-1l2.3-0.5l5.8,0.5l1.5-0.3l0.9-1.3v-2l-1.8-3.4l-4.1-5.9l-1-2l-3.3-11.3l-1.5-2.8l-1.4-3.4l-0.8-3.6
		l0.3-9.1l0.8-4.9l1-3.8l5.3-4.9l10.6,7.4l4.4,5.9l2.3,2.1l3.8,2.6l4.3,2l27.2,8.6l4,2.3h4.8l4.6-1.8l2.3-1.4l2.5-2.5l2.5-1.6
		l2.4-0.3l8-0.1l4.9-0.9l3.9-2.1l2.9-1.3l2.4,0.1l2.8,0.8l12.6,7.3l18.7,3l16.9,5l3,1.3l2,2l3.8,5.5l3.9,3.5l7.8,2l20.8,2.8l6-0.6
		L1216.1,325.9L1216.1,325.9z"/>
	<rect id="_x30__2_" x="64.2" y="126.4" class="st0" width="0" height="0"/>
	<rect id="_x31__2_" x="1086.7" y="363.9" class="st0" width="0" height="0"/>
	<rect id="_x32__2_" x="572.4" y="42.8" class="st0" width="0" height="0"/>
</g>
<g>
	<polygon class="st1" points="669.6,207.7 681.3,206.2 714.1,202.1 746.2,198.1 757.8,193.5 746.2,198.1 714.1,202.1 681.3,206.2 	
		"/>
	<polygon class="st1" points="1192.4,327.6 1198.4,327 1214.7,321.9 1198.4,327 	"/>
	<polygon class="st1" points="690,293.1 683.6,283.4 690,293.1 693.3,299 695.4,306 693.3,299 	"/>
	<polygon class="st1" points="90.5,116.3 161.5,115.9 90.5,116.3 87.2,117.1 75.6,130.9 87.3,117.1 	"/>
	<polygon class="st1" points="528.3,79.9 529.8,76.1 530.2,72.6 529.8,68.4 523.2,51.2 529.8,68.4 530.2,72.6 529.8,76.1 
		528.3,79.9 528.3,80 	"/>
	<polygon class="st1" points="804.2,171 800.8,171.5 792.1,174.1 792.1,174.1 800.8,171.5 804.2,171 804.3,171 	"/>
	<polygon class="st1" points="529,107.7 532,93.3 532,87.6 529,83.8 532,87.6 532,93.3 529,107.7 527.6,114.5 512.3,187.8 
		509.4,201.7 522.9,206.2 537.4,208.7 522.9,206.2 509.4,201.7 512.3,187.8 527.6,114.5 	"/>
	<polygon class="st1" points="573.5,196.9 578.9,197.4 573.5,196.9 	"/>
	<polygon class="st1" points="685.9,264 684.3,269.7 684.1,271 683,278.3 684.1,271 684.3,269.7 	"/>
	<polygon class="st1" points="685.8,249 688,259.6 685.9,264 688,259.6 	"/>
	<polygon class="st1" points="1095,295.7 1097.9,294.5 1097.9,294.5 	"/>
	<polygon class="st1" points="1023.8,293.4 1028,295.5 1055.2,304.1 1028,295.5 	"/>
	<polygon class="st1" points="993.5,342.3 993.9,347.8 993.5,342.3 994.1,338.8 996.6,334.9 994.1,338.8 	"/>
	<polygon class="st1" points="1006.9,333.9 1008.4,333.6 1009.3,332.4 1008.4,333.6 	"/>
	<polygon class="st1" points="1068.6,304.6 1070.9,303.2 1073.4,300.7 1070.9,303.2 	"/>
	<polygon class="st1" points="1078.2,298.8 1086.3,298.7 1091.1,297.8 1086.3,298.7 	"/>
	<polygon class="st1" points="1109.6,299.1 1115.7,302.6 1134.3,305.6 1115.7,302.6 	"/>
	<polygon class="st1" points="965.1,270.5 967.6,265.8 969.5,263.5 967.6,265.8 	"/>
	<polygon class="st1" points="1073.4,300.7 1075.9,299.1 1078.2,298.8 1075.9,299.1 	"/>
	<path class="st1" d="M620,141.3c9.1,3.9,18.5,7.4,27.9,10.5c1.3,0.4,4.5-1.4,5.1-2.8c0.5-1.4-0.8-4.5-2.2-5.3
		c-7.7-4.3-15.6-8-24.2-12.3c-2.7,1.2-5.9,1.8-7.9,3.7C617.8,135.9,618.8,140.8,620,141.3z"/>
	<path class="st1" d="M750.6,235.7c-1.3,0.2-2.5,1-4,1.6c1.7,3.8,4.4,4.4,7.7,4c6.5-0.8,13-1.5,19.6-2.2c1.8-0.2,3.7-0.2,5.6-0.3
		c-5.2-1.7-10.4-3.3-15.6-5C759.4,234.4,755,235.1,750.6,235.7z"/>
	<path class="st1" d="M757.8,193.5l-11.5,4.5l-32.1,4c15.3,5.1,30.5,10.4,45.6,16c9.7,3.6,19.3,7.3,28.9,11
		c6.8-0.6,13.5-1.6,20.2-2.2c15.4-1.3,30.8-2.5,46.1-3.6c2.9-0.2,5.8-0.4,8.6-0.7c-16.6-4.3-33-9.3-49.4-14.2
		c-13.2-4-25.9-9.8-38.7-14.9c-12-4.7-23.9-9.5-35.8-14.5c-10.7-4.4-21.2-9.1-31.8-13.7c-10-4.5-19.9-9.4-30-13.6
		c-9.2-3.8-18.1,3.9-16.8,15.9c-11.2-1.6-21.9-3.7-32.8-4.6c-4.7-0.4-9.6,1.8-14.4,2.8c3.9,2.6,7.4,6,11.6,7.6
		c17.3,6.7,34.7,13.2,52.2,19.1c8.3,2.8,17.4,3.5,25.8,6.2c3.5,1.1,7,2.3,10.5,3.4l32.1-4L757.8,193.5z"/>
	<path class="st1" d="M578.2,96.3c0.3-0.1-0.3-4.2-0.4-6.4c-4.1,1-8.3,2-12.4,3c0.3,1.6,0.5,3.3,0.8,4.9
		C570.1,97.3,574.2,97,578.2,96.3z"/>
	<path class="st1" d="M681.3,206.2c-2-0.4-4.1-0.7-6.1-0.8c-9.2-0.7-17.6-1.7-25.3-8.3c-3.9-3.3-11.4-2.2-17.1-3.8
		c-6.4-1.8-12.7-4.3-19-6.4c-5.6-1.9-11.3-5.4-16.8-5.1c-11.6,0.5-21.7-3-31.6-8.2c-9.4-5-19.1-5.6-30.9,0.3
		c3.8,2.5,6.1,5.1,8.8,5.7c6.7,1.6,13.6,2.9,20.5,3.2c9,0.4,16.8,1.7,24.5,7.7c5.1,4,13.6,3.7,20.5,5.3c5.1,1.2,10.3,1.9,15.3,3.5
		c7.9,2.5,15.7,5.6,23.5,8.4c13.9,5,27.8,10,41.8,14.8c12.8,4.4,26.3,7.3,38.8,12.2c6.4-0.5,12.8-1,19.2-1.9
		c3.2-0.4,6.3-0.8,9.5-1.2c-8.1-2.6-16.2-5.1-24.3-7.8c-13.7-4.6-27.2-10-40.9-14.7C688.4,207.9,684.9,206.9,681.3,206.2l-11.7,1.5
		L681.3,206.2z"/>
	<path class="st1" d="M568.7,123.4c9.5,7.3,36.1,11.2,43.8,6.9C606.4,123.1,580.6,118.7,568.7,123.4z"/>
	<path class="st1" d="M807.5,230.3c-3.4,0.4-6.8,1.9-10.2,2c2.2,0.9,4.4,1.7,6.6,2.6c13-0.3,26.1-0.1,38.8-2.3
		c14.4-2.5,28.8-1.9,43.2-2.9c1.8-0.1,3.6-0.4,5.4-0.7c-1.3-0.3-2.5-0.5-3.8-0.8c-5.8-1.2-11.6-2.6-17.4-4.1
		c-12.1,1-24.1,2.6-36.2,3.7C825.1,228.8,816.2,229.3,807.5,230.3z"/>
	<path class="st1" d="M735.8,236.6c-0.5,0.1-1.1,0.3-1.6,0.6c1.7,0.8,3.4,1.6,5,2.5c0.1,0,0.1,0.1,0.2,0.1c0.4-0.5,0.8-1.1,1.3-1.5
		C739,237.7,737.2,236.3,735.8,236.6z"/>
	<path class="st1" d="M887.9,241c5.9,0.4,11.9,1.1,17.8,1c13.5-0.3,27-1,40.4-1.7c1.3-0.1,2.5-1.3,3.7-1.9c-0.4-0.2-0.7-0.5-1-0.7
		c-4.6-0.6-9.2-1.2-13.8-1.8c-11.8,0-23.7-0.1-35.5,0c-2.5,0-5,0.4-7.4,1c-1.6,0.4-3,1.5-4.5,2.3C887.7,239.8,887.8,240.4,887.9,241
		z"/>
	<path class="st1" d="M430.9,144.3c-7.1-1-14.3-2.1-21.4-3.1c-0.2,1.5-0.3,3-0.5,4.5c7.2,0.5,14.4,1,21.5,1.6
		C430.7,146.2,430.8,145.3,430.9,144.3z"/>
	<path class="st1" d="M128.3,162.5c-4.4,0.2-8.7,0.5-13.1,0.8c-0.9,0.1-1.8,0.2-2.6,0.6c-0.5,0.2-0.8,0.9-1.2,1.4
		c0.6,0.4,1.1,1.2,1.6,1.2c2.7,0,5.7,0.3,8.1-0.6c3.1-1.3,6.1-1.1,9.2-1c3.1,0.1,6.2-0.2,9.3-0.3c0-0.4,0.1-0.9,0.1-1.3
		c-0.9-0.3-1.7-0.9-2.6-0.9C134.3,162.3,131.3,162.4,128.3,162.5z"/>
	<path class="st1" d="M100.7,167.4c1.2,0,2.5,0,3.7,0c0-0.2,0-0.5,0-0.7c-1.2,0-2.5,0-3.7,0C100.7,166.9,100.7,167.1,100.7,167.4z"
		/>
	<path class="st1" d="M1238.5,358.8l-10.8-11.4l-8.4-14.4l-4.6-11.1l-16.3,5.1l-6,0.6l6-0.6l16.3-5.1l-4-9.6l-18.3-40.2l-12.6-18
		l-16.1-15.6l-2.9-12.5L1139,218l-42.1-8l-2.1-2.6l-4.5-8.6l-3-1.8h-42.8l-4.8-1.1l-3.5-2.5l-2.9-2.8l-3.1-0.8l-9.9-7.1l-19,1.3
		l-9.6-3l-8.4-5.5l-10.9-11l-8.4-4.5l-3.3-0.8l-6.6-1.4l-29.5-2.4l-10.4-2.9l-5.5-3.3l-3.4-5.3l-5.3-15.8l-2.9-5.9l-18-10.5
		l-20.3-12.9l-6.4-5.8V85l1.8-6.4l-4-5.3l-7-1.3l-7.5-0.5l-9.4,1.1l-6.5,3.5l-33.8,1.4l-6.8-1.1l-12-5.6l-6.8-1.8L750,70.8
		c4.9,1.9,9.4,4.7,14.1,7.1c-0.3,1.4-0.7,2.9-1,4.3c-4.3,0.2-8.9,1.4-13,0.4c-11.2-2.7-22.2-6.1-33.3-9l-5.3-0.2l-3-1.9l0,0
		c-0.1,0-0.3-0.1-0.4-0.1c-13.8-3.3-28-5.3-41.8-8.6c-9.4-2.2-18.6-5.5-27.7-8.8c-12.1-4.3-24.3-5.4-38.3-4.1
		c12.2,15.1,28.7,17.9,44.4,21.5c0.8,9.8,6,15.6,12.9,12c11.7-6.1,22.2-0.1,33.1,0.3c7.7,0.2,15.4,3.4,22.8,6c2.2,0.8,3.4,4.3,5,6.6
		c-2.6,0.8-5.4,2.6-7.9,2.2c-8.1-1.2-16.1-3.5-24.2-4.5c-2.8-0.3-5.9,2-8.8,3.1c2.1,1.8,4,4.2,6.4,5.4c8.6,4.3,17.2,8.5,26,12.3
		c26.9,11.6,53.9,22.9,80.9,34.4c14.4,6.2,28.7,12.4,42.9,19c4.2,2,7.5,6,11.8,7.7c17.2,7,34.5,13.5,51.9,19.9
		c8.6,3.2,17.6,5.3,26.1,8.6c3.2,1.2,5.7,4.4,8.5,6.7c-0.5,1.1-1,2.3-1.4,3.4c-8.8-2.5-17.6-4.8-26.4-7.5
		c-6.3-1.9-12.5-4.3-18.7-6.5c-17.1-6.3-34.1-12.6-51.2-18.8c-10-3.7-20.1-7.2-30.2-10.8l-3.4,0.5l-8.8,2.6v0l8.8-2.6l3.4-0.5
		c-9.2-3.3-18.3-6.6-27.4-10.2c-10.1-4-19.7-9.4-29.5-14.2c-1.4-0.7-2.6-1.9-4-2.4c-18.8-7.6-37.9-14.4-56.3-23
		c-22.3-10.4-45.8-16.4-69.6-22.1c-4.1-1-7.6-4.6-11.4-7c-2.6-1.6-5.2-4.8-7.6-4.7c-4,0.2-7.8,2.6-11.8,4.1c1.7,3.2,2.7,7.3,5.3,9.2
		c5.3,3.9,11.2,7.3,17.4,9.4c11.3,4,23.1,6.3,34.3,10.4c12.2,4.5,23.8,10.5,35.8,15.6c10.9,4.7,22,8.9,32.9,13.5
		c8.6,3.6,17.4,7.1,25.5,11.5c5.7,3.1,10.7,6.6,17.5,3.7c1.1-0.5,3.7,0.4,4.2,1.4c7.7,13.3,22.7,12.7,34.5,17.8
		c23.6,10.4,47.4,20.2,71.7,28.9c7.8,2.8,15.7,5.2,23.6,7.5c2-0.1,3.9-0.1,5.9-0.2c33-0.6,66-0.8,99-0.6c19.8,0.1,39.6,1.2,59.4,2
		c1.9,0.1,3.7,1,5.5,1.6c-0.2,0.7-0.3,1.4-0.5,2.1c-6.7-0.5-13.3-1.2-20-1.4c-19.9-0.6-39.9-1.2-59.8-1.4c-7.3-0.1-14.5,0.9-21.8,1
		c-6.1,0-12.3-0.9-18.4-0.9c-13.8,0-27.6-0.1-41.4,0.1c4.6,1.2,9.3,2.5,14,3.7c5,0,10,0.3,15,0.2c9.9-0.1,19.8-0.6,29.8-0.7
		c3.5,0,6.9,1,10.4,1c11.5,0.2,23,0,34.6,0.3c2.6,0.1,5,1.9,7.6,2.2c4,0.5,8.1,0.5,12.1,0.6c6.3,0.1,12.6,0,18.9,0
		c1.2,0,2.3,0.4,4.7,0.9c-5.6,3.5-11.7-1.3-16.9,3.8c5.4,1.6,9.9,2.1,14.4,1.5c2.4-0.3,4.8-0.7,7-1.6c3.4-1.2,5,0.3,5,3.3
		c0,4.7,2.4,6.4,6.8,6.6c9.4,0.4,18.8,0.8,28.2,1.4c14.7,0.8,29.5,1,43.7,5.6c0.5,0.2,1,0.4,3,1.2c-2.1,0.8-3.3,1.3-4.6,1.9
		c0.3,0.5,0.5,1,0.8,1.4c4.7,1.8,9.5,0.7,14.9,0.1c-0.9-1.5-1.4-2.5-2.2-3.9c1.4-0.1,2.7-0.6,3.8-0.3c1.2,0.3,2.3,1.2,3.3,2
		c0.9,0.8,1.6,1.9,2.4,2.8c0.9-1,1.7-2.1,2.6-3.1c1-1.2,2.1-2.4,3.2-3.5c0.9,0.8,1.2,1,1.3,1.2c1.3,6.5,1.3,6.4,8.4,6.1
		c3-0.1,6.1,0.3,9.1,0.5c0,0.5,0,1,0.1,1.4c-0.8,0.4-1.6,0.9-2.4,1.1c-5.1,1.1-10.2,2-15.2,3.2c-1.4,0.4-2.5,1.8-4.6,3.3
		c-25.4,2.8-52.3,1.4-79.2,0.7c-26.8-0.8-53.6-1.9-80.4-3.2c-44.3-2.2-88.5-2.4-132.8-1.9c3.3,1.4,6.7,2.8,10,4.3
		c-0.1,1-0.2,2-0.3,3c-4.1-0.3-8.6,0.2-12.3-1.2c-5.2-1.9-10.4-3.9-15.6-5.9c-12.5,0.2-24.9,0.4-37.4,0.6c-6.5,0.1-13,0.3-19.5,0.6
		c6.3,1.3,9.5,5.5,11.1,14.6c-4.8-2.1-9.4-2.7-11-5.1c-3.3-5.3-7.7-5-12.8-5.8c-2.9-0.4-5.6-1.5-8.4-2.7
		c-25.4,1.5-50.9,3.6-76.3,5.4c-2.4,0.2-4.8,0.4-7.1,0.6l-1.1,7.3l1.1-7.3c-11.6,1.1-23.1,2.9-34.7,4.3c-8.9,1.1-17.8,1.9-26.6,3.3
		c-8.9,1.4-17.8,3.3-26.7,5c-0.7,0.1-1.4,0.4-2.1,0.4c-16.1,1.1-32.2,2.4-48.3,3c-4.4,0.1-9-1.8-13.2-3.5c-2.9-1.1-5-3.4-4.1-7.3
		c0.9-3.8-0.1-6.6-4.8-7c-2.8-0.3-3.4-1.8-1.9-4.4c0.7-1.3,0.8-3.2,0.6-4.7c-0.5-3.5,0.4-5,4.1-5.1c3.8-0.1,7.6,0.1,11.4-0.3
		c10.9-1,21.7-2.1,32.5-3.3c14.6-1.7,29.2-3.7,43.8-5.3c12.1-1.3,24.3-2.3,36.5-3.4c12.5-1.2,25.1-2.2,37.6-3.6
		C662,231,636,222.5,609.6,215c-32.4-9.3-64.8-18.5-97.3-27.2l-2.9,13.9l13.5,4.5l14.5,2.5l-14.5-2.5l-13.5-4.5l2.9-13.9
		c-15-4-30-7.9-45.1-11.6c-26.3-6.5-53.4-10.4-80.4-14.1c-49.1-6.8-98.3-13.3-147.4-19.8c0.2,0.2,0.3,0.4,0.5,0.4
		c2.6,0.8,5.4,1.2,8.1,1.8c1.8,0.4,3.5,1,5.2,1.6c1.6,0.5,3.1,1.1,4.9,1.7c-0.4,2.8,1.9,1.6,3,2c0.7,0.7,1.2,1.7,2.1,2.1
		c2.1,1,4.3,1.7,6.4,2.5c0,0.3-0.1,0.6-0.1,0.9c-0.9-0.1-1.9,0.1-2.8-0.2c-6.8-1.9-13.5-4.1-20.3-5.9c-4.9-1.3-9.9-2.4-14.9-3.3
		c-1.8-0.3-3.8,0.3-5.8,0.6c-0.1,0.3-0.1,0.6-0.2,0.8c0.5,0.4,1,1,1.6,1.1c5.8,1.3,11.7,2.4,17.4,3.8c5,1.2,9.9,2.6,15.3,4.6
		c-0.3,0.1-0.6,0.1-0.9,0.3c-0.8,0.4-1.6,0.9-2.3,1.4c0.7,0.5,1.3,1.2,2.1,1.5c2.1,1,4.3,1.7,6.3,2.8c0.8,0.5,1.2,1.7,1.8,2.6
		c-0.9,0.4-1.8,1.1-2.8,1.1c-2.3,0-4.7-0.2-6.9-0.7c-6.4-1.2-12.8-2.6-19.2-4c-1.1-0.2-2.3-0.3-3.4-0.8c-4.1-1.6-7.2,1.2-10.8,2
		c0,0.3,0,0.5,0,0.8c0.4,0.3,0.8,0.8,1.3,1c2.3,0.7,4.6,1.3,6.9,1.9c1.4,0.4,2.7,1,4.1,1.2c1.4,0.2,2.9,0,4.4,0
		c-0.9,1.7,0.5,2,2.2,2.2c0.9,0.1,1.7,0.7,2.6,1.1c0.6,0.2,1.2,0.6,1.8,0.6c1.5-0.1,2.7-0.2,3.8,1.2c0.3,0.4,1.5,0,2.3,0.2
		c0.7,0.2,1.3,0.7,1.9,1c-0.7,0.3-1.3,0.9-2,1c-0.7,0.1-1.4-0.4-2.1-0.6c-4-1.1-8-2-11.9-3.2c-2.7-0.8-5.3-2-8-2.8
		c-3.3-0.9-6.7-1.5-10-2.2c-0.8-0.2-1.9,0.1-2.4-0.3c-1.6-1.6-3.3-1.6-5.3-1.2c-0.8,0.2-1.7-0.3-2.6-0.5c-0.8-0.2-1.6-0.5-2.4-0.4
		c-0.5,0.1-0.9,0.8-1.3,1.2c0.4,0.3,0.8,0.9,1.3,1c0.6,0.2,1.3-0.1,2,0c3.3,0.7,6.6,1.4,9.9,2.2c1.2,0.3,2.4,0.8,3.7,1.1
		c0.7,0.2,1.5,0.1,2.2,0.3c4.9,1.4,9.8,2.7,14.7,4.2c2.1,0.7,4.2,1.7,6.3,2.6c0,0.2-0.1,0.4-0.1,0.6c-0.8,0-1.7,0.2-2.4,0
		c-3.7-1.1-7.4-2.5-11.2-3.5c-3.5-0.9-7.1-1.5-10.6-2.3c-1.1-0.2-2.2-0.6-3.3-0.9c-0.7-0.2-1.4-0.6-2.1-0.6
		c-7.9-0.7-15.7-1.3-23.6-2c-2.7-0.2-5.4-0.8-8.1-1.2c-0.5-0.1-1-0.2-1.5-0.3c-12.1-1.8-24.3-2.2-36.6-1.4
		c-6.2,0.4-12.4,0.8-18.6,1.5c-6.8,0.8-13.6,1.9-20.4,2.9c-0.1,0-0.2,0-0.2,0c-8.1,0.7-16.2,1.4-24.3,2.1c-2.9,0.3-5.8,0.5-8.7,0.9
		c-1.5,0.2-3,0.5-4.5,0.6c-12,0.7-23.9,1.3-35.9,2.1c-3.4,0.2-6.7,1-10.1,1.4c-2.1,0.2-4.3,0.1-6.5,0c-0.6,0-1.6-0.5-1.8-1
		c-0.2-0.4,0.3-1.3,0.7-1.8c2.2-2.6,1.6-5.8-1.2-7.6c-2.3-1.5-4.4-3.5-6.5-5.3c-0.5-0.4-0.5-1.5-0.6-2.2c-0.1-1.9,0.2-3.6,0.8-5
		l-1.9,1.3l-3.1,5l2.5,10.5l7.1,9.3l9.8,6.5l10,2.5l9.9,1.3l17.5,5.8l8,1.3l1.4,0.9l14.1,5.6l3.9,0.9l4.4-2.5l5.4-4.9l9.4,0.1
		l25.7,4.4l42.1-1.1l14.1,8l10.8,21.8l3.5,14.3l2.8,7.3l3.5,3.3l4.6,1.1l5.6,2.9l4.9,3.5l4.5,6.5l8.8,20.4l4.8,11l9.1,3.4l39.7,0.4
		l14.5,5.4l3.5,12.8l-1,15.1l0.9,12.6l3.1,2.5l10.3,3.8l2.1,3.8l1.3,4.9l5.9,15.4l2.5,4.5l5,4l20.2,10l11.9,8.1l3.9,0.8l77.5-4.5
		l13.5,2.4l10.9,1.9l25,7.1l12-1l12.1-8.3l10.5-4.4l13.4,1.9l12.5,4.6l0.6,0.4l42.1,24.5l10.4,13l49.6,44.4l10.5,5.1l10.6,2.4
		l11.9,0.6l14-4.4l1.8-10.3l-5.8-22.7l-11.5,3.5l-11.1,1l-10.6-2.4l-10-6.3l5.5-4.6l6-2.1l6.1,0.4l6.1,2.8l-1.5-3.8l-0.9-6.1
		l-1.5-3.1l4.1-1.8l7.3-4.5l4.1-1.6l-4.3-16.7l2.1-5.5l9.4-18.8l4.1-2.4l8.8-5.1l14.9-5.3l16.5,1.8l7,2.8l6,4.6L774,398l6.1,5.4
		l-12,4.1v4.4h31.5l6.3,2.5l4.6,3.1l5,2.3h7.5l9.1-5.9l7.6-10.8l10.1-36.3l2.3-13.8l2.3-4.4l7.5,0.9l2.1-4.6l7.1-8l2.8-6.4l1.8-6.1
		l7.5,3.5l10.1,6.6l3.8,2.3l8.1,4.9l11.8-0.3l17.3,0.3l7.4,1.8l4.3,4.1l2.6,2.5l-62.8,3.6v4.1l29.9,1.1l8.8-1.1l20.7-4.9l11.9-0.8
		l8.8,3.6l4.3,2.4l15.9,3.8l1.4,0.4l3.5,3.1l2.6,4l3,3.4l4.6,1.4l4.5,2.6l1.8,5.9l1.1,7l2.6,5.4l5.9,4.1l4.6,0.6l4.4-0.9l4.5-0.1
		l31.7,4.9l44.9-4l17.2-6.4l10.5,2.6l10.3,4.9l8.9,2.5l10-3l9.1-13.8l10.3-3.8l-2.3,7.4l-1.5,2l-4,2.9l10.1,2.6l11.9-3.4l20.9-11.5
		l29.4-7.5l6-4.8L1238.5,358.8z M693.3,299l-3.3-5.9l-6.4-9.6l6.4,9.6L693.3,299l2.1,7L693.3,299z M967.6,265.8l-2.5,4.8
		L967.6,265.8l1.9-2.3L967.6,265.8z M994.1,338.8l-0.6,3.5l0.4,5.5l-0.4-5.5L994.1,338.8l2.5-3.9L994.1,338.8z M1008.4,333.6
		l-1.5,0.3L1008.4,333.6l0.9-1.3L1008.4,333.6z M1028,295.5l-4.3-2L1028,295.5l27.2,8.6L1028,295.5z M1086.3,298.7l-8,0.1l-2.4,0.2
		l-2.5,1.6l-2.5,2.5l-2.3,1.4l2.3-1.4l2.5-2.5l2.5-1.6l2.4-0.2L1086.3,298.7l4.9-0.9L1086.3,298.7z M1095,295.7l2.9-1.3h0
		L1095,295.7z M1115.7,302.6l-6.1-3.5L1115.7,302.6l18.7,3L1115.7,302.6z"/>
	<path class="st1" d="M83.9,167.8c0.6,0.5,1.1,1.3,1.7,1.3c0.7,0.1,1.5-0.5,3-1c-1.2-0.7-1.7-1.3-2.2-1.2
		C85.6,167,84.8,167.5,83.9,167.8z"/>
	<path class="st1" d="M514.8,165c-15.2-7.6-31.2-9.9-47.8-7.5C481.9,166.1,498.1,167.2,514.8,165z"/>
	<path class="st1" d="M226.2,159.8c-1.7-0.3-3.2-0.9-4.3-0.6c-1.7,0.6-3.2,1.8-4.7,2.8C219.5,164.6,220.8,164.3,226.2,159.8z"/>
	<path class="st1" d="M594.3,49.3c-5.2-9.2-14.2-10.7-23.2-4.4C577.4,52.2,584.5,53.7,594.3,49.3z"/>
	<path class="st1" d="M522,83.4c15.9,0.8,31.9,1.1,47.8,1.6c-6.8-9.8-22.2-13.1-29.9-7.9c-4.3,2.9-7.8,3.9-11.6,2.8l0,0.1l0-0.1
		c-1.5-0.4-3-1.2-4.6-2.3c-1.1-0.8-3.7,0.5-5.7,0.9C519.4,80.2,520.6,83.3,522,83.4z"/>
	<path class="st1" d="M550.6,149.2c1.9,0.7,5-1.7,9.8-3.6c-3.8-3.3-5.7-6.5-7.9-6.6c-2.6-0.2-5.4,2.1-8.1,3.4
		C546.4,144.7,548,148.2,550.6,149.2z"/>
	<path class="st1" d="M506.8,107.3c6.5,4.8,13.6,6.6,20.8,7.2l1.4-6.8C521.8,106.1,514.5,105.5,506.8,107.3z"/>
	<path class="st1" d="M1126.4,254.1c-7.3-0.7-14.6-1.5-21.9-2.2c-0.1,0.5-0.2,1-0.2,1.5C1107.2,257.4,1119.9,258.4,1126.4,254.1z"/>
	<path class="st1" d="M555.7,268.5c3.9,2.6,11.7,2.2,14.1-1.2c-5,0-9.5,0-14.1,0C555.7,267.7,555.7,268.1,555.7,268.5z"/>
	<path class="st1" d="M1065.8,258.3c0.1,0.7,0.1,2.1,0.2,2.1c1.9,0.1,3.8,0.1,5.8,0.1c0-0.9-0.1-1.7-0.1-2.6
		C1069.7,258,1067.7,258.2,1065.8,258.3z"/>
	<path class="st1" d="M1141.7,261.7c-4.9-2.9-9.2-0.2-13.5,0.4C1132.5,261.5,1137,266.6,1141.7,261.7z"/>
	<path class="st1" d="M552.9,115c-7.9-2.4-15.8-5.4-23.8-7.2l-1.4,6.8C535.9,115.2,544.5,114.4,552.9,115z"/>
	<path class="st1" d="M549.1,39.6l-4-2.4l-15-3.6l-5.9-0.5l-0.4,3.5C532.1,39.3,540.5,40.6,549.1,39.6z"/>
	<path class="st1" d="M523.8,36.5l0.4-3.5L513,32.2c1.1,0.5,2.3,0.9,3.4,1.4C518.9,34.8,521.3,35.7,523.8,36.5z"/>
	<path class="st1" d="M40.8,119c3.7-0.8,7.3-1.9,11-2.8c0.6-0.2,1.3-0.3,2-0.4c0,0,0.1,0,0.1,0c-5.4-1.7-10.7-3.5-16.1-5.3
		c-6.6-2.2-10.1-4.5-11-7.7l-0.3,2.8l-4.4,7.1l-1,5.1l0.2,5.4c2-0.6,4-1.1,6.1-1.6C31.9,120.6,36.4,119.9,40.8,119z"/>
	<path class="st1" d="M1073.2,253.2c0-0.4,0-0.9,0.1-1.3c-3.7,0-7.5,0-11.2,0c0,0.4,0,0.9,0,1.3
		C1065.7,253.2,1069.4,253.2,1073.2,253.2z"/>
	<path class="st2" d="M763.1,82.3c0.3-1.4,0.7-2.9,1-4.3c-4.7-2.4-9.2-5.3-14.1-7.1l-0.1,0l-19.7,3.4l-13.4-0.5
		c11.1,3,22.1,6.3,33.3,9C754.1,83.7,758.7,82.5,763.1,82.3z"/>
	<g>
		<path class="st1" d="M467,157.5c15,8.5,31.2,9.7,47.8,7.5C499.6,157.4,483.6,155.1,467,157.5z"/>
		<path class="st1" d="M221.9,159.2c-1.7,0.6-3.2,1.8-4.7,2.8c2.3,2.6,3.6,2.3,9-2.2C224.4,159.5,223,158.9,221.9,159.2z"/>
		<path class="st1" d="M594.3,49.3c-5.2-9.2-14.2-10.7-23.2-4.4C577.4,52.2,584.5,53.7,594.3,49.3z"/>
		<path class="st1" d="M555.7,268.5c3.9,2.6,11.7,2.2,14.1-1.2c-5,0-9.5,0-14.1,0C555.7,267.7,555.7,268.1,555.7,268.5z"/>
		<path class="st1" d="M620,141.3c9.1,3.9,18.5,7.4,27.9,10.5c1.3,0.4,4.5-1.4,5.1-2.8c0.5-1.4-0.8-4.5-2.2-5.3
			c-7.7-4.3-15.6-8-24.2-12.3c-2.7,1.2-5.9,1.8-7.9,3.7C617.8,135.9,618.8,140.8,620,141.3z"/>
		<path class="st1" d="M577.8,89.8c-4.1,1-8.3,2-12.4,3c0.3,1.6,0.5,3.3,0.8,4.9c4.1-0.4,8.1-0.6,12.1-1.4
			C578.5,96.2,577.9,92,577.8,89.8z"/>
		<path class="st1" d="M568.7,123.4c9.5,7.3,36.1,11.2,43.8,6.9C606.4,123.1,580.6,118.7,568.7,123.4z"/>
		<path class="st1" d="M409,145.6c7.2,0.5,14.4,1,21.5,1.6c0.1-1,0.2-1.9,0.3-2.9c-7.1-1-14.3-2.1-21.4-3.1
			C409.3,142.6,409.2,144.1,409,145.6z"/>
		<polygon class="st1" points="685.9,264 684.3,269.7 684.1,271 684.3,269.7 		"/>
		<polygon class="st1" points="685.8,249 688,259.6 685.9,264 688,259.6 		"/>
		<path class="st1" d="M83.9,167.8c0.6,0.5,1.1,1.3,1.7,1.3c0.7,0.1,1.5-0.5,3-1c-1.2-0.7-1.7-1.3-2.2-1.2
			C85.6,167,84.8,167.5,83.9,167.8z"/>
		<polygon class="st1" points="87.2,117.1 75.6,130.9 87.3,117.1 90.5,116.3 161.5,115.9 90.5,116.3 		"/>
		<path class="st1" d="M100.7,167.4c1.2,0,2.5,0,3.7,0c0-0.2,0-0.5,0-0.7c-1.2,0-2.5,0-3.7,0C100.7,166.9,100.7,167.1,100.7,167.4z"
			/>
		<path class="st1" d="M128.3,162.5c-4.4,0.2-8.7,0.5-13.1,0.8c-0.9,0.1-1.8,0.2-2.6,0.6c-0.5,0.2-0.8,0.9-1.2,1.4
			c0.6,0.4,1.1,1.2,1.6,1.2c2.7,0,5.7,0.3,8.1-0.6c3.1-1.3,6.1-1.1,9.2-1c3.1,0.1,6.2-0.2,9.3-0.3c0-0.4,0.1-0.9,0.1-1.3
			c-0.9-0.3-1.7-0.9-2.6-0.9C134.3,162.3,131.3,162.4,128.3,162.5z"/>
		<path class="st1" d="M887.5,228.3c-5.8-1.2-11.6-2.6-17.4-4.1c-12.1,1-24.1,2.6-36.2,3.7c-8.8,0.8-17.6,1.4-26.4,2.4
			c-3.4,0.4-6.8,1.9-10.2,2c2.2,0.9,4.4,1.7,6.6,2.6c13-0.3,26.1-0.1,38.8-2.3c14.4-2.5,28.8-1.9,43.2-2.9c1.8-0.1,3.6-0.4,5.4-0.7
			C890,228.8,888.7,228.5,887.5,228.3z"/>
		<path class="st1" d="M1062,253.2c3.7,0,7.4,0,11.1,0c0-0.4,0-0.9,0.1-1.3c-3.7,0-7.5,0-11.2,0C1062,252.3,1062,252.8,1062,253.2z"
			/>
		<polygon class="st1" points="530.2,72.6 529.8,68.4 523.2,51.2 529.8,68.4 530.2,72.6 529.8,76.1 528.3,79.9 529.8,76.1 		"/>
		<path class="st1" d="M1065.8,258.3c0.1,0.7,0.1,2.1,0.2,2.1c1.9,0.1,3.8,0.1,5.8,0.1c0-0.9-0.1-1.7-0.1-2.6
			C1069.7,258,1067.7,258.2,1065.8,258.3z"/>
		<path class="st1" d="M1128.2,262.1c4.3-0.7,8.8,4.4,13.5-0.4C1136.8,258.8,1132.5,261.5,1128.2,262.1z"/>
		<path class="st1" d="M1104.3,253.3c2.9,4,15.7,5.1,22.1,0.7c-7.3-0.7-14.6-1.5-21.9-2.2C1104.4,252.4,1104.4,252.8,1104.3,253.3z"
			/>
		<path class="st1" d="M935.1,235.8c-11.8,0-23.7-0.1-35.5,0c-2.5,0-5,0.4-7.4,1c-1.6,0.4-3,1.5-4.5,2.3c0.1,0.6,0.3,1.2,0.4,1.8
			c5.9,0.4,11.9,1.1,17.8,1c13.5-0.3,27-1,40.4-1.7c1.3-0.1,2.5-1.3,3.7-1.9c-0.4-0.2-0.7-0.5-1-0.7
			C944.3,237,939.7,236.4,935.1,235.8z"/>
		<polygon class="st1" points="573.5,196.9 578.9,197.4 573.5,196.9 		"/>
		<path class="st1" d="M550.6,149.2c1.9,0.7,5-1.7,9.8-3.6c-3.8-3.3-5.7-6.5-7.9-6.6c-2.6-0.2-5.4,2.1-8.1,3.4
			C546.4,144.7,548,148.2,550.6,149.2z"/>
		<path class="st1" d="M855.1,223.2c2.9-0.2,5.8-0.4,8.6-0.7c-16.6-4.3-33-9.3-49.4-14.2c-13.2-4-25.9-9.8-38.7-14.9
			c-12-4.7-23.9-9.5-35.8-14.5c-10.7-4.4-21.2-9.1-31.8-13.7c-10-4.5-19.9-9.4-30-13.6c-9.2-3.8-18.1,3.9-16.8,15.9
			c-11.2-1.6-21.9-3.7-32.8-4.6c-4.7-0.4-9.6,1.8-14.4,2.8c3.9,2.6,7.4,6,11.6,7.6c17.3,6.7,34.7,13.2,52.2,19.1
			c8.3,2.8,17.4,3.5,25.8,6.2c3.5,1.1,7,2.3,10.5,3.4l-32.8,4.1c-2-0.4-4.1-0.7-6.1-0.8c-9.2-0.7-17.6-1.7-25.3-8.3
			c-3.9-3.3-11.4-2.2-17.1-3.8c-6.4-1.8-12.7-4.3-19-6.4c-5.6-1.9-11.3-5.4-16.8-5.1c-11.6,0.5-21.7-3-31.6-8.2
			c-9.4-5-19.1-5.6-30.9,0.3c3.8,2.5,6.1,5.1,8.8,5.7c6.7,1.6,13.6,2.9,20.5,3.2c9,0.4,16.8,1.7,24.5,7.7c5.1,4,13.6,3.7,20.5,5.3
			c5.1,1.2,10.3,1.9,15.3,3.5c7.9,2.5,15.7,5.6,23.5,8.4c13.9,5,27.8,10,41.8,14.8c12.8,4.4,26.3,7.3,38.8,12.2
			c6.4-0.5,12.8-1,19.2-1.9c3.2-0.4,6.3-0.8,9.5-1.2c-8.1-2.6-16.2-5.1-24.3-7.8c-13.7-4.6-27.2-10-40.9-14.7
			c-3.4-1.2-6.9-2.2-10.5-2.9l32.8-4.1c15.3,5.1,30.5,10.4,45.6,16c9.7,3.6,19.3,7.3,28.9,11c6.8-0.6,13.5-1.6,20.2-2.2
			C824.3,225.5,839.7,224.4,855.1,223.2z"/>
		<path class="st1" d="M539.9,77.1c-4.3,2.9-7.8,3.9-11.6,2.8c-1.5-0.4-3-1.2-4.6-2.3c-1.1-0.8-3.7,0.5-5.7,0.9
			c1.3,1.7,2.5,4.8,3.9,4.9c15.9,0.8,31.9,1.1,47.8,1.6C563,75.2,547.7,71.9,539.9,77.1z"/>
		<path class="st1" d="M735.8,236.6c-0.5,0.1-1.1,0.3-1.6,0.6c1.7,0.8,3.4,1.6,5,2.5c0.1,0,0.1,0.1,0.2,0.1c0.4-0.5,0.8-1.1,1.3-1.5
			C739,237.7,737.2,236.3,735.8,236.6z"/>
		<path class="st1" d="M750.6,235.7c-1.3,0.2-2.5,1-4,1.6c1.7,3.8,4.4,4.4,7.7,4c6.5-0.8,13-1.5,19.6-2.2c1.8-0.2,3.7-0.2,5.6-0.3
			c-5.2-1.7-10.4-3.3-15.6-5C759.4,234.4,755,235.1,750.6,235.7z"/>
		<path class="st2" d="M1178.3,258.1c-3-0.2-6.1-0.6-9.1-0.5c-7.1,0.3-7.1,0.4-8.4-6.1c0-0.2-0.4-0.4-1.3-1.2
			c-1.1,1.2-2.1,2.3-3.2,3.5c-0.9,1-1.7,2.1-2.6,3.1c-0.8-0.9-1.5-2-2.4-2.8c-1-0.8-2.1-1.7-3.3-2c-1.1-0.3-2.4,0.2-3.8,0.3
			c0.8,1.4,1.3,2.4,2.2,3.9c-5.4,0.6-10.2,1.7-14.9-0.1c-0.3-0.5-0.5-1-0.8-1.4c1.3-0.5,2.6-1,4.6-1.9c-2-0.8-2.4-1-3-1.2
			c-14.2-4.6-29-4.7-43.7-5.6c-9.4-0.5-18.8-1-28.2-1.4c-4.3-0.2-6.8-1.9-6.8-6.6c0-3.1-1.6-4.6-5-3.3c-2.2,0.8-4.6,1.2-7,1.6
			c-4.6,0.6-9,0.1-14.4-1.5c5.2-5.1,11.3-0.3,16.9-3.8c-2.4-0.4-3.5-0.9-4.7-0.9c-6.3-0.1-12.6,0-18.9,0c-4-0.1-8.1-0.1-12.1-0.6
			c-2.6-0.3-5.1-2.1-7.6-2.2c-11.5-0.3-23-0.1-34.6-0.3c-3.5-0.1-6.9-1.1-10.4-1c-9.9,0.1-19.8,0.6-29.8,0.7c-5,0.1-10-0.2-15-0.2
			c-4.7-1.2-9.3-2.4-14-3.7c13.8-0.2,27.6-0.1,41.4-0.1c6.1,0,12.3,0.9,18.4,0.9c7.3,0,14.5-1.1,21.8-1c19.9,0.3,39.9,0.8,59.8,1.4
			c6.7,0.2,13.3,1,20,1.4c0.2-0.7,0.3-1.4,0.5-2.1c-1.8-0.5-3.7-1.5-5.5-1.6c-19.8-0.8-39.6-1.9-59.4-2c-33-0.2-66,0.1-99,0.6
			c-2,0-3.9,0.1-5.9,0.2c-8-2.3-15.9-4.7-23.6-7.5c-24.2-8.7-48.1-18.6-71.7-28.9c-11.8-5.2-26.8-4.6-34.5-17.8
			c-0.6-1-3.2-1.9-4.2-1.4c-6.9,2.9-11.8-0.6-17.5-3.7c-8.2-4.5-16.9-7.9-25.5-11.5c-10.9-4.6-22-8.9-32.9-13.5
			c-12-5.1-23.6-11.1-35.8-15.6c-11.2-4.2-23-6.5-34.3-10.4c-6.2-2.2-12.1-5.6-17.4-9.4c-2.6-1.9-3.6-6.1-5.3-9.2
			c3.9-1.5,7.8-3.9,11.8-4.1c2.4-0.2,5.1,3,7.6,4.7c3.8,2.4,7.3,6,11.4,7c23.7,5.7,47.2,11.8,69.6,22.1c18.4,8.5,37.5,15.3,56.3,23
			c1.4,0.6,2.6,1.7,4,2.4c9.8,4.8,19.4,10.2,29.5,14.2c9.1,3.5,18.2,6.9,27.4,10.2c10.1,3.6,20.2,7.1,30.2,10.8
			c17.1,6.2,34.2,12.6,51.2,18.8c6.2,2.3,12.4,4.6,18.7,6.5c8.7,2.7,17.6,5,26.4,7.5c0.5-1.1,1-2.3,1.4-3.4
			c-2.8-2.3-5.3-5.5-8.5-6.7c-8.5-3.3-17.5-5.5-26.1-8.6c-17.4-6.4-34.7-13-51.9-19.9c-4.3-1.7-7.6-5.8-11.8-7.7
			c-14.2-6.6-28.5-12.8-42.9-19c-26.9-11.5-54-22.8-80.9-34.4c-8.8-3.8-17.5-7.9-26-12.3c-2.4-1.2-4.3-3.6-6.4-5.4
			c3-1.1,6.1-3.4,8.8-3.1c8.1,1,16.1,3.3,24.2,4.5c2.5,0.4,5.3-1.4,7.9-2.2c-1.7-2.3-2.8-5.9-5-6.6c-7.4-2.7-15.1-5.8-22.8-6
			c-10.9-0.4-21.5-6.3-33.1-0.3c-6.9,3.6-12.1-2.2-12.9-12c-15.7-3.6-32.2-6.4-44.4-21.5c14-1.3,26.2-0.2,38.3,4.1
			c9.1,3.3,18.3,6.6,27.7,8.8c13.8,3.3,28,5.3,41.8,8.6c0.1,0,0.3,0.1,0.4,0.1l-9.6-8.5l-3.1-1.9l-25.5-4.5l0.5,1.1l-1.9,1.9l-3,1.5
			h-3.4l-2.8-2.6l-2.1-7.4l-2.6-2.8l-20.7-5.3l-30.2-3.5h-29.3l-18,4.6l-7.7-4.7c-8.6,0.9-17-0.3-25.3-3.1l-1,9.8l1-9.8
			c-2.5-0.8-4.9-1.8-7.4-2.9c-1.1-0.5-2.3-1-3.4-1.4l-22.5-1.7l-24.5-6l-55.6-1l-40.6-8.9L323.7,4.5l-26.2-1l-23,3.8l-10.1,4.6
			l-5.9,5.5l-12.9,16.7l-3.6,6.3l0.2,4.6l-0.6,3.9l-5.8,4.1l-6.5,1l-6.3-1.5l-4.5-1.6l-6.1-2.4H200L163.1,53l-13-2.5l-10.5-4
			l-9.1,0.3l-8.5,10l-14.6-11.3l-20.4,6.8L69.3,68.5l-5.9,17L54,82.4l-5.9,4.8l-4.5,7l-5.6,3.8L29,98.5l-2,2.4l-0.2,1.8
			c0.8,3.2,4.4,5.5,11,7.7c5.3,1.8,10.7,3.6,16.1,5.3c0,0-0.1,0-0.1,0c-0.7,0.1-1.3,0.2-2,0.4c-3.7,0.9-7.3,2-11,2.8
			c-4.4,1-9,1.6-13.4,2.7c-2,0.5-4,1-6.1,1.6l0.5,12.7l-0.9,4.4l-0.8,3.5l-4,5l-6.6,4.7c-0.6,1.5-0.9,3.1-0.8,5
			c0.1,0.8,0.1,1.8,0.6,2.2c2.1,1.9,4.2,3.8,6.5,5.3c2.8,1.8,3.4,5,1.2,7.6c-0.4,0.5-0.9,1.4-0.7,1.8c0.2,0.5,1.1,0.9,1.8,1
			c2.2,0.1,4.3,0.2,6.5,0c3.4-0.3,6.7-1.1,10.1-1.4c12-0.8,23.9-1.4,35.9-2.1c1.5-0.1,3-0.4,4.5-0.6c2.9-0.3,5.8-0.6,8.7-0.9
			c8.1-0.7,16.2-1.4,24.3-2.1c0.1,0,0.2,0,0.2,0c6.8-1,13.6-2.1,20.4-2.9c6.2-0.7,12.4-1.1,18.6-1.5c12.2-0.8,24.4-0.4,36.6,1.4
			c0.5,0.1,1,0.2,1.5,0.3c2.7,0.4,5.4,1,8.1,1.2c7.9,0.7,15.7,1.3,23.6,2c0.7,0.1,1.4,0.4,2.1,0.6c1.1,0.3,2.2,0.7,3.3,0.9
			c3.5,0.8,7.1,1.3,10.6,2.3c3.8,1,7.4,2.4,11.2,3.5c0.7,0.2,1.6,0,2.4,0c0-0.2,0.1-0.4,0.1-0.6c-2.1-0.9-4.1-1.9-6.3-2.6
			c-4.9-1.5-9.8-2.9-14.7-4.2c-0.7-0.2-1.5-0.1-2.2-0.3c-1.2-0.3-2.4-0.8-3.7-1.1c-3.3-0.8-6.6-1.5-9.9-2.2c-0.6-0.1-1.4,0.1-2,0
			c-0.5-0.1-0.9-0.6-1.3-1c0.4-0.4,0.8-1.1,1.3-1.2c0.8-0.1,1.6,0.2,2.4,0.4c0.9,0.2,1.8,0.6,2.6,0.5c2-0.4,3.7-0.5,5.3,1.2
			c0.4,0.4,1.6,0.2,2.4,0.3c3.3,0.7,6.7,1.3,10,2.2c2.7,0.7,5.3,2,8,2.8c3.9,1.2,8,2.1,11.9,3.2c0.7,0.2,1.4,0.7,2.1,0.6
			c0.7-0.1,1.3-0.6,2-1c-0.6-0.3-1.2-0.8-1.9-1c-0.7-0.2-2,0.2-2.3-0.2c-1.1-1.4-2.3-1.3-3.8-1.2c-0.6,0-1.2-0.3-1.8-0.6
			c-0.9-0.4-1.7-0.9-2.6-1.1c-1.7-0.2-3.1-0.5-2.2-2.2c-1.4,0-2.9,0.2-4.4,0c-1.4-0.2-2.7-0.9-4.1-1.2c-2.3-0.7-4.6-1.2-6.9-1.9
			c-0.5-0.1-0.9-0.7-1.3-1c0-0.3,0-0.5,0-0.8c3.6-0.7,6.7-3.6,10.8-2c1.1,0.4,2.3,0.5,3.4,0.8c6.4,1.3,12.8,2.7,19.2,4
			c2.3,0.4,4.6,0.6,6.9,0.7c0.9,0,1.8-0.7,2.8-1.1c-0.6-0.9-1-2.2-1.8-2.6c-2-1.1-4.2-1.9-6.3-2.8c-0.8-0.4-1.4-1-2.1-1.5
			c0.8-0.5,1.6-1,2.3-1.4c0.3-0.2,0.6-0.2,0.9-0.3c-5.3-1.9-10.3-3.4-15.3-4.6c-5.8-1.4-11.6-2.5-17.4-3.8c-0.6-0.1-1.1-0.7-1.6-1.1
			c0.1-0.3,0.1-0.6,0.2-0.8c1.9-0.2,3.9-0.9,5.8-0.6c5,0.9,10,2,14.9,3.3c6.8,1.8,13.5,3.9,20.3,5.9c0.9,0.2,1.9,0.1,2.8,0.2
			c0-0.3,0.1-0.6,0.1-0.9c-2.2-0.8-4.4-1.5-6.4-2.5c-0.8-0.4-1.4-1.4-2.1-2.1c-1.1-0.5-3.3,0.8-3-2c-1.8-0.6-3.3-1.2-4.9-1.7
			c-1.7-0.6-3.5-1.2-5.2-1.6c-2.7-0.6-5.5-1-8.1-1.8c-0.2-0.1-0.4-0.2-0.5-0.4c49.2,6.4,98.3,13,147.4,19.8
			c26.9,3.7,54,7.6,80.4,14.1c15.1,3.7,30.1,7.6,45.1,11.6l15.3-73.3c-7.3-0.6-14.3-2.3-20.8-7.2c7.7-1.8,15.1-1.2,22.3,0.4l3-14.4
			v-5.6l-3-3.9l3,3.9v5.6l-3,14.4c8,1.8,15.9,4.9,23.8,7.2c-8.3-0.6-16.9,0.2-25.3-0.4l-15.3,73.3c32.5,8.7,65,17.9,97.3,27.2
			c26.3,7.5,52.4,16,78.6,24.1c-12.5,1.3-25.1,2.4-37.6,3.6c-12.2,1.1-24.3,2.1-36.5,3.4c-14.6,1.6-29.2,3.6-43.8,5.3
			c-10.8,1.2-21.7,2.3-32.5,3.3c-3.8,0.3-7.6,0.1-11.4,0.3c-3.6,0.1-4.6,1.6-4.1,5.1c0.2,1.5,0.1,3.4-0.6,4.7
			c-1.5,2.6-0.9,4.2,1.9,4.4c4.7,0.4,5.7,3.2,4.8,7c-0.9,3.9,1.2,6.2,4.1,7.3c4.2,1.7,8.8,3.6,13.2,3.5c16.1-0.5,32.2-1.9,48.3-3
			c0.7,0,1.4-0.3,2.1-0.4c8.9-1.7,17.8-3.6,26.7-5c8.8-1.4,17.7-2.2,26.6-3.3c11.6-1.4,23.1-3.1,34.7-4.3l0.2-1.4l1.6-5.6l2.1-4.4
			l-2.3-10.6l2.3,10.6l-2.1,4.4l-1.6,5.6l-0.2,1.4c2.4-0.2,4.8-0.4,7.1-0.6c25.4-1.8,50.8-3.9,76.3-5.4c2.7,1.2,5.5,2.2,8.4,2.7
			c5.1,0.8,9.5,0.5,12.8,5.8c1.6,2.5,6.2,3,11,5.1c-1.6-9.1-4.8-13.3-11.1-14.6c6.5-0.3,13-0.5,19.5-0.6c12.5-0.2,24.9-0.4,37.4-0.6
			c5.2,2,10.4,4,15.6,5.9c3.7,1.4,8.2,0.8,12.3,1.2c0.1-1,0.2-2,0.3-3c-3.3-1.5-6.7-2.9-10-4.3c44.3-0.5,88.6-0.3,132.8,1.9
			c26.8,1.3,53.6,2.5,80.4,3.2c26.9,0.8,53.7,2.1,79.2-0.7c2.1-1.6,3.2-3,4.6-3.3c5-1.3,10.1-2.1,15.2-3.2c0.9-0.2,1.6-0.7,2.4-1.1
			C1178.3,259,1178.3,258.5,1178.3,258.1z M85.6,169.1c-0.6-0.1-1.1-0.9-1.7-1.3c0.8-0.3,1.7-0.8,2.5-0.9c0.4-0.1,1,0.5,2.2,1.2
			C87.1,168.6,86.3,169.2,85.6,169.1z M104.4,167.4c-1.2,0-2.5,0-3.7,0c0-0.2,0-0.5,0-0.7c1.2,0,2.5,0,3.7,0
			C104.4,166.9,104.4,167.1,104.4,167.4z M139.7,164.6c-3.1,0.1-6.2,0.4-9.3,0.3c-3.2-0.1-6.1-0.3-9.2,1c-2.4,1-5.4,0.6-8.1,0.6
			c-0.5,0-1.1-0.7-1.6-1.2c0.4-0.5,0.7-1.2,1.2-1.4c0.8-0.4,1.7-0.5,2.6-0.6c4.4-0.3,8.7-0.6,13.1-0.8c3-0.1,6-0.2,9-0.1
			c0.9,0,1.7,0.6,2.6,0.9C139.8,163.8,139.7,164.2,139.7,164.6z M90.5,116.3l-3.3,0.8l-11.6,13.8l11.6-13.8L90.5,116.3l71-0.4
			L90.5,116.3z M226.2,159.8c-5.4,4.6-6.6,4.8-9,2.2c1.6-1,3-2.2,4.7-2.8C223,158.9,224.4,159.5,226.2,159.8z M430.5,147.2
			c-7.2-0.5-14.4-1-21.5-1.6c0.2-1.5,0.3-3,0.5-4.5c7.1,1,14.3,2.1,21.4,3.1C430.8,145.3,430.7,146.2,430.5,147.2z M514.8,165
			c-16.7,2.2-32.9,1.1-47.8-7.5C483.6,155.1,499.6,157.4,514.8,165z M555.7,268.5c0-0.4,0-0.8,0-1.2c4.6,0,9.1,0,14.1,0
			C567.3,270.7,559.6,271.1,555.7,268.5z M618.7,135c2-1.9,5.2-2.6,7.9-3.7c8.5,4.3,16.5,8,24.2,12.3c1.4,0.8,2.7,3.9,2.2,5.3
			c-0.5,1.4-3.7,3.3-5.1,2.8c-9.4-3.1-18.8-6.6-27.9-10.5C618.8,140.8,617.8,135.9,618.7,135z M612.5,130.3
			c-7.7,4.3-34.3,0.4-43.8-6.9C580.6,118.7,606.4,123.1,612.5,130.3z M566.1,97.7c-0.3-1.6-0.5-3.3-0.8-4.9c4.1-1,8.3-2,12.4-3
			c0.2,2.2,0.7,6.4,0.4,6.4C574.2,97,570.1,97.3,566.1,97.7z M594.3,49.3c-9.9,4.4-16.9,3-23.2-4.4C580.1,38.6,589.1,40,594.3,49.3z
			 M522,83.4c-1.4-0.1-2.6-3.2-3.9-4.9c1.9-0.4,4.5-1.7,5.7-0.9c1.6,1.1,3.1,1.9,4.6,2.3l1.5-3.8l0.4-3.5l-0.4-4.3l-6.6-17.2
			l6.6,17.2l0.4,4.3l-0.4,3.5l-1.5,3.8c3.8,1.1,7.3,0.1,11.6-2.8c7.7-5.2,23-2,29.9,7.9C553.9,84.5,538,84.2,522,83.4z M552.6,139
			c2.1,0.1,4.1,3.3,7.9,6.6c-4.8,1.9-7.9,4.3-9.8,3.6c-2.6-1-4.2-4.4-6.2-6.8C547.1,141.1,549.9,138.8,552.6,139z M573.5,196.9
			L573.5,196.9l5.4,0.5L573.5,196.9z M739.4,239.8c-0.1,0-0.1-0.1-0.2-0.1c-1.6-0.9-3.3-1.7-5-2.5c0.5-0.3,1-0.5,1.6-0.6
			c1.4-0.3,3.3,1,4.9,1.7C740.2,238.7,739.8,239.3,739.4,239.8z M773.9,239.1c-6.5,0.7-13.1,1.4-19.6,2.2c-3.4,0.4-6-0.1-7.7-4
			c1.5-0.6,2.7-1.4,4-1.6c4.4-0.6,8.8-1.3,13.2-1.9c5.2,1.6,10.4,3.3,15.6,5C777.6,238.9,775.7,238.9,773.9,239.1z M759.7,218.1
			c-15.1-5.6-30.3-10.9-45.6-16l-32.8,4.1c3.6,0.7,7.1,1.7,10.5,2.9c13.7,4.7,27.2,10.1,40.9,14.7c8.1,2.7,16.2,5.3,24.3,7.8
			c-3.2,0.4-6.3,0.8-9.5,1.2c-6.4,0.9-12.8,1.4-19.2,1.9c-12.5-4.9-26-7.9-38.8-12.2c-14-4.8-27.9-9.8-41.8-14.8
			c-7.8-2.8-15.6-5.9-23.5-8.4c-5-1.6-10.2-2.3-15.3-3.5c-7-1.6-15.4-1.3-20.5-5.3c-7.7-6-15.5-7.3-24.5-7.7
			c-6.9-0.3-13.8-1.6-20.5-3.2c-2.8-0.7-5.1-3.2-8.8-5.7c11.8-5.9,21.5-5.3,30.9-0.3c9.9,5.2,20,8.7,31.6,8.2
			c5.5-0.2,11.2,3.3,16.8,5.1c6.3,2.1,12.6,4.7,19,6.4c5.7,1.6,13.2,0.4,17.1,3.8c7.7,6.6,16.1,7.6,25.3,8.3c2,0.1,4.1,0.4,6.1,0.8
			l32.8-4.1c-3.5-1.2-7-2.3-10.5-3.4c-8.4-2.7-17.4-3.4-25.8-6.2c-17.6-5.9-34.9-12.4-52.2-19.1c-4.2-1.6-7.8-5-11.6-7.6
			c4.8-1,9.7-3.2,14.4-2.8c10.9,0.8,21.6,2.9,32.8,4.6c-1.3-12,7.6-19.7,16.8-15.9c10.1,4.2,20,9.1,30,13.6
			c10.6,4.7,21.1,9.3,31.8,13.7c11.9,5,23.8,9.7,35.8,14.5c12.9,5.1,25.5,10.9,38.7,14.9c16.4,5,32.8,9.9,49.4,14.2
			c-2.9,0.2-5.8,0.5-8.6,0.7c-15.4,1.1-30.8,2.3-46.1,3.6c-6.8,0.6-13.5,1.6-20.2,2.2C779.1,225.3,769.4,221.7,759.7,218.1z
			 M842.7,232.7c-12.7,2.2-25.8,2-38.8,2.3c-2.2-0.9-4.4-1.7-6.6-2.6c3.4-0.2,6.8-1.7,10.2-2c8.8-0.9,17.6-1.5,26.4-2.4
			c12.1-1.1,24.1-2.7,36.2-3.7c5.8,1.4,11.6,2.8,17.4,4.1c1.3,0.3,2.5,0.5,3.8,0.8c-1.8,0.3-3.6,0.6-5.4,0.7
			C871.5,230.7,857.1,230.1,842.7,232.7z M946.2,240.3c-13.5,0.7-27,1.4-40.4,1.7c-5.9,0.1-11.9-0.6-17.8-1
			c-0.1-0.6-0.3-1.2-0.4-1.8c1.5-0.8,2.9-1.9,4.5-2.3c2.4-0.6,5-1,7.4-1c11.8-0.1,23.7-0.1,35.5,0c4.6,0.6,9.2,1.2,13.8,1.8
			c0.3,0.3,0.7,0.5,1,0.7C948.7,239,947.4,240.2,946.2,240.3z M1066,260.4c-0.1,0-0.2-1.4-0.2-2.1c2-0.1,4-0.3,5.9-0.4
			c0,0.9,0.1,1.7,0.1,2.6C1069.8,260.5,1067.9,260.5,1066,260.4z M1073.2,253.2c-3.7,0-7.4,0-11.1,0c0-0.4,0-0.9,0-1.3
			c3.7,0,7.5,0,11.2,0C1073.2,252.3,1073.2,252.8,1073.2,253.2z M1104.3,253.3c0.1-0.5,0.2-1,0.2-1.5c7.3,0.7,14.6,1.5,21.9,2.2
			C1119.9,258.4,1107.2,257.4,1104.3,253.3z M1128.2,262.1c4.3-0.6,8.6-3.3,13.5-0.4C1137,266.6,1132.5,261.5,1128.2,262.1z"/>
	</g>
</g>
<path class="st3" d="M424.8,425.5c-7.5-1.4-14.9-3.1-22.4-4.3c-6.1-1-12.4-0.9-18.4-2.4c-4.7-1.1-9-0.9-13.5,0.4
	c-0.8,0.2-1.6,0.6-2.4,1c0,0.3,0,0.6,0,0.9c4.7,0.7,9.5,1.4,14.2,2.1c4.8,0.7,9.6,1.4,14.4,2.3c4.7,0.8,9.5,1.8,14.1,2.8
	c4.7,1.1,9.3,2.3,13.9,3.5c-0.1,0.4-0.1,0.7-0.2,1.1c-2.3-0.5-4.6-1-7-1.5c-1.6-0.3-3.2-0.6-4.8-1c-1.8-0.4-3.7-0.9-5.5-1.3
	c-0.5-0.1-1-0.3-1.4-0.4c-2.9-0.5-5.8-1.2-8.7-1.6c-4.9-0.7-9.8-1.3-14.7-2c-4.6-0.6-9.2-1.3-13.8-1.9c-13.9-2-27.8-3.1-41.8-1.5
	c-4.4,0.5-8.7,1.1-13.1,1.7c-0.8,0.1-1.5,0.5-2.5,0.9c0.5,0.7,0.8,1.2,1.2,1.8c-0.2,0.2-0.4,0.3-0.6,0.4c-0.2,0.1-0.5,0.2-0.7,0.2
	c-7.8,0.7-15.6,1.1-23.3,2.1c-4.3,0.5-8.6,1.8-12.8,2.7c-0.3,0.1-0.6,0.4-0.9,0.4c-4.5,0-9.1,0-13.8,0c0.1-1,0.2-1.6,0.3-2.3
	c0.2-2.7-1.1-4-3.8-3.3c-1.8,0.4-3.4,0.3-4.5-1.1c-0.6-0.8-0.7-2.1-0.9-3.3c-0.1-0.4,0.4-1,0.4-1.4c-0.2-2.4,0.6-4.3,2-6.2
	c0.6-0.8,0.6-2.1,0.8-3.2c-1,0-2,0-3.1,0c-0.5,0-0.9,0-1.8-0.6c1-1,1.9-1.9,2.8-2.9c0.9-1,1.7-2.1,3-3.6c-1.2-0.1-1.8-0.4-2.2-0.2
	c-4.4,2.1-9,1-13.5,1c-2.6,0-3.7-2.7-2-4.8c3-3.6,3.1-7.9,3.1-12.2c0-0.6-0.1-1.6,0.3-1.9c3.9-2.7,4.8-7.4,7.6-10.8
	c2.5-3,5.6-5.6,8.9-7.8c4.6-3.2,9.5-6.1,14.5-8.6c3.1-1.5,6.6-2.2,10-3.1c5.6-1.6,11.3-3.1,17-4.5c3-0.8,5.9-1.3,8.9-2
	c2.8-0.6,5.7-1.1,8.5-1.6c20.6-3.8,41.3-5.2,62.1-4.5c1.4,0,2.7,0.3,4.1,0.4c0,0.3,0,0.5,0.1,0.8c-1,0.1-1.9,0.4-2.9,0.4
	c-5.6,0.1-11.2,0-16.7,0.1c-1.1,0-2.1,0.4-3.2,0.6c0,0.3-0.1,0.7-0.1,1c0.9,0.3,1.8,0.7,2.7,0.8c6,0.7,12.1,1.3,18.1,2
	c0.8,0.1,1.5,0.6,2.2,0.9c0,0.2-0.1,0.5-0.1,0.7c-0.8,0.1-1.7,0.2-2.5,0.2c-6.5,0.2-13,0.4-19.4,0.5c-1.2,0-2.4-0.3-3.7-0.5
	c-1.1-0.1-2.2-0.4-3.2-0.1c-0.6,0.2-1.2,1.2-1.2,1.9c0,0.4,0.8,1.1,1.4,1.4c0.5,0.2,1.1,0.1,1.7,0.1c9.4,0,18.8,0,28.1-0.1
	c6.1,0,12.2-0.3,18.2,0c13.9,0.7,27.7,1.7,41.6,2.7c0.9,0.1,1.8,0.7,2.7,1.1c-0.1,0.3-0.1,0.6-0.2,0.9c-1.3,0-2.5,0.1-3.8,0
	c-6.5-0.4-12.9-0.9-19.4-1.2c-0.8,0-1.7,0.3-2.6,0.5c0,0.2-0.1,0.5-0.1,0.7c0.7,0.3,1.5,0.7,2.2,0.8c5.3,0.7,10.5,1.6,15.8,1.9
	c3.6,0.2,6.7,1.8,10,2.7c1.8,0.5,3.7,0.9,5.5,1.4c0,0.3-0.1,0.6-0.1,1c-1.4-0.2-2.8-0.3-4.3-0.5c-8.1-1-16.1-2-24.2-2.9
	c-0.7-0.1-1.5,1.1-2.2,1.8c0.8,0.7,1.4,1.9,2.3,2c6.6,0.9,13.2,1.6,19.8,2.4c3.2,0.4,6.4,1.1,9.5,1.8c0.9,0.2,1.7,1,2.4,2
	c-1.5,0-3,0.1-4.5,0c-5.7-0.5-11.4-1-17.1-1.5c-0.7-0.1-1.6-0.1-2.2,0.2c-0.5,0.2-1,0.9-1.1,1.4c0,0.3,0.7,1,1.1,1.1
	c3.8,0.7,7.6,1.4,11.5,1.9c1.7,0.2,3.3,0.4,3.9,2.7c-1.8,0.4-3.5,0.7-5.1,1.1c-0.1,0.3-0.1,0.6-0.2,1c1.3,0.6,2.7,1.2,3.9,1.9
	c0.6,0.3,1.2,0.9,1.8,1.3c-0.5,0.5-1,1.4-1.6,1.5c-2.8,0.3-1.9,2.8-2.5,4.3c-0.2,0.5,1.5,2.1,2.5,2.4c3.9,1.1,7.9,1.8,11.9,2.6
	c2,0.4,3.2,1.5,3.6,4.2c-1.7-0.4-3.1-0.8-4.4-1c-5.6-0.9-11.2-1.7-16.7-2.5c-0.7-0.1-1.4-0.6-2.1-0.8c-1.3-0.3-2.6-0.6-3.9-0.6
	c-0.5,0-0.9,0.7-1.4,1.1c0.5,0.4,0.9,0.9,1.5,1.1c0.6,0.2,1.3,0.2,2,0c1.4-0.3,2.6-0.3,3.5,1.2c0.2,0.3,0.7,0.5,1.1,0.6
	c2.8,0.7,5.6,1.3,8.3,2c0.2,0.1,0.6,0,0.7,0.1c1.8,1.3,3.5,2.6,5.6,4.2c-1.3,0.5-2.5,1-3.9,1.6c2.6,3.1,4.8-0.6,7.1-0.1
	c-0.1,1.4-0.2,2.6-0.3,3.9c-1.8-0.1-3.8-0.4-5.7-0.3c-0.9,0.1-1.7,0.9-2.6,1.4c0.7,0.7,1.3,1.5,2.1,1.9c1.6,0.8,3.3,1.1,4.9,1.9
	c0.6,0.3,0.8,1.3,1.2,1.9c-0.7,0.3-1.3,0.9-2,0.9c-3-0.2-5.9,0-9-1.3c-3-1.4-6.6-1.2-10-1.8c-1-0.2-1.9-0.9-2.9-1.1
	c-0.9-0.2-1.9,0-2.9,0.1c0.5,0.8,0.9,1.8,1.7,2.3c0.9,0.5,2.1,0.6,3.1,0.8c2.3,0.5,4.7,1.1,7,1.6c3.3,0.7,6.6,1.5,9.8,2.2
	c0.9,0.2,1.8,0.4,2.7,0.6c0,0.3,0,0.6,0,0.9c-3.8,0-7.7,0-11.5,0c0,0.2-0.1,0.4-0.1,0.7c1,0.5,2,1,3.1,1.5c-2.6,1.9-4.4,1.7-5.9-0.6
	c-0.8-1.3-1.7-2.2-3.5-1.4c-0.7,0.3-1.7,0-2.6-0.1c-3.3-0.6-6.5-1.3-9.8-1.9c-1.6-0.3-2.5,0.2-2.2,2.2
	C425.5,423.2,425,424.4,424.8,425.5L424.8,425.5z M384.3,412.6c0,0.3,0,0.7-0.1,1c3.6,0.8,7.1,1.6,10.7,2.1c0.7,0.1,1.6-1.2,2.4-1.9
	c-0.8-0.5-1.6-1.3-2.5-1.4c-3.1-0.3-6.2-0.3-9.4-0.3C385.1,412.1,384.7,412.4,384.3,412.6z M419.6,417.4c-1.2,0.8-2.1,1.1-2.4,1.7
	c-0.2,0.4,0.3,1.4,0.7,1.9c0.6,0.8,1.2,1.5,2,2c0.6,0.4,1.5,0.5,2.2,0.3c0.4-0.1,1.1-1.2,1-1.3C422.1,420.5,420.9,419,419.6,417.4z
	 M411.6,419.1c1.1-0.7,1.9-1.3,2.7-1.8c-0.9-0.5-1.7-1.3-2.6-1.3c-0.9,0-1.8,0.8-2.6,1.2C409.9,417.7,410.6,418.3,411.6,419.1z
	 M447.4,404.2c0,0.3,0,0.7,0,1c1.3,0,2.6,0,3.9-0.1c0.1,0,0.2-0.8,0.3-1.2c-1.3,0-2.6-0.1-3.9-0.1
	C447.5,403.8,447.5,404,447.4,404.2z M441.4,401.8c0,0.3-0.1,0.7-0.1,1c1.2,1.5,2.5,1.4,3.8,0.2c0-0.3,0-0.6,0.1-0.9
	C443.9,402,442.7,401.9,441.4,401.8z"/>
<path class="st3" d="M1174,395.6c-1.8,0.6-3.6,1.1-5.4,1.7c1.7,1.2,3.2,2.9,5,3.7c6,2.5,12.2,4.7,18.3,7.2c0.7,0.3,1.3,1,2.4,1.9
	c-1.2,0.5-1.9,1-2.6,1c-5.1,0-10.2,0.5-15.2-0.3c-12.4-1.9-24.8-4.4-37.2-6.6c-7.6-1.3-15.3-2.3-22.9-3.5c-5-0.8-9.9-2-14.9-3
	c-2-0.4-4-0.2-6-0.5c-1.7-0.3-3.7-0.4-4.8-1.4c-2.9-2.7-6-2.6-9.4-1.6c-0.9,0.3-2.1,1.2-2.1,1.8c0,0.8,1,1.7,1.7,2.4
	c0.3,0.3,1,0.4,1.5,0.4c3.9-0.1,7.3,1,11,2.7c4.4,2.1,9.6,2.3,14.3,3.6c6,1.6,12,3.4,18,5.1c3.8,1.1,7.7,2.2,11.5,3.4
	c4.2,1.2,8.4,2.5,12.6,3.7c0,0.4,0,0.7,0,1.1c-3.6,0-7.3,0.7-10.7-0.1c-9-2.1-17.8-4.7-26.6-7.4c-11.1-3.4-22.5-4.7-34-5.4
	c-3.1-0.2-6.1-1.1-9.1-1.3c-1.7-0.1-3.5,0.6-5.2,0.9c0,0.4-0.1,0.9-0.1,1.3c6.8,1.9,13.6,3.8,20.4,5.7c-3.7,1.3-7.2,3.3-11.2,0.9
	c-2.9-1.7-3.6-1.3-5.2,1.7c12.7,2.9,25.3,5.8,37.9,8.7c-5.5-0.1-11.1,2.2-16.5-1.2c-1.4-0.9-3.7-0.3-5.5-0.6
	c-2.7-0.5-5.5-1.1-8.2-1.7c-0.8-0.2-1.5-0.7-2.3-0.8c-7.4-1.1-14.8-2-22.1-3.1c-9.6-1.5-19.2-3-28.7-4.8c-7.6-1.4-15.3-2.8-22.8-4.6
	c-7.9-1.9-15.6-4.3-23.4-6.4c-6.5-1.7-12.5-4.6-18-8.4c-1.8-1.2-4.5-3.6-4.3-4.9c0.5-2.2,2.7-4.6,4.7-5.6c3.2-1.6,2.4-3.4,1.4-5.6
	c-2.5-5.6-2.2-6.6,3-9.3c4-2.1,8-4.4,12.3-6c1.5-0.6,4.1,0.1,5.6,1.1c3.2,2.1,6,4.7,9.1,7.2c3.3-2,6.8-4.1,11.1-6.6
	c-5.3-4.1-12.8-0.4-16.4-7.3c4-2,6.6-5.8,9.6-9.2c1.2-1.4,4.6-0.8,7.3-1.2c-0.3-1.1-0.6-2.1-1-3.8c1.2,0,2.2-0.2,3,0
	c4.5,1.2,9,2.8,13.6,3.7c12.7,2.6,25.5,5,38.3,7.2c3.5,0.6,7.2,0.1,10.8,0.5c15,1.6,30.1,3.2,45.1,5c6.2,0.7,12.5,1.5,18.7,2.5
	c1.6,0.3,3.1,1.3,4.5,2.1c1.3,0.7,2.3,2.1,3.6,2.4c4.9,1.1,9.8,1.9,14.7,2.8c5.3,1,10.7,2.1,16,3.2c0.4,0.1,0.8,0.6,1.7,1.5
	c-3.9,1.2-7,1.7-10.5,0.6c-2.1-0.7-4.4-0.7-6.6-0.7c-0.6,0-1.2,1.2-1.9,1.8c0.6,0.6,1.2,1.7,1.9,1.7c4.7,0.1,9.2,2,13.6,2.7
	c6.9,1,13.2,4,20,4.7c1.5,0.2,2.9,0.4,4.4,0.7c1.1,0.3,2.2,0.8,3.2,1.7c-3.7,2-7.1,1.8-10.8,0.2c-1.9-0.8-4.1-1.1-6.1-1.6
	c-2-0.5-4-1.2-6-1.6c-1.8-0.3-3.6-0.2-5.4-0.3c-0.1,0.5-0.2,1-0.2,1.5c1.8,0.7,3.6,1.4,6.5,2.5c-2.1,1-3.5,1.4-4.5,2.3
	c-1,0.9-1.7,2.2-2.5,3.3c1.1,0.7,2.2,1.4,3.3,2.1c1.5,0.9,3,1.8,4.6,2.6L1174,395.6z M1065.3,393.7c1.6-1,2.9-1.9,4.3-2.7
	c-1.3-0.8-2.7-2.2-4-2.2c-1.5,0-3,1.3-4.5,2C1062.3,391.7,1063.6,392.6,1065.3,393.7z M1046,409.4c-3.8-3-7.6-3-10.8,0
	C1039,409.4,1042.1,409.4,1046,409.4z M1058.9,403.8c0-0.5,0-1,0.1-1.5c-3-1.7-6-1.6-9,0.2c0,0.4,0,0.8,0,1.3
	C1053,403.8,1055.9,403.8,1058.9,403.8z M1050.8,410.8c0,0.4,0,0.9,0,1.3c3.2,0,6.4,0,9.6,0c0-0.4,0-0.9,0-1.3
	C1057.2,410.8,1054,410.8,1050.8,410.8z M1142.8,398.5c-0.2-0.7-0.3-1.5-0.5-2.2c-1.6,0.3-3.3,0.6-4.9,0.9c0.3,0.7,0.5,1.9,0.8,1.9
	C1139.8,399,1141.3,398.7,1142.8,398.5z"/>
<path class="st3" d="M706.8,33.1c-3.8,0.3-7.6,0.6-11.4,0.9c2.1,2.1,4.3,3.6,7.4,3.4c3.4-0.2,6.8-0.3,10.2,0c1.5,0.1,2.8,1.3,4.2,2
	c0,0.3,0,0.7,0,1c-1.6,0.7-3.2,1.4-4.7,2.2c-1.2,0.6-2.4,1.3-3.3,2.3c-1.1,1-4.8,1.6-6.8,0.9c-1.2-0.4-2.5-0.5-3.8-0.4
	c-4.1,0.3-8.2,0.9-12.4-0.3c-3.6-1-7.4-1.2-10,2.7c-1,1.4-2.9,2.2-4.5,3.4c1.2,0,3,0.5,3.9-0.1c1.9-1.3,3.8-2.3,5.9-3.3
	c2.8-1.4,5.1-1.2,6.3,1.8c1.1,2.9,3.2,4.2,6.1,4.9c4.7,1.1,9.4,2.3,14.2,3.4c5.7,1.3,11.4,2.5,17,4c3.2,0.9,6.7,1.2,9.3,4
	c1.4,1.5,4.1,2,6.1,3c1.3,0.6,2.5,1.4,3.8,2.1c-0.1,0.2-0.2,0.4-0.2,0.6c-0.7-0.1-1.4-0.1-2.1-0.4c-4.3-1.8-8.7-2.6-13.3-2.7
	c-2.5,0-4.9-0.5-7.4-1c-5.1-0.9-10.1-2.1-15.2-2.8c-2.7-0.3-5.6,0.2-8.4,0.5c-1.6,0.1-2.9,0.5-4-1.3c-0.5-0.9-2.5-1.2-3.8-1.1
	c-3.7,0-7.1-0.3-10.7-1.3c-3.9-1.1-8.2-0.7-12.4-0.8c-3.9,0-7.8,0.1-11.7,0.4c-2.5,0.2-5.6,0.2-5.9,3.9c0,0.2-0.5,0.3-0.8,0.5
	c-1.2-2.9-4-3.9-7.5-2.3c-2.2,1.1-4.3,1.3-6.7,1.1c-1.4-0.1-3,0.4-4.4,1c2.6,2.9,6.1,0.6,9.5,1.8c-0.8,0.4-1.2,0.7-1.7,0.8
	c-4.3,0.8-8.7,1.4-13,2.2c-5.1,0.9-10.2,1.9-15.3,2.8c-3.4,0.6-6.9,1.1-10.2,2.1c-5.8,1.7-11.9,1.4-17.6,4c-2,0.9-4.7,0.2-7.1,0.2
	c-1.6,0-3.3,0.1-4.8-0.4c-1.2-0.4-2.3-1.4-3.5-2.2c0.4-0.7,1.2-1.4,1.2-2.1c0-0.9-0.4-2-1-2.6c-1-0.9-2.3-1.7-3.6-2.1
	c-2.6-0.9-2.5-2.7-2.2-5c0.2-1.5-0.3-3.1-0.6-4.6c-0.2-0.9-0.7-1.7-0.7-2.6c-0.1-2-0.1-4-2.8-4.6c-0.4-0.1-0.9-2.6-0.4-3.5
	c2.1-4.2,4.4-8.5,7-12.4c2.1-3.3,5.3-5.5,8.9-7c4-1.7,7.8-4,11.8-5.8c5.8-2.5,11.6-5.1,17.6-7.1c7.1-2.3,14.5-4.2,21.8-5.8
	c10.1-2.2,20.4-3.3,30.8-3.5c0.8,0,1.7,0,2.4,0.3c4.4,2.1,9,2.1,13.7,1.8c3.3-0.2,6.7-0.1,10-0.1c0.6,0,1.2,0.3,1.8,1
	c-1.9,0.3-3.8,0.8-5.8,0.9c-7.3,0.4-14.6,0.7-21.9,1.2c-3,0.2-6,1.1-9,1.6c-1.3,0.2-2.7,0.1-4,0.3c-0.9,0.1-1.7,0.5-2.5,0.8
	c-1.7,0.7-3.5,1.5-5.2,2.2c-0.7,0.3-1.6,0.2-2.1,0.7c-1.3,1-2.3,1.1-3.9,0.5c-0.8-0.3-2.1,0.2-3.1,0.4c-2.8,0.7-5.5,1.9-8.3,2.2
	c-2.7,0.2-3.9,1.7-5.8,4.2c1.6,0.1,2.8,0.3,3.9,0.2c6.5-1.1,13-2.7,19.6-3.3c9.6-0.9,19.2-1.1,28.9-1.5c1.2-0.1,2.4,0.2,3.8,0.3
	c-0.2,0.8-0.3,1.3-0.6,2.3c2.4,0.2,4.7,0.5,7,0.5c5.3,0,10.6-0.3,15.9-0.2c2.5,0.1,4.9,0.8,7.4,1.3c3.6,0.7,7.1,1.5,10.5,2.1
	c-0.7,0.1-1.7,0.4-2.7,0.4c-7-0.1-13.9-0.2-20.9-0.4c-1.1,0-2.2-0.1-3.2,0.2c-0.7,0.3-1.2,1.2-1.7,1.9c0.7,0.4,1.3,1.2,2,1.3
	c7.6,0.4,15.3,0.7,22.9,1.1c1.3,0.1,2.6,0.2,3.9,0.3C706.8,32.5,706.8,32.8,706.8,33.1z M671.4,45.2c-0.7,0.7-1.1,1.2-1.5,1.7
	c0.6,0.5,1.1,1.4,1.8,1.5c0.4,0.1,1-0.9,1.6-1.5C672.7,46.4,672.2,45.9,671.4,45.2z M672,29.7c0-0.4,0.1-0.8,0.1-1.3
	c-1.1-0.8-2.2-1.3-3.6-0.3c-0.2,0.2-0.1,1.2-0.1,1.2C669.6,29.5,670.8,29.6,672,29.7z"/>
<g>
	<circle class="st4" cx="568.7" cy="341" r="20.3"/>
	<circle class="st5" cx="568.7" cy="341" r="10.1"/>
</g>
<g>
	<circle class="st4" cx="294.9" cy="252.2" r="28.5"/>
	<circle class="st5" cx="294.9" cy="252.2" r="14.2"/>
</g>
<g>
	<circle class="st4" cx="803.7" cy="309" r="20.3"/>
	<circle class="st5" cx="803.7" cy="309" r="10.1"/>
</g>
<g>
	<circle class="st4" cx="308.7" cy="88" r="20.3"/>
	<circle class="st5" cx="308.7" cy="88" r="10.1"/>
</g>
<g>
	<circle class="st4" cx="919.7" cy="313" r="25.3"/>
	<circle class="st5" cx="919.7" cy="313" r="12.6"/>
</g>
</svg>
