<svg id="Layer_1" data-name="Layer 1" xmlns="http://www.w3.org/2000/svg" viewBox="0 0 76 31"><defs><style>.cls-1{fill:#00579e;}.cls-2{fill:#f9a51a;}</style></defs><title>visa-card-icon</title><path class="cls-1" d="M50.08,3.94,51,4a14.19,14.19,0,0,1,3.34.82.13.13,0,0,1,.1.18c-.21,1.3-.43,2.6-.64,3.89,0,.27-.09.53-.12.8s0,.16-.19.1a9.77,9.77,0,0,0-2.78-.92A8.81,8.81,0,0,0,47,9a2.61,2.61,0,0,0-1.22.71,1.4,1.4,0,0,0,0,2,6,6,0,0,0,1.57,1.13c.91.52,1.88.92,2.78,1.47a8.69,8.69,0,0,1,2.56,2.27,5,5,0,0,1,1,2.63,7,7,0,0,1-3.24,6.61,10.55,10.55,0,0,1-4,1.58,15,15,0,0,1-2.76.26.22.22,0,0,0-.14,0h-.29a1,1,0,0,0-.35,0,20,20,0,0,1-5.09-.81c-.31-.1-.62-.22-.92-.34-.11-.05-.15-.1-.13-.22.21-1.26.41-2.52.62-3.79.06-.36.13-.72.17-1.08,0-.15.07-.14.18-.09a19.84,19.84,0,0,0,2.23.94,10.65,10.65,0,0,0,2.74.54,12.2,12.2,0,0,0,1.71,0,4.11,4.11,0,0,0,2.31-.76,1.76,1.76,0,0,0,.77-1.55,1.63,1.63,0,0,0-.41-1,5.53,5.53,0,0,0-1.63-1.22c-.74-.42-1.51-.75-2.24-1.18a9.18,9.18,0,0,1-3.07-2.61,5.17,5.17,0,0,1-.91-3.46A6.65,6.65,0,0,1,40.7,7.23a8.23,8.23,0,0,1,2.73-2.09A11.66,11.66,0,0,1,47.31,4l.9-.1Z"/><path class="cls-2" d="M7.46,7.36A21.87,21.87,0,0,0,4.81,6,25.94,25.94,0,0,0,1.2,4.82V4.74l0,0c.09-.36.09-.36.47-.36h9a4.46,4.46,0,0,1,1.21.15,2.2,2.2,0,0,1,1.66,1.83c.68,3.4,1.34,6.79,2,10.19a.86.86,0,0,1,0,.16c-.07,0-.09-.07-.11-.13a16.58,16.58,0,0,0-1.59-3.11,15.83,15.83,0,0,0-1.58-2.08c-.3-.33-.6-.67-.92-1a21.39,21.39,0,0,0-2.55-2.1C8.42,8,8,7.75,7.62,7.51A.39.39,0,0,1,7.46,7.36Z"/><path class="cls-1" d="M7.46,7.36a18.45,18.45,0,0,1,3,2.13,17.85,17.85,0,0,1,4.69,6.2c.15.33.28.66.42,1,.26,1.09.44,2.18.68,3.27.07,0,.06-.09.08-.13Q19.14,12.2,22,4.59a.31.31,0,0,1,.34-.25h5.83c.16,0,.2,0,.13.18l-9.2,22.61a.2.2,0,0,1-.23.15H12.93c-.16,0-.22,0-.26-.19q-1.51-5.75-3-11.49c-.71-2.69-1.43-5.38-2.14-8.07A.36.36,0,0,1,7.46,7.36Z"/><path class="cls-1" d="M30,27.32c-.93,0-1.87,0-2.8,0-.15,0-.17,0-.15-.17.31-1.87.61-3.73.91-5.6l.9-5.54c.29-1.78.57-3.56.86-5.33l.9-5.56c0-.2.07-.4.09-.6s.07-.17.21-.17h5.61c.11,0,.15,0,.13.15-.44,2.69-.87,5.38-1.31,8.07s-.89,5.52-1.34,8.29l-1,6.3c0,.13-.06.16-.19.16Z"/><path class="cls-1" d="M74.4,26.67c-.46-2.23-.93-4.46-1.39-6.69s-1-4.56-1.43-6.83C71,10.3,70.39,7.44,69.8,4.59a.39.39,0,0,0-.09-.22.51.51,0,0,0-.3,0h-4.7a2.78,2.78,0,0,0-2.62,1.6c-.41.87-.75,1.77-1.12,2.65l-2.55,6.08c-.85,2-1.69,4.05-2.54,6.07L53.66,26c-.15.36-.31.71-.45,1.07-.08.2,0,.26.18.27h5.79c.25,0,.26,0,.35-.24l1-2.89c.11-.31.1-.31.44-.31h7c.23,0,.23,0,.28.23l.6,2.91c.05.27.09.3.34.3h5a.32.32,0,0,0,.23-.05v-.11C74.44,27,74.44,26.85,74.4,26.67Zm-12-7.5c1-2.86,2.12-5.69,3.16-8.55l1.77,8.55Z"/></svg>