<?xml version="1.0" encoding="utf-8"?>
<!-- Generator: Adobe Illustrator 23.0.1, SVG Export Plug-In . SVG Version: 6.00 Build 0)  -->
<svg version="1.1" id="Layer_1" xmlns="http://www.w3.org/2000/svg" xmlns:xlink="http://www.w3.org/1999/xlink" x="0px" y="0px"
	 viewBox="0 0 138.4 56.4" style="enable-background:new 0 0 138.4 56.4;" xml:space="preserve">
<style type="text/css">
	.st0{fill:none;}
	.st1{fill:#E81E25;}
	.st2{fill:#F39E20;}
	.st3{fill:#F0CA94;}
	.st4{fill:#EEC288;}
	.st5{fill:#EBCA85;}
	.st6{fill:#F06022;}
	.st7{fill:#0C0C0B;}
	.st8{fill:#0C0C0C;}
	.st9{fill:#0D0D0C;}
	.st10{fill:#0D0C0C;}
	.st11{fill:#0D0C0B;}
	.st12{fill:#100F0F;}
	.st13{fill:#61605D;}
	.st14{fill:#C8C6C3;}
	.st15{fill:#494845;}
</style>
<title>American Express-icon</title>
<g>
	<path class="st0" d="M85.6,51c-1.1,0-1.8,0.8-1.8,1.9c0,1.1,0.7,1.8,1.8,1.8c1,0,1.8-0.8,1.8-1.9C87.4,51.8,86.6,51,85.6,51z"/>
	<path class="st0" d="M97.5,51c-1,0-1.8,0.8-1.8,1.9c0,1.1,0.8,1.9,1.8,1.9c1,0,1.8-0.8,1.8-1.9C99.3,51.8,98.5,51,97.5,51z"/>
	<path class="st0" d="M68.3,51c-0.7,0-1.2,0.5-1.4,1.1c-0.1,0.3,0,0.3,0.2,0.3c0.4,0,0.8,0,1.2,0c0.4,0,0.8,0,1.2,0
		c0.4,0,0.4-0.1,0.3-0.4C69.5,51.3,69,50.9,68.3,51z"/>
	<path class="st0" d="M49.6,51c-1,0-1.8,0.8-1.8,1.9c0,1.1,0.7,1.9,1.8,1.9c1,0,1.8-0.8,1.8-1.9C51.3,51.8,50.6,51,49.6,51z"/>
	<path class="st1" d="M68,40C68,40,68,40,68,40C68,40,68,40,68,40c-0.7-0.7-1.5-1.4-2.2-2.2c-1.1-1.1-1.9-2.2-2.7-3.5
		c-0.8-1.2-1.4-2.5-1.9-3.8c-0.7-1.8-1.1-3.6-1.3-5.5c-0.3-2.4-0.1-4.7,0.4-7c0.3-1.3,0.7-2.5,1.2-3.7c1-2.5,2.4-4.6,4.2-6.6
		C66.3,6.7,67.2,6,68,5.2c0,0,0-0.1,0-0.1l0,0c-1.8-1.5-3.8-2.6-6-3.4C55.2-0.5,48.7,0,42.7,3.9C36.2,8,32.7,14,32.3,21.7
		c-0.3,4.7,1,9,3.6,13c2.3,3.6,5.4,6.3,9.3,8c3,1.4,6.2,2.1,9.6,2c2.2,0,4.4-0.4,6.5-1.1C63.7,42.8,66,41.6,68,40L68,40
		C68,40,68,40,68,40z"/>
	<path class="st2" d="M103.3,17.6c-0.4-1.7-1-3.3-1.8-4.9c-0.2-0.2-0.3-0.5-0.4-0.8c-0.4-0.8-0.9-1.6-1.4-2.3
		c-1.5-2.1-3.3-3.8-5.4-5.3c-1.8-1.3-3.7-2.2-5.9-2.9c-1.7-0.5-3.5-0.9-5.3-1c-1.7-0.1-3.3,0-4.9,0.2c-0.2,0.2-0.4,0.2-0.7,0.2
		c-0.1,0-0.3,0-0.4,0c-0.3,0.2-0.6,0.2-0.9,0.2l0,0c-0.2,0.2-0.4,0.2-0.7,0.2c-0.3,0-0.6,0.1-0.8,0.2c-1.7,0.6-3.3,1.3-4.8,2.3
		c-0.7,0.4-1.3,0.9-2,1.3l0,0c0,0,0,0,0,0.1c0.3,0,0.5,0.3,0.7,0.5c1.6,1.3,2.9,2.8,4,4.4c0.8,1.1,1.5,2.3,2,3.5
		c0.8,1.9,1.3,3.9,1.6,5.9c0.2,1.6,0.2,3.2,0.2,4.7c0,1.2-0.3,2.5-0.6,3.7c-0.4,1.6-1,3.2-1.7,4.7c-1,2-2.3,3.8-3.9,5.3
		c-0.7,0.7-1.4,1.4-2.3,2c0,0,0,0,0,0c0,0,0,0,0,0.1h0c0.8,0.5,1.7,1.1,2.5,1.6c2.5,1.5,5.2,2.5,8.2,2.8c2,0.3,4,0.3,6,0
		c1.4-0.2,2.8-0.5,4.2-1c2-0.7,3.9-1.6,5.6-2.9c2.3-1.6,4.3-3.6,5.8-6c1.3-2,2.3-4.1,2.8-6.4c0.4-1.7,0.7-3.3,0.8-5
		C104,21.4,103.8,19.5,103.3,17.6z"/>
	<path class="st3" d="M76.3,1.1L76.3,1.1c0.3,0,0.6,0,0.9-0.2C76.9,1,76.5,0.7,76.3,1.1z"/>
	<path class="st4" d="M101.1,11.9c0.1,0.3,0.2,0.6,0.4,0.8C101.6,12.3,101.5,12,101.1,11.9z"/>
	<path class="st5" d="M77.6,0.9c0.3,0.1,0.5,0,0.7-0.2C78,0.7,77.8,0.6,77.6,0.9z"/>
	<path class="st3" d="M75.6,1.3c0.3,0,0.5,0,0.7-0.2C76.1,1.1,75.8,1,75.6,1.3z"/>
	<path class="st6" d="M61.3,14.2c-0.5,1.2-0.9,2.5-1.2,3.7c-0.5,2.3-0.6,4.6-0.4,7c0.2,1.9,0.7,3.7,1.3,5.5c0.5,1.3,1.1,2.6,1.9,3.8
		c0.8,1.3,1.7,2.5,2.7,3.5c0.7,0.7,1.5,1.4,2.2,2.2c0,0,0,0,0,0c0.9-0.5,1.5-1.3,2.3-2c1.6-1.5,2.8-3.4,3.9-5.3
		c0.8-1.5,1.3-3.1,1.7-4.7c0.3-1.2,0.6-2.4,0.6-3.7c0.1-1.6,0.1-3.1-0.2-4.7c-0.3-2-0.8-4-1.6-5.9c-0.5-1.2-1.2-2.4-2-3.5
		c-1.1-1.7-2.4-3.2-4-4.4c-0.2-0.2-0.4-0.5-0.7-0.5c-0.8,0.8-1.7,1.5-2.5,2.4C63.8,9.6,62.4,11.7,61.3,14.2z"/>
	<path class="st7" d="M42.7,49.8c-0.7,0.1-1.3,0.4-1.7,1c-1-1.3-2.6-1.3-3.7-0.2c0.2-0.9-0.4-0.7-0.8-0.7c-0.3,0-0.5,0.1-0.5,0.4
		c0,1.7,0,3.3,0,5c0,0.6,0.4,0.4,0.7,0.4c0.3,0,0.6,0.1,0.6-0.5c0-1,0-2,0-3c0.1-0.9,0.6-1.4,1.5-1.4c0.8,0,1.2,0.6,1.3,1.5
		c0,0.8,0,1.7,0,2.5c0,0.9-0.2,0.8,0.8,0.8c0.4,0,0.5-0.1,0.5-0.5c0-1,0-2,0-3c0-0.6,0.4-1.1,0.9-1.3c1-0.4,1.8,0.2,1.8,1.4
		c0,1,0,2,0,3c0,0.3,0.1,0.4,0.4,0.4c0.1,0,0.3,0,0.4,0c0.4,0.1,0.5-0.1,0.5-0.5c0-1,0-2.1,0-3.1C45.3,50.6,44.3,49.7,42.7,49.8z"/>
	<path class="st8" d="M99.9,47.6c-0.1,0-0.2,0-0.3,0c-0.4-0.1-0.4,0.1-0.4,0.4c0,0.8,0,1.6,0,2.5c-1.5-1.1-3-1-4,0.2
		c-1,1.2-1.1,3.1,0,4.3c1,1.2,2.5,1.3,4.1,0.2c-0.2,0.8,0.3,0.6,0.7,0.6c0.4,0,0.5,0,0.5-0.5c0-2.4,0-4.8,0-7.2
		C100.4,47.7,100.3,47.5,99.9,47.6z M97.5,54.8c-1,0-1.8-0.8-1.8-1.9c0-1.1,0.7-1.9,1.8-1.9c1,0,1.8,0.8,1.8,1.9
		C99.3,54,98.5,54.8,97.5,54.8z"/>
	<path class="st8" d="M88.5,50c-0.3,0-0.7-0.1-1,0c-0.3,0.1,0,0.4-0.2,0.5c-1.5-1-3-0.9-4,0.3c-1,1.2-1,3.2,0.1,4.3
		c1,1.1,2.6,1.2,4,0.1c-0.1,0.6,0.1,0.7,0.5,0.6c0.1,0,0.3,0,0.4,0c0.2,0,0.4-0.1,0.4-0.3c0-1.7,0-3.5,0-5.2
		C88.6,50.2,88.6,50,88.5,50z M85.6,54.8c-1,0-1.7-0.8-1.8-1.8c0-1.1,0.7-1.9,1.8-1.9c1,0,1.8,0.8,1.8,1.9
		C87.4,53.9,86.6,54.8,85.6,54.8z"/>
	<path class="st8" d="M52.4,50c-0.3,0-0.7-0.1-1,0c-0.3,0.1,0,0.4-0.2,0.5c-1.5-1-3-0.9-4,0.3c-1,1.1-1,3.1,0,4.2
		c1,1.2,2.5,1.3,4,0.2c-0.1,0.6,0.2,0.6,0.6,0.6c0.1,0,0.2,0,0.3,0c0.3,0,0.4-0.1,0.4-0.4c0-1.7,0-3.5,0-5.2
		C52.5,50.2,52.5,50,52.4,50z M49.6,54.8c-1.1,0-1.8-0.8-1.8-1.9c0-1.1,0.8-1.9,1.8-1.9c1,0,1.7,0.8,1.7,1.9
		C51.3,54,50.6,54.8,49.6,54.8z"/>
	<path class="st7" d="M69,49.9c-1.1-0.2-2.1,0-2.8,0.9c-0.8,1-0.9,2.1-0.5,3.3c0.7,2.2,3.3,2.2,4.7,1.4c0.2-0.1,0.6-0.2,0.3-0.5
		c-0.2-0.3-0.2-1-0.9-0.5c-0.3,0.2-0.7,0.3-1.1,0.4c-0.9,0.1-1.6-0.3-1.9-1.1c-0.1-0.3-0.1-0.4,0.2-0.4c0.6,0,1.2,0,1.8,0
		c0,0,0,0,0,0c0.6,0,1.2,0,1.8,0c0.2,0,0.4,0,0.4-0.3C71.3,51.7,70.6,50.2,69,49.9z M69.5,52.4c-0.4,0-0.8,0-1.2,0
		c-0.4,0-0.8,0-1.2,0c-0.2,0-0.3-0.1-0.2-0.3c0.2-0.6,0.7-1.1,1.4-1.1c0.7,0,1.2,0.3,1.5,1C69.9,52.3,69.9,52.4,69.5,52.4z"/>
	<path class="st9" d="M57.7,52.5c-0.6-0.2-1.2-0.2-1.7-0.3c-0.3-0.1-0.6-0.1-0.6-0.5c0-0.4,0.3-0.6,0.6-0.6c0.6-0.1,1.1,0,1.7,0.2
		c0.7,0.2,0.7,0.2,1-0.4c0.1-0.3,0.1-0.4-0.2-0.5c-1-0.5-2-0.6-3.1-0.3c-0.8,0.2-1.3,0.8-1.4,1.6c-0.1,1,0.5,1.6,1.7,1.8
		c0.4,0.1,0.9,0.1,1.3,0.2c0.3,0.1,0.6,0.2,0.6,0.6c0,0.4-0.3,0.5-0.6,0.6c-0.7,0.2-1.5,0.2-2.1-0.2c-0.6-0.4-0.8-0.1-1,0.4
		c-0.2,0.3-0.1,0.4,0.2,0.5c0.7,0.4,1.4,0.5,2.3,0.5c0.4,0,1-0.1,1.4-0.3c0.8-0.3,1.2-0.9,1.2-1.7C58.9,53.2,58.5,52.8,57.7,52.5z"
		/>
	<path class="st10" d="M63.8,54.6c-1,0.4-1.5,0-1.5-1c0-0.7,0-1.4,0-2.1c0-0.3,0.1-0.4,0.4-0.4c0.5,0,0.9,0,1.4,0
		c0.1,0,0.3,0,0.3-0.2c0.2-0.7,0-1-0.8-1c-0.1,0-0.2,0-0.3,0c-1,0-1,0-1-1c0-0.9,0.1-0.7-0.7-0.8c-0.5,0-0.6,0.1-0.5,0.6
		c0,0.2,0,0.3,0,0.5c0,0.7,0,0.7-0.7,0.7c-0.3,0-0.5,0-0.5,0.5c0,0.7,0,0.7,0.7,0.7c0.4,0,0.5,0.1,0.5,0.5c0,0.4,0,0.8,0,1.2
		c0,0,0,0,0,0c0,0.5,0,1,0,1.5c0.1,1,0.6,1.5,1.5,1.6c0.5,0.1,1,0,1.5-0.2c0.4-0.1,0.6-0.3,0.4-0.7C64.4,54.7,64.4,54.4,63.8,54.6z"
		/>
	<path class="st11" d="M79.4,51c0.4-0.1,0.8,0,1.2,0.2c0.7,0.3,0.7,0.3,1-0.4c0.2-0.3,0.1-0.4-0.1-0.5c-1.1-0.7-2.8-0.6-3.8,0.2
		c-1,0.8-1.4,2.2-1,3.5c0.4,1.3,1.5,2,3,2c0.6,0,1.2-0.1,1.7-0.4c0.3-0.2,0.4-0.3,0.2-0.6c-0.3-0.5-0.5-0.8-1-0.3
		c-0.1,0.1-0.2,0.1-0.4,0.1c-1.1,0.3-2-0.3-2.3-1.4C77.7,52.2,78.4,51.2,79.4,51z"/>
	<path class="st12" d="M73.8,50.6c0.1-0.6-0.2-0.7-0.6-0.6c-0.1,0-0.3,0-0.4,0c-0.2,0-0.3,0.1-0.3,0.3c0,1.8,0,3.5,0,5.3
		c0,0.2,0.1,0.3,0.3,0.3c0.2,0,0.3,0,0.5,0c0.4,0.1,0.5-0.1,0.5-0.5c0-1,0-2,0-3c0-1,0.6-1.5,1.6-1.3c0.3,0.1,0.5,0,0.6-0.3
		c0-0.2,0.1-0.3,0.1-0.5c0.1-0.3,0-0.3-0.2-0.4C75.1,49.7,74.4,49.8,73.8,50.6z"/>
	<path class="st9" d="M93.6,49.8c-0.8-0.1-1.4,0-2,0.7c0.2-0.6-0.2-0.7-0.6-0.6c-0.1,0-0.2,0-0.3,0c-0.3,0-0.3,0.1-0.3,0.3
		c0,1.7,0,3.5,0,5.2c0,0.3,0.1,0.4,0.4,0.4c0.1,0,0.3,0,0.4,0c0.4,0,0.5-0.1,0.5-0.5c0-1,0-1.9,0-2.9c0-1.1,0.6-1.6,1.7-1.4
		c0.3,0.1,0.5,0,0.5-0.3c0-0.1,0.1-0.3,0.1-0.4C94.1,50,93.9,49.9,93.6,49.8z"/>
	<path class="st13" d="M103.1,55c-0.4,0-0.6,0.2-0.6,0.6c0,0.4,0.3,0.6,0.6,0.6c0.4,0,0.6-0.2,0.6-0.6C103.7,55.2,103.4,55,103.1,55
		z M103.1,56c-0.2,0-0.4-0.1-0.4-0.4c0-0.3,0.2-0.5,0.5-0.4c0.2,0,0.4,0.2,0.4,0.4C103.5,55.8,103.3,56,103.1,56z"/>
	<path class="st14" d="M103.1,55.1c-0.3,0-0.5,0.1-0.5,0.4c0,0.3,0.2,0.4,0.4,0.4c0.3,0,0.4-0.1,0.5-0.4
		C103.5,55.3,103.4,55.1,103.1,55.1z M103,55.7c-0.1,0-0.2,0-0.2-0.1c0-0.2,0-0.3,0.2-0.2c0.1,0,0.2,0,0.2,0.2
		C103.2,55.6,103.3,55.8,103,55.7z"/>
	<path class="st15" d="M103.1,55.3c-0.2,0-0.2,0.1-0.2,0.2c0,0.1,0,0.1,0.2,0.1c0.2,0,0.2-0.1,0.3-0.2
		C103.3,55.3,103.2,55.4,103.1,55.3z"/>
</g>
</svg>
