<svg id="Layer_1" data-name="Layer 1" xmlns="http://www.w3.org/2000/svg" viewBox="0 0 76 31"><defs><style>.cls-1{fill:#006fce;}.cls-2{fill:#006ecd;}</style></defs><title>American Express-icon</title><path class="cls-1" d="M31.94,11.32H30.81c-.09,0-.13,0-.16.11-.21.64-.44,1.27-.66,1.9,0,0,0,.09-.06.11l0-.08c-.22-.64-.45-1.29-.68-1.93,0-.08-.06-.11-.15-.11H27.91c-.07,0-.09,0-.09.09v3.22c0,.06,0,.08.08.08.21,0,.43,0,.64,0s.13,0,.13-.13c0-.77,0-1.53,0-2.3h0a.14.14,0,0,0,0,.06l.81,2.28c0,.08.06.11.15.1s.33,0,.5,0,.15,0,.19-.12c.25-.74.52-1.48.78-2.22a.12.12,0,0,1,.06-.09v.1c0,.74,0,1.48,0,2.22,0,.09,0,.12.12.11H32c.09,0,.1,0,.1-.1V11.44C32.05,11.35,32,11.32,31.94,11.32Z"/><path class="cls-1" d="M46.75,14.71h.65c.08,0,.11,0,.11-.09s0-.34,0-.51V12.55a1.06,1.06,0,0,1,.09.13l1.24,1.94a.15.15,0,0,0,.14.09h.87c.08,0,.09,0,.09-.1V11.42c0-.09,0-.1-.11-.1h-.61c-.1,0-.14,0-.13.13v2L49,13.25,47.8,11.43a.21.21,0,0,0-.2-.11h-.86c-.08,0-.1,0-.1.1V14.6C46.64,14.69,46.65,14.72,46.75,14.71Z"/><path class="cls-1" d="M36,14.71h.65c.1,0,.11,0,.11-.11v-1s0-.08,0-.1a.48.48,0,0,1,.38.09c.29.35.58.7.88,1a.14.14,0,0,0,.12.07h1L38,13.48a1.08,1.08,0,0,0,.8-1.5,1,1,0,0,0-.89-.64c-.67-.05-1.34,0-2,0-.07,0-.07,0-.07.09v3.21C35.86,14.7,35.89,14.71,36,14.71Zm.85-2.63h.86a.35.35,0,0,1,.36.45.34.34,0,0,1-.34.24H36.8c-.06,0-.08,0-.08-.08v-.52C36.72,12.1,36.74,12.08,36.81,12.08Z"/><path class="cls-1" d="M40.83,19.43a.51.51,0,0,1,.36.06l.9,1.06s0,.07.1.07h1l-1.09-1.23h0A1.06,1.06,0,0,0,43,18.16a1,1,0,0,0-1-.92c-.65,0-1.29,0-1.93,0-.08,0-.08,0-.08.09v3.19c0,.09,0,.1.1.1.23,0,.45,0,.67,0s.1,0,.1-.1c0-.33,0-.66,0-1C40.81,19.49,40.79,19.45,40.83,19.43Zm0-1.35c0-.06,0-.09.09-.08.29,0,.58,0,.87,0a.34.34,0,0,1,.36.27.33.33,0,0,1-.34.41c-.15,0-.3,0-.44,0h-.45c-.06,0-.09,0-.09-.08A4.51,4.51,0,0,0,40.8,18.08Z"/><path class="cls-1" d="M35.27,11.32H32.73c-.09,0-.12,0-.11.11v3.18c0,.06,0,.1.08.1h2.6c.06,0,.08,0,.08-.08a5,5,0,0,1,0-.55c0-.12,0-.14-.14-.14H33.59c-.09,0-.11,0-.11-.11a1.93,1.93,0,0,0,0-.34c0-.11,0-.13.13-.13h1.6c.1,0,.13,0,.12-.13a4.17,4.17,0,0,1,0-.5c0-.1,0-.12-.12-.12H33.58c-.08,0-.1,0-.1-.1a1.82,1.82,0,0,0,0-.33c0-.1,0-.12.12-.12h1.66c.1,0,.12,0,.12-.12a4.86,4.86,0,0,1,0-.54C35.38,11.34,35.35,11.32,35.27,11.32Z"/><path class="cls-1" d="M32.49,19.85H30.84c-.09,0-.11,0-.11-.11a2,2,0,0,0,0-.35c0-.1,0-.12.13-.12h1.6c.1,0,.13,0,.12-.12v-.5c0-.1,0-.12-.12-.12h-1.6c-.09,0-.14,0-.13-.13a1.41,1.41,0,0,0,0-.29c0-.11,0-.14.13-.14h1.67c.08,0,.1,0,.1-.11s0-.36,0-.54,0-.12-.12-.11H30c-.1,0-.12,0-.12.13,0,.52,0,1.05,0,1.57v1.59c0,.06,0,.1.09.1h2.59c.07,0,.08,0,.08-.09s0-.36,0-.54S32.6,19.85,32.49,19.85Z"/><path class="cls-1" d="M46,19.85H44.3c-.08,0-.1,0-.1-.11a2,2,0,0,0,0-.35c0-.1,0-.12.13-.12h1.61c.09,0,.12,0,.12-.11a4.34,4.34,0,0,1,0-.51c0-.1,0-.12-.12-.12-.54,0-1.08,0-1.62,0-.09,0-.13,0-.12-.11a1.61,1.61,0,0,0,0-.31c0-.1,0-.13.12-.13H46c.11,0,.14,0,.13-.14s0-.34,0-.51,0-.12-.11-.11H43.44c-.08,0-.1,0-.1.1v3.18c0,.06,0,.1.08.1H46c.07,0,.08,0,.08-.08s0-.36,0-.54S46.07,19.85,46,19.85Z"/><path class="cls-1" d="M42.54,14.71h.88a.09.09,0,0,0,.1-.07l.21-.54c0-.07.06-.08.12-.08h1.37c.06,0,.09,0,.11.07s.14.36.22.54,0,.08.09.08h.91s0,0,0-.05l-1.39-3.27a.12.12,0,0,0-.12-.07H44.1a.15.15,0,0,0-.16.1c-.4.95-.81,1.89-1.21,2.83C42.67,14.4,42.6,14.55,42.54,14.71Zm1.55-1.5c.15-.35.29-.7.44-1.08L45,13.28h-.85S44.07,13.27,44.09,13.21Z"/><path class="cls-1" d="M24.61,14.71c.06,0,.07,0,.08-.07s.15-.36.22-.54S25,14,25,14h1.36c.07,0,.1,0,.12.08l.22.54s0,.07.08.07h.9s0-.05,0-.06l-1.4-3.26a.1.1,0,0,0-.11-.07h-.92c-.09,0-.13,0-.16.1L24,14.1c-.09.2-.17.4-.26.61Zm.67-1.51.43-1.07.46,1.15h-.86C25.22,13.28,25.27,13.23,25.28,13.2Z"/><path class="cls-1" d="M46.56,20.62c.59,0,1.18,0,1.76,0a1.06,1.06,0,0,0,1-1.41.87.87,0,0,0-.82-.64c-.33,0-.67,0-1,0a.27.27,0,0,1-.29-.31.29.29,0,0,1,.32-.23c.44,0,.88,0,1.33,0a.14.14,0,0,0,.16-.11l.24-.55c0-.08,0-.11-.06-.1H47.48a1,1,0,0,0-1.09.91,1,1,0,0,0,.46,1,1.06,1.06,0,0,0,.52.13h.85c.18,0,.29.09.31.23s-.09.32-.29.32H46.59c-.09,0-.12,0-.11.11v.57C46.48,20.59,46.49,20.62,46.56,20.62Z"/><path class="cls-1" d="M51.6,18.56c-.32,0-.64,0-1,0a.28.28,0,0,1-.29-.19c-.06-.19.07-.35.3-.35q.68,0,1.35,0a.13.13,0,0,0,.14-.09c.08-.2.17-.39.26-.58s0-.09-.07-.09H50.59a1.05,1.05,0,0,0-1.08,1.35.93.93,0,0,0,1,.71h.89a.26.26,0,0,1,.26.38.27.27,0,0,1-.28.16H49.68c-.08,0-.1,0-.1.1s0,.38,0,.57,0,.1.09.1h1.74a1,1,0,0,0,1.08-1A.9.9,0,0,0,51.6,18.56Z"/><path class="cls-1" d="M37.46,19.52h1a1.12,1.12,0,0,0,1.16-1.15,1.08,1.08,0,0,0-1.17-1.13H36.65c-.12,0-.16,0-.16.16,0,.51,0,1,0,1.54v1.59c0,.07,0,.1.09.1s.45,0,.67,0,.1,0,.1-.11v-.89C37.36,19.54,37.38,19.52,37.46,19.52Zm-.1-1.45c0-.06,0-.07.08-.07.3,0,.6,0,.9,0a.36.36,0,0,1,.37.4.35.35,0,0,1-.38.35h-.88c-.06,0-.09,0-.09-.07Z"/><path class="cls-1" d="M33.39,19.75c-.23.28-.45.57-.69.87h1a.16.16,0,0,0,.15-.08L34.2,20c.12-.14.23-.29.35-.45.25.34.49.66.74,1a.14.14,0,0,0,.12.07h1l-.11-.14L35.14,19c-.06-.07-.06-.1,0-.17.41-.49.8-1,1.2-1.48,0,0,.06-.06.06-.11h-.92a.16.16,0,0,0-.17.08l-.66.86c0,.07-.08.08-.14,0l-.65-.87a.18.18,0,0,0-.18-.08h-.85s-.07,0-.11,0l.06.07L34,18.86c0,.06,0,.09,0,.14Z"/><path class="cls-1" d="M43.07,11.32a11.62,11.62,0,0,0-1.18,0,1.44,1.44,0,0,0-1.2.85,2.05,2.05,0,0,0-.14,1.12,1.45,1.45,0,0,0,1.54,1.4s.08,0,.1,0l.34-.73h-.35a.75.75,0,0,1-.76-.63,1.66,1.66,0,0,1,0-.22c0-.57.24-1,.89-1h.77c.05,0,.1,0,.1-.08s0-.42,0-.63S43.13,11.32,43.07,11.32Z"/><path class="cls-1" d="M40,11.32h-.65c-.08,0-.11,0-.1.1v3.2c0,.07,0,.09.09.09H40c.08,0,.11,0,.11-.11,0-.52,0-1,0-1.57s0-1.07,0-1.6C40.12,11.34,40.1,11.32,40,11.32Z"/><path class="cls-2" d="M52.41,20.85a2.11,2.11,0,0,1-1.28.33h-9a.48.48,0,0,1-.46-.22,5.47,5.47,0,0,0-.4-.5c0,.23,0,.42,0,.61s0,.11-.12.11H39.5c-.09,0-.12,0-.12-.13v-1c0-.07,0-.09-.08-.06l-.32.1a6.17,6.17,0,0,1-1,0c-.08,0-.11,0-.1.1,0,.27,0,.54,0,.81,0,.11,0,.13-.13.13H35.17a.16.16,0,0,1-.16-.09c-.15-.2-.31-.39-.46-.6-.16.21-.31.4-.45.6a.21.21,0,0,1-.18.09H29.41c-.08,0-.11,0-.11-.11V16.79c0-.09,0-.12.11-.12H34a.17.17,0,0,1,.16.09c.12.16.26.32.38.49s.09.11.16,0,.24-.32.36-.48a.24.24,0,0,1,.22-.11h17c.12,0,.15,0,.15-.15,0-5.07,0-10.13,0-15.2,0-.15,0-.15-.16-.15H23.86c-.12,0-.15,0-.15.14V13.25a.34.34,0,0,0,.07-.11c.32-.76.65-1.52,1-2.28,0-.06,0-.1.12-.1h1.7a.1.1,0,0,1,.1.07l.23.54c.11.25.21.5.32.74h0V12c0-.37,0-.74,0-1.11,0-.09,0-.12.12-.12h2c.24,0,.24,0,.32.23l.28.8c.11-.32.22-.61.31-.9a.16.16,0,0,1,.18-.13H40.6c.06,0,.08,0,.08.09v.41s0,0,.07,0a2.12,2.12,0,0,1,1.37-.46h3.25a.14.14,0,0,1,.15.1L46,12s0,.07.07.09V12c0-.37,0-.75,0-1.12,0-.09,0-.11.11-.11h1.76a.13.13,0,0,1,.14.08c.13.21.27.42.41.63,0,0,0,.06.07.06,0-.22,0-.44,0-.66s0-.11.11-.11H50.4c.09,0,.11,0,.11.11v4.29c0,.09,0,.11-.11.11H48.7a.21.21,0,0,1-.21-.12c-.13-.22-.28-.44-.44-.68,0,.07,0,.1,0,.13,0,.19,0,.39,0,.58s0,.09-.09.09H45.28a.09.09,0,0,1-.1-.07c-.07-.19-.15-.36-.22-.55a.12.12,0,0,0-.13-.08h-.59a.12.12,0,0,0-.13.09c-.07.17-.14.34-.2.51a.13.13,0,0,1-.14.1h-1.7a2.12,2.12,0,0,1-1.35-.46h0c0,.12,0,.24,0,.35s0,.12-.11.12H37.85a.16.16,0,0,1-.14-.07c-.16-.21-.33-.41-.5-.62h0v.51c0,.19,0,.17-.16.17H26.49a.14.14,0,0,1-.15-.11c-.06-.17-.14-.33-.2-.5a.13.13,0,0,0-.14-.09h-.57a.14.14,0,0,0-.15.1c-.06.17-.13.33-.19.49a.14.14,0,0,1-.16.11H23.85c-.11,0-.14,0-.14.14V29.75c0,.1,0,.14.13.14q14.22,0,28.45,0c.1,0,.13,0,.13-.14,0-2.92,0-5.85,0-8.77C52.42,20.94,52.41,20.9,52.41,20.85Z"/></svg>