<svg id="Layer_1" data-name="Layer 1" xmlns="http://www.w3.org/2000/svg" viewBox="0 0 76 31"><defs><style>.cls-1{fill:#4d4d4d;}.cls-2{fill:#f37216;}.cls-3{fill:#fdfdfd;}.cls-4{fill:#fefefe;}.cls-5{fill:#fbfbfb;}.cls-6{fill:#3c3c3c;}.cls-7{fill:#3f3f3f;}.cls-8{fill:#4c4c4c;}.cls-9{fill:#f6923d;}.cls-10{fill:#f8a45e;}.cls-11{fill:#fab67c;}.cls-12{fill:#fbc393;}.cls-13{fill:#fdd5b2;}.cls-14{fill:#fde4cd;}</style></defs><title>Discover-icon</title><path class="cls-1" d="M16.13,1.39q20.84,0,41.66,0c.52,0,.62.11.62.62,0,5.1,0,10.2,0,15.3-.29.79-1,1.11-1.65,1.49a80.29,80.29,0,0,1-18.91,8c-1.88.55-3.78,1.06-5.7,1.47a31.64,31.64,0,0,1-4,.58c-3.78,0-7.57,0-11.36,0-.56,0-.72-.15-.71-.71q0-13.11,0-26.2A1,1,0,0,1,16.13,1.39Z"/><path class="cls-2" d="M28.43,28.78c3.44-.75,6.87-1.51,10.24-2.55a78.27,78.27,0,0,0,18.85-8.34c.3-.19.58-.4.88-.6V28.81a1.64,1.64,0,0,1-.82.07H29.24C29,28.88,28.68,29,28.43,28.78Z"/><path class="cls-2" d="M38.63,16.24a3.31,3.31,0,0,1-3.41-3.3,3.47,3.47,0,0,1,6.93.11A3.37,3.37,0,0,1,38.63,16.24Z"/><path class="cls-3" d="M17.22,13V10.5c0-.25,0-.53.35-.52a12.2,12.2,0,0,1,2.56.11,3,3,0,0,1,2.45,3.08,3.15,3.15,0,0,1-3,2.89c-.65.05-1.31,0-2,0-.34,0-.42-.13-.42-.44C17.23,14.76,17.22,13.87,17.22,13Z"/><path class="cls-3" d="M55.78,13.58,57.71,16c-.93.12-1.68.19-2.15-.78a13.2,13.2,0,0,0-1.19-1.69,6.55,6.55,0,0,0-.09,2c0,.57-.29.53-.66.52s-.68.06-.66-.51c0-1.69,0-3.38,0-5.07,0-.38.1-.55.51-.53.62,0,1.26,0,1.88,0a1.79,1.79,0,0,1,1.81,1.42,1.73,1.73,0,0,1-1.18,2A1.67,1.67,0,0,0,55.78,13.58Z"/><path class="cls-3" d="M48.55,13c0-.83,0-1.66,0-2.49,0-.4.07-.59.53-.57.88,0,1.76,0,2.65,0,.37,0,.46.14.45.49s0,.61-.46.57-.76,0-1.13,0c-.69-.1-.79.23-.76.82,0,.4.15.52.53.49s.71,0,1.06,0,.66,0,.67.52-.3.53-.66.52a5.12,5.12,0,0,1-.68,0c-.71-.11-1,.13-.93.88s.14.89.78.79c.33,0,.66,0,1,0s.6,0,.6.49-.16.59-.61.58c-.83,0-1.66,0-2.49,0-.45,0-.55-.15-.54-.56C48.57,14.7,48.55,13.86,48.55,13Z"/><path class="cls-3" d="M29.16,10.53c-.32.44-.55,1-1.21.43a.89.89,0,0,0-.8,0,.65.65,0,0,0-.57.52c-.06.35.17.52.43.64s.84.32,1.25.5a1.66,1.66,0,0,1,1.16,1.68A2,2,0,0,1,28,16.09a2.74,2.74,0,0,1-2.83-.74c-.25-.29-.15-.45.09-.59s.31-.61.69-.18a1.4,1.4,0,0,0,1.49.48.84.84,0,0,0,.67-.73.74.74,0,0,0-.51-.77c-.39-.17-.8-.3-1.19-.45a1.51,1.51,0,0,1-1.15-1.58,1.74,1.74,0,0,1,1.38-1.59A2.77,2.77,0,0,1,29.16,10.53Z"/><path class="cls-4" d="M44.86,14.05c.48-1.13.92-2.14,1.35-3.16S46.67,9.82,48,10c-.88,2-1.75,4-2.65,5.92a.51.51,0,0,1-.93,0c-.84-1.86-1.64-3.73-2.46-5.59-.12-.27-.08-.4.26-.42.62,0,1.07,0,1.31.76C43.83,11.81,44.35,12.85,44.86,14.05Z"/><path class="cls-3" d="M34.77,14.63c.15,1.32,0,1.57-1.34,1.59a3.32,3.32,0,0,1-3.26-1.77,2.88,2.88,0,0,1,.26-3.27A3.44,3.44,0,0,1,34,9.89c.85.15.9.27.77,1.56a3,3,0,0,0-1.67-.54,2.13,2.13,0,0,0-1.54,3.43C32.27,15.21,33.3,15.3,34.77,14.63Z"/><path class="cls-5" d="M23.12,10a4,4,0,0,1,1.34,0,45.29,45.29,0,0,1,.07,4.66,2.64,2.64,0,0,1-.1,1.39c-.44-.06-.92.17-1.33-.14A41.49,41.49,0,0,1,23.12,10Z"/><path class="cls-6" d="M24.43,16.07l0-6.05a.77.77,0,0,1,.16.57v4.86A.74.74,0,0,1,24.43,16.07Z"/><path class="cls-7" d="M23.12,10l0,5.9a1,1,0,0,1-.15-.72V10.74C23,10.49,22.91,10.23,23.12,10Z"/><path class="cls-1" d="M18.52,13.05a8,8,0,0,0,0-1.2c-.1-.72.19-.9.87-.81a2,2,0,0,1,1.88,2.2A2.15,2.15,0,0,1,18.81,15c-.31,0-.29-.21-.29-.41Z"/><path class="cls-8" d="M54.27,11.73c.17-.22-.36-.83.43-.81s1.13.36,1.14.92-.41.92-1.12.92C54.27,12.76,54.27,12.76,54.27,11.73Z"/><path class="cls-9" d="M38.61,9.61a3.38,3.38,0,0,1,3.49,3.44,3.54,3.54,0,1,1-3.49-3.44Z"/><path class="cls-10" d="M38.49,15.87A2.64,2.64,0,0,1,35.83,13a2.71,2.71,0,0,1,2.85-2.67,2.79,2.79,0,1,1-.19,5.58Z"/><path class="cls-11" d="M38.66,10.76A2.32,2.32,0,1,1,36.31,13,2.29,2.29,0,0,1,38.66,10.76Z"/><path class="cls-12" d="M38.65,11.24a1.8,1.8,0,0,1,1.82,1.95,1.77,1.77,0,0,1-1.86,1.73A1.91,1.91,0,0,1,36.7,13,1.87,1.87,0,0,1,38.65,11.24Z"/><path class="cls-13" d="M40,13.11a1.29,1.29,0,0,1-1.51,1.33,1.46,1.46,0,0,1-1.34-1.38,1.46,1.46,0,0,1,1.49-1.34A1.26,1.26,0,0,1,40,13.11Z"/><path class="cls-14" d="M38.61,12.21c.49.1.85.37.86.84a.84.84,0,0,1-.93.88.8.8,0,0,1-.78-.85C37.74,12.51,38.19,12.36,38.61,12.21Z"/></svg>