<?xml version="1.0" encoding="utf-8"?>
<!-- Generator: Adobe Illustrator 24.2.0, SVG Export Plug-In . SVG Version: 6.00 Build 0)  -->
<svg version="1.1" id="Layer_1" xmlns="http://www.w3.org/2000/svg" xmlns:xlink="http://www.w3.org/1999/xlink" x="0px" y="0px"
	 viewBox="0 0 678 642" style="enable-background:new 0 0 678 642;" xml:space="preserve">
<style type="text/css">
	.st0{fill:#FFE600;}
	.st1{fill:#6D6635;}
	.st2{fill:#00A99D;}
	.st3{opacity:0.83;fill:#968F63;}
	.st4{fill:#93F4F9;}
	.st5{fill:#54646D;}
	.st6{fill:#3AA2CC;}
	.st7{opacity:0.72;fill:#63CECE;}
	.st8{fill:#5AE2A4;}
	.st9{opacity:0.64;fill:#45A376;}
	.st10{fill:#E53725;}
	.st11{fill:#1D4C33;}
</style>
<circle class="st0" cx="289.3" cy="315.3" r="262.2"/>
<g id="_x31_VA9RI.tif">
	<g>
		<path class="st1" d="M386.9,439c-1.8,0-3.6,0-5.5,0c-0.3-0.2-0.6-0.4-0.9-0.5c-5.6-2-8.7-6-9.2-12c-0.2-2.5-0.5-5.1-0.7-7.6
			c-1.5-19-3.1-37.9-4.6-56.9c-0.7-9.2-1.5-18.5-2.3-27.7c-0.1-0.7-0.8-1.9-1.3-2c-2-0.2-4.1-0.1-6.2-0.1c-1,11.8-1.9,23.1-2.8,34.4
			c-1.6,19.2-3.3,38.4-4.6,57.7c-0.5,7.4-3.6,12.4-10.7,14.7c-1.6,0-3.3,0-4.9,0c-1.4-0.6-2.9-1.1-4.2-1.9
			c-5.6-3.5-6.7-8.8-6.1-14.9c0.8-8.2,1.4-16.5,2.1-24.8c1.4-16.7,2.7-33.4,4.1-50.1c0.9-10.7,2.1-21.4,2.4-32.1
			c0.4-14,0.1-28,0.1-42.1c0-0.6-0.1-1.2-0.3-2.6c-0.7,1.8-1.1,2.8-1.5,3.8c-4.4,13.2-5.4,26.9-5.2,40.7c0.1,7.1,0.3,14.2,0.3,21.3
			c0,4.8-3.7,8.2-8.7,8.2c-5.1,0-8.6-3.2-8.7-8.1c-0.1-2.6,0.2-5.3,0.2-7.9c0.2-13.6,0.6-27.3-1.9-40.8c-1-5.4-2.6-10.8-3.9-16.2
			c-0.3,0.1-0.6,0.1-1,0.2c-0.1,0.5-0.1,1-0.2,1.5c-0.8,29.6,0.8,59.1,3.6,88.6c2,21,3.6,42.1,5.2,63.1c0.5,6.4-2.9,11.3-8.8,13.5
			c-0.5,0.2-1,0.4-1.5,0.6c-1.6,0-3.3,0-4.9,0c-4.9-1.6-8.8-4.5-10.1-9.8c-0.5-2-0.6-4.1-0.8-6.2c-2.1-25.8-4.1-51.5-6.2-77.3
			c-0.4-4.4-0.8-8.8-1.2-13.3c-2.6,0-4.9,0-7.3,0c-1.3,16.4-2.7,32.5-4,48.7c-1.2,14.4-2.5,28.8-3.4,43.3
			c-0.5,7.4-3.6,12.4-10.8,14.6c-1.6,0-3.3,0-4.9,0c-7.9-3.6-10.8-7.4-10.3-14.2c1.1-14.2,2.3-28.3,3.5-42.4
			c1.7-21.4,3.9-42.8,5.1-64.2c0.8-15.2,0.2-30.4,0.3-45.6c0-0.3-0.1-0.6-0.3-1.7c-0.7,1.7-1.1,2.6-1.5,3.6
			c-4.2,12.9-5.3,26.1-5.2,39.6c0.1,7.4,0.2,14.7,0.3,22.1c0,4.9-3.5,8.3-8.5,8.4c-5.2,0.1-8.9-3.2-9-8.2c-0.1-2.1,0.1-4.2,0.2-6.3
			c0.4-14.5,0.7-29-2-43.3c-1-5.3-2.6-10.4-3.9-15.6c-0.3,0.1-0.6,0.1-1,0.2c0,5.1-0.1,10.1,0,15.2c0.2,12.6,0.2,25.3,0.7,37.9
			c0.3,8.8,1.4,17.6,2.1,26.4c1.2,14.6,2.4,29.2,3.6,43.8c0.8,10.2,1.8,20.5,2.4,30.8c0.4,6-3,10.7-8.6,12.8
			c-0.6,0.2-1.2,0.5-1.7,0.7c-1.6,0-3.3,0-4.9,0c-6.9-2.3-10.5-7-10.6-14.4c0-2.4-0.4-4.7-0.5-7.1c-1.8-21.7-3.5-43.3-5.3-65
			c-0.5-6.7-1.1-13.4-1.7-20.3c-2,0-3.7,0.1-5.4,0c-1.6-0.1-2,0.7-2.1,2.1c-1.3,16.1-2.6,32.3-3.9,48.4c-1.2,14.9-2.4,29.7-3.7,44.6
			c-0.5,5.2-3.3,8.7-8.1,10.8c-0.6,0.3-1.3,0.6-1.9,1c-1.8,0-3.6,0-5.5,0c-0.2-0.2-0.4-0.4-0.6-0.5c-7.3-2.8-10.1-7.5-9.4-15.2
			c1.1-12.1,2-24.3,3-36.5c1.2-14.7,2.5-29.4,3.6-44.1c0.8-10.1,1.8-20.1,2.1-30.2c0.4-12.7,0.1-25.5,0.1-38.2c0-1,0-1.9,0-2.9
			c-0.2-0.1-0.4-0.1-0.6-0.2c-0.5,1.2-1,2.4-1.4,3.6c-3.1,9.3-4.6,19-4.8,28.7c-0.3,10.8,0,21.7,0,32.5c0,4.7-3.4,8.3-7.9,8.4
			c-4.6,0.1-8.3-3.1-8.6-7.7c-1-17.4-1.2-34.8,1.7-52c1.6-9.6,4.1-18.9,9.4-27.1c5.5-8.4,12.8-13.3,23.4-12.9
			c11.3,0.3,22.6,0.4,33.9,0c10.7-0.3,18,4.6,23.5,13.1c1.1,1.7,2.1,3.5,3.2,5.3c0.3-0.3,0.5-0.4,0.5-0.5c0.4-0.6,0.7-1.3,1-1.9
			c5.8-10.5,13.9-16.6,26.6-16c10.8,0.5,21.7,0.4,32.5,0c10.7-0.3,18,4.6,23.5,13.1c1.1,1.7,2.1,3.5,3.1,5.2
			c0.3-0.2,0.4-0.2,0.4-0.3c0.4-0.7,0.8-1.4,1.2-2.1c5.8-10.5,13.9-16.6,26.6-16c11.2,0.5,22.4,0.3,33.6,0.1
			c8.6-0.2,15.1,3.5,20.2,10c7.8,10,10.4,21.9,12.1,34c2.2,15.7,2,31.4,1.2,47.2c-0.3,5.3-3.7,8.7-8.6,8.6c-4.8-0.1-8.1-3.8-8-9.2
			c0.1-3.8,0.3-7.6,0.4-11.5c0.3-12.9,0-25.7-2.5-38.4c-0.9-4.8-2.5-9.5-3.7-14.2c-0.3,0.1-0.6,0.1-0.9,0.2c0,0.3-0.1,0.6-0.1,1
			c0,23.3-0.2,46.6,2,69.9c2.7,27.5,4.7,55.1,6.9,82.7c0.5,5.8-2.8,10.9-8.3,13.1C388.2,438.4,387.5,438.7,386.9,439z"/>
		<path class="st2" d="M232.2,159.2c4.4,1.2,8.7,2.6,12.2,5.8c8.2,7.3,10.4,18.8,5.4,28.6c-4.9,9.5-15.9,14.5-26.3,11.9
			c-10.5-2.6-18-12.1-18-22.9c0.1-10.8,7.5-20.2,18.1-22.8c0.7-0.2,1.4-0.4,2.1-0.6C227.8,159.2,230,159.2,232.2,159.2z"/>
		<path class="st2" d="M319.7,159.2c1,0.3,2.1,0.6,3.1,0.9c11.2,3.2,18.5,14.3,16.8,25.5c-1.9,12.3-11.9,20.9-24,20.5
			c-11.7-0.3-21.5-9.5-22.7-21.2c-1.2-11.6,6.6-22.5,18.1-25.2c0.7-0.2,1.4-0.4,2.1-0.6C315.3,159.2,317.5,159.2,319.7,159.2z"/>
		<path class="st1" d="M360.1,191.9c12.8,0,23.3,10.5,23.4,23.2c0.1,13-10.6,23.7-23.6,23.7c-12.9,0-23.4-10.6-23.3-23.6
			C336.6,202.2,347.1,191.9,360.1,191.9z"/>
		<path class="st1" d="M185.3,191.9c12.9,0,23.4,10.3,23.4,23.1c0.1,13.2-10.3,23.7-23.4,23.8c-12.8,0.1-23.5-10.7-23.5-23.5
			C161.8,202.4,172.3,192,185.3,191.9z"/>
		<path class="st1" d="M296.1,215.5c-0.1,12.9-10.7,23.4-23.6,23.4c-12.9-0.1-23.4-10.7-23.3-23.6c0.1-13,10.7-23.4,23.9-23.3
			C285.8,192,296.3,202.7,296.1,215.5z"/>
	</g>
</g>
<circle class="st3" cx="548.4" cy="445.3" r="97.8"/>
<path class="st4" d="M1399.2,587.8c-1.4-0.8-2.5-2.2-3.7-3.3c-0.9,0-1.7,0-2.6,0c-31.8,19-63.4,38.3-95.3,57
	c-58.4,34.4-116.9,68.5-175.4,102.7c0,105.6,0,211.1,0,316.7c89.4,52.3,178.8,104.6,268.1,157c1,0.6,1.7,1.8,2.6,2.7
	c0.9,0,1.7,0,2.6,0c31.8-19,63.4-38.3,95.3-57c58.4-34.4,116.9-68.5,175.4-102.7c0-105.6,0-211.1,0-316.7
	C1577.2,692.1,1488.2,640,1399.2,587.8z"/>
<g>
	<g>
		<path class="st5" d="M1338,930.6c-7.6-13.3-16.4-15.6-27.5-7.3c-3.5-4.2-7.1-8.4-10.3-12.8c-0.6-0.8-0.3-2.7,0-3.9
			c0.3-1.3,1.2-2.4,1.9-3.5c11.1-19.7,22.2-39.3,32.8-58.2c10.1,3.1,19.8,6.1,30,9.2c-0.5,0.8-1.4,2.3-2.4,3.7
			c-3.9,6-8.1,11.9-11.7,18.1c-1.5,2.5-2.3,5.6-2.6,8.5c-0.7,6.5,2.8,10.8,9.2,10.2c6-0.5,12.5-1.7,17.7-4.5
			c5.9-3.2,11.2-8,15.5-13.1c3.6-4.4,7.9-6.5,13-7.5c1.4-0.3,3.3,0,4.7,0.7c31.5,15.6,60.1,35.6,87.2,57.9
			c5.8,4.8,6.9,10.2,3.4,15.3c-3.1,4.6-10,5.6-15.8,2.2c-12.8-7.6-25.5-15.3-38.3-23c-0.4-0.3-0.8-0.7-1.3-0.7
			c-2.2-0.4-5.9-1.5-6.4-0.8c-2.1,3.6,1.7,4.3,3.8,5.6c3.9,2.6,8,4.9,12,7.3c7.7,4.6,15.5,9.3,23.3,13.9c2.7,1.6,5.3,2.9,4.6,6.8
			c-0.7,4-2,7.7-6.1,9.1c-4.3,1.6-8.6,1.9-13-0.8c-9.7-5.9-19.6-11.6-29.5-17.1c-2.2-1.2-5.1-5.3-7.5-1.1c-2.1,3.7,2.5,4.4,4.6,5.7
			c9,5.4,18.2,10.6,27.3,16c2.2,1.3,5.7,1.7,4.6,5.9c-1.1,4.3-2.4,8.5-7.5,8.8c-4,0.2-8.4-0.1-12.1-1.6c-8.3-3.4-16.3-7.8-24.5-11.4
			c-1.4-0.6-3.5,0.1-5.3,0.2c1,1.6,1.7,3.9,3.1,4.6c8.4,4.4,17.1,8.4,26,12.7c-4.2,6.5-9.5,10.6-17.1,9.6c-8.5-1.1-17-3-27-4.9
			c5.7-6.6,7.4-12.6,4.3-19.2c-3-6.5-8.3-9.8-14.4-10.2c-2-5-3-10.2-6-13.8c-2.9-3.4-7.8-5.1-12.3-8c-0.4-9-4.2-15.1-11.9-17.7
			C1347.9,918.7,1342.5,923.2,1338,930.6z"/>
		<path class="st5" d="M1288,914.4c-1.4-0.7-2.3-1.1-3.1-1.6c-5.2-3.1-10.2-6.3-15.5-9.3c-3.6-2-3.8-4.3-1.8-7.8
			c14.4-25.3,28.6-50.7,42.8-76c1.8-3.2,3.4-3.9,6.7-1.7c5,3.4,10.2,6.4,15.4,9.4c3,1.7,4,3.7,2.1,6.9c-14.6,25.8-29,51.6-43.6,77.3
			C1290.3,912.7,1289,913.5,1288,914.4z"/>
	</g>
	<g>
		<path class="st6" d="M1519.6,907.8c-5.3,4.6-10.3,9-15.3,13.4c-3.2,2.8-5.7,2.4-9-0.4c-26.2-21.4-54.1-40.5-84.5-55.6
			c-5.9-2.9-17.2,0.1-21.7,5c-5.1,5.5-10.4,10.9-16.6,15c-3.9,2.6-9.4,3-14.3,3.9c-3.4,0.6-5-1.5-4.4-4.9c0.4-2.1,0.9-4.4,2.1-6.1
			c7.1-10.6,14-21.3,21.8-31.3c2.2-2.9,7.1-4.4,11-5.1c22.3-4.1,44.5-5,66.7,1.1c8.3,2.3,16.6,3.9,25.2,0.9c1-0.4,3.5,0.9,4.1,2
			C1496.2,866.2,1507.7,886.6,1519.6,907.8z"/>
		<path class="st6" d="M1553.4,899.6c-0.9,1.1-1.6,2.5-2.8,3.2c-5.5,3.5-11.1,6.8-16.7,10.3c-2.8,1.8-4.5,0.9-6-1.8
			c-14.4-25.7-28.8-51.3-43.3-76.9c-1.8-3.2-1.1-5.2,2-7c5.4-3.1,10.7-6.3,15.8-9.7c2.7-1.8,4.4-1.5,6,1.4
			c14.5,25.8,29,51.6,43.5,77.4C1552.5,897.3,1552.8,898.3,1553.4,899.6z"/>
		<path class="st6" d="M1362.7,938.6c-0.5,1.1-1.2,3.3-2.5,5.1c-5.5,7.8-11.2,15.4-16.9,23.1c-3.6,4.8-8.3,5.6-13,2.4
			c-4.7-3.2-6.6-9.3-3.7-13.6c6.3-9.1,12.8-17.9,19.5-26.7c2.5-3.2,6.2-3.2,9.6-1.7C1360.1,929.1,1362.5,932.5,1362.7,938.6z"/>
		<path class="st6" d="M1367.8,946.6c5.3,0.1,8.4,2.4,10.5,6.2c1.9,3.5,1.9,7.1-0.6,10.4c-4.4,6.1-8.8,12.2-13.3,18.3
			c-3.4,4.6-7.5,5.5-12.2,2.8c-4.7-2.8-7.5-8.7-4.9-12.8c5.1-8,11-15.6,16.8-23.1C1365,947.2,1367,947,1367.8,946.6z"/>
		<path class="st6" d="M1387.3,965.5c2.8,2.4,6.1,4.3,8.3,7.1c2.6,3.3,2.2,7.2-0.4,10.7c-2.8,3.8-5.5,7.5-8.4,11.2
			c-3.2,4.2-8,5-12.3,2.1c-4.6-3-6.9-8.9-4.4-13c3.2-5.1,6.8-9.9,10.6-14.6C1382,967.7,1384.3,967.1,1387.3,965.5z"/>
		<path class="st6" d="M1319.7,951c-5.2-0.1-8.9-2.2-10.2-6.1c-1-3.1-0.4-7,0.5-10.3c0.6-2.2,2.8-4.1,4.3-6.1
			c3.6-4.8,7-5.8,11.6-3.7c4.8,2.3,8.2,7.8,6.1,12.2c-2.2,4.7-5.9,8.7-9.2,12.8C1322,950.8,1320.3,950.8,1319.7,951z"/>
	</g>
</g>
<path class="st7" d="M1217.1,988.3c-0.8-0.4-1.4-1.2-2.1-1.8c-0.5,0-1,0-1.4,0c-17.8,10.3-35.5,20.8-53.4,30.9
	c-32.7,18.6-65.5,37.1-98.2,55.7c0,57.3,0,114.6,0,171.9c50.1,28.4,100.1,56.8,150.2,85.2c0.6,0.3,1,1,1.5,1.5c0.5,0,1,0,1.4,0
	c17.8-10.3,35.5-20.8,53.4-30.9c32.7-18.6,65.5-37.1,98.2-55.7c0-57.3,0-114.6,0-171.9C1316.8,1044.9,1266.9,1016.6,1217.1,988.3z"
	/>
<path class="st8" d="M413.7,1832.9L114,1962.3c-42.4,18.3-91.6-1.2-110-43.7l0,0c-89.7-207.9,6.1-449.2,214.1-539l0,0
	c42.4-18.3,91.6,1.2,110,43.7L457.4,1723C475.7,1765.4,456.1,1814.6,413.7,1832.9z"/>
<path class="st9" d="M426.9,2001.7l-230.1-91.4c-32.6-12.9-48.5-49.8-35.6-82.4l0,0c63.4-159.6,244.2-237.7,403.9-174.3l0,0
	c32.6,12.9,48.5,49.8,35.6,82.4l-91.4,230.1C496.3,1998.7,459.5,2014.6,426.9,2001.7z"/>
<g>
	<path class="st10" d="M417.7,1812.2c11.4-10.3,23.1-20.2,34-30.9c5.3-5.3,9.6-11.8,13.5-18.3c5.8-9.7,3.2-22.1-5.4-29.2
		c-9.1-7.5-19.5-7.2-28.9,1.1c-3.2,2.8-5.9,6.2-8.8,9.2c-3.8,4-6.5,4-10.3,0c-3.6-3.7-7-7.6-10.9-10.9c-4.1-3.6-9.1-5.4-14.8-4.6
		c-17.3,2.6-25.7,20.5-16.9,35.6C380.8,1784.2,398.6,1797.9,417.7,1812.2z"/>
	<path class="st11" d="M413.2,1820.3c2.8,2,5.3,1.5,7.9-0.5c6.8-5.3,13.9-10.4,20.5-15.9c12.3-10.3,23.5-21.6,31.5-35.7
		c10.7-19,1.1-42.3-19.9-48.1c-1-0.3-1.9-0.7-2.9-1c-3.3,0-6.7,0-10,0c-9.3,3-16.8,8.7-23.3,16.7c-6.5-7.6-13.9-13.7-23.3-16.7
		c-3.3,0-6.7,0-10,0c-1,0.3-1.9,0.7-2.9,1c-14.8,4-24.6,17-24.5,32.4c0.1,10.9,5.9,19.3,12.2,27.4
		C380.9,1795.9,396.7,1808.6,413.2,1820.3z M386,1728.6c5.7-0.9,10.6,1,14.8,4.6c3.9,3.3,7.3,7.2,10.9,10.9c3.9,4,6.5,4,10.3,0
		c2.9-3.1,5.6-6.4,8.8-9.2c9.4-8.3,19.8-8.6,28.9-1.1c8.6,7.1,11.2,19.5,5.4,29.2c-3.9,6.5-8.1,13-13.5,18.3
		c-10.9,10.7-22.6,20.6-34,30.9c-19.1-14.3-36.9-28-48.6-47.9C360.3,1749.1,368.7,1731.2,386,1728.6z"/>
	<path class="st11" d="M455.1,1824.6c-3.2,3.2-6.7,6.2-9.8,9.5c-3.6,3.8-7.5,5.1-13.1,4.7c-16.7-1.2-32-4.5-45.5-15.6
		c-12.1-9.9-26.8-11.1-41.9-6.6c-4.1,1.2-8.2,2.7-12.3,2.9c-5.9,0.3-10.5,2.1-13.6,7.3c0,11,0,21.9,0,32.9c3.3,5.5,8.2,7.6,14.4,7
		c17.2-1.6,32.6,3.3,46.5,13.2c1.8,1.3,3.8,2.4,5.7,3.5c18,0,35.9,0,53.9,0c5.4-2.8,9-7.2,12.5-12.1c6.8-9.8,14.3-19.3,21.5-28.9
		c2.1-2.8,4.1-5.5,6.2-8.3c0-2.1,0-4.3,0-6.4C473,1816.2,464.7,1815.1,455.1,1824.6z M468.8,1832.8c-5.1,7-10.6,13.7-15.7,20.7
		c-3.9,5.2-7.7,10.6-11.3,16c-2.1,3.1-4.7,4.8-8.7,4.7c-13.7-0.2-27.4,0-41-0.1c-2.3,0-4.6-1.1-6.9-1.8c-0.1,0-0.3-0.1-0.4-0.2
		c-15.5-11.2-32.8-16.2-51.8-14.8c-3.7,0.3-5.1-0.8-4.9-4.8c0.3-7.6,0.1-15.1,0.1-22c8.3-2.2,15.8-4.5,23.5-6
		c9.3-1.8,18.5-0.7,26.8,4.3c2.9,1.7,5.7,3.5,8.2,5.7c9.9,8.6,21.8,11.7,34.5,12.5c3.8,0.3,7.6,0.4,11.3,1c1.4,0.3,2.6,1.8,3.9,2.8
		c-1.3,0.9-2.6,2.5-4,2.6c-10.9,0.8-21.8,1.4-32.8,1.7c-2.5,0.1-5.3-1.1-7.6-2.5c-5.5-3.3-10.6-7-16-10.6c-2.8-1.8-5.8-2.7-7.9,0.7
		c-2.1,3.5,0.2,5.5,3,7.3c5.1,3.3,10.1,6.8,15.1,10.2c4.9,3.3,10.2,4.9,16.3,4.3c10-0.9,20-0.9,30-1.6c9.3-0.6,13.1-5.2,12.9-14.6
		c0-1.2,0.5-2.6,1.4-3.4c5.2-5.1,10.6-10,16-15c0.6-0.5,1.2-1.3,1.8-1.4c1.5-0.1,3,0.1,4.5,0.2
		C469.1,1830.2,469.5,1831.9,468.8,1832.8z"/>
</g>
</svg>
