<?xml version="1.0" encoding="utf-8"?>
<!-- Generator: Adobe Illustrator 24.2.0, SVG Export Plug-In . SVG Version: 6.00 Build 0)  -->
<svg version="1.1" id="Layer_1" xmlns="http://www.w3.org/2000/svg" xmlns:xlink="http://www.w3.org/1999/xlink" x="0px" y="0px"
	 viewBox="0 0 615 304" style="enable-background:new 0 0 615 304;" xml:space="preserve">
<style type="text/css">
	.st0{fill:#EFEFEF;}
	.st1{fill:#F7A116;}
	.st2{fill:none;}
	.st3{fill:#191915;}
	.st4{fill:#08090C;}
	.st5{fill:#08090D;}
	.st6{fill:#010101;}
	.st7{fill:#151514;}
	.st8{fill:#F8B129;}
	.st9{fill:#F8B029;}
	.st10{fill:#F2B32A;}
	.st11{fill:#F5B72B;}
	.st12{fill:#F4B62B;}
	.st13{fill:#F5B62A;}
	.st14{fill:#F6B72B;}
	.st15{fill:#141113;}
	.st16{fill:#0E0D12;}
	.st17{fill:#141114;}
	.st18{fill:#0C0B12;}
	.st19{fill:#111013;}
	.st20{fill:#131113;}
	.st21{fill:#131214;}
	.st22{fill:#E2AC2B;}
	.st23{fill:#876722;}
	.st24{fill:#E1B02C;}
	.st25{fill:#EAC22E;}
	.st26{fill:#DFAF2C;}
	.st27{fill:#CFA92B;}
	.st28{fill:#E7B52C;}
	.st29{fill:#E9B92D;}
	.st30{fill:#896D23;}
	.st31{fill:#D2AD2C;}
	.st32{fill:#E0B82D;}
	.st33{fill:#E3B82D;}
	.st34{fill:#DEB32C;}
	.st35{fill:#E3B62D;}
	.st36{fill:#E5BA2D;}
	.st37{fill:#ECBD2D;}
	.st38{fill:#E2BA2D;}
	.st39{fill:#F8B229;}
	.st40{fill:#F8B329;}
	.st41{fill:#F7B229;}
	.st42{fill:#F7C12D;}
	.st43{fill:#F6B229;}
	.st44{fill:#191917;}
	.st45{fill:#191916;}
	.st46{fill:#1F1E1D;}
	.st47{fill:#1B1A17;}
	.st48{fill:#171614;}
	.st49{fill:#131311;}
	.st50{fill:#232221;}
	.st51{fill:#171615;}
	.st52{fill:#151413;}
	.st53{fill:#100F0E;}
	.st54{fill:#D3AE2C;}
	.st55{fill:#E5BC2D;}
	.st56{fill:#E5A82C;}
	.st57{fill:#DCB32C;}
	.st58{fill:#1E1814;}
	.st59{fill:#101013;}
	.st60{fill:#241E14;}
	.st61{fill:#211D15;}
	.st62{fill:#2B2315;}
	.st63{fill:#141313;}
	.st64{fill:#221C14;}
	.st65{fill:#191513;}
	.st66{fill:#1A1512;}
	.st67{fill:#1A1513;}
	.st68{fill:#1C1814;}
	.st69{fill:#141212;}
	.st70{fill:#171312;}
	.st71{fill:#181412;}
	.st72{fill:#181513;}
	.st73{fill:#2C2315;}
	.st74{fill:#E9BE2D;}
	.st75{fill:#EBB52B;}
	.st76{fill:#E6B22B;}
</style>
<g>
	<g>
		<path class="st0" d="M318.9,60.9h-12.6v-5.5h31.3v5.5H325v50.8h-6.2V60.9H318.9z"/>
		<path class="st0" d="M348.3,52.7v22.1c1.5-3.4,4.7-5.9,10.1-5.9c6.2,0,10.6,3.8,10.6,12.9v29.9h-6.1V83.1c0-5.2-1.5-8.7-6.7-8.7
			c-5.8,0-7.9,4.8-7.9,12.1v25.3h-6.1V52.7H348.3z"/>
		<path class="st0" d="M382.9,91.8c0,8.2,1.4,15.4,8.1,15.4c6.6,0,7.4-6.3,7.7-7.5h5.9c-0.1,1.1-1.3,12.8-13.7,12.8
			c-12.4,0-14.1-11.3-14.1-21.8c0-13.3,4.6-21.7,14.4-21.7c11.1,0,13.7,9.1,13.7,19.6c0,0.8,0,2.2-0.1,3.2
			C404.8,91.8,382.9,91.8,382.9,91.8z M398.9,87.1c0-7.2-1.5-12.9-7.7-12.9c-7.7,0-8.1,10-8.2,12.9H398.9z"/>
	</g>
	<g>
		<path class="st1" d="M356.3,164.2c0-11.6,0.2-24.3,0.4-31.5h-0.2c-2.3,12.1-6.8,36.1-11.4,57.2h-9.4c-3.4-19.3-8.1-44.9-10.3-57.4
			h-0.3c0.4,7.7,0.7,21.7,0.7,33.1V190h-9.4v-66h15.3c4.1,19,7.8,39.7,9.2,49h0.1c1.3-8.3,6.2-30.7,10.3-49h15v65.8h-9.9v-25.6
			H356.3z"/>
		<path class="st1" d="M388.3,124v65.8h-10.2V124H388.3z"/>
		<path class="st1" d="M437.5,171c-0.3,3.5-1.7,19.9-19.2,19.9c-18.3,0-20.2-17.2-20.2-34.2c0-20.6,5.8-33.7,20.9-33.7
			c16.9,0,18.1,14.9,18.3,19.8h-10.2c-0.2-2.2-0.4-11-8.3-11c-8.4,0-10.1,10.8-10.1,25.1c0,12.9,1.3,25.4,9.8,25.4
			c7.6,0,8.4-8.5,8.7-11.3H437.5z"/>
		<path class="st1" d="M485.3,156.4c0,23.5-6.1,34.5-21,34.5c-14,0-20.4-10.8-20.4-34.6c0-23.3,7.5-33.3,20.9-33.3
			C478.9,123,485.3,133.8,485.3,156.4z M454.4,156.2c0,16.7,2.9,26,10.2,26c7.7,0,10.2-8.8,10.2-26c0-16.6-2.7-24.6-10.3-24.6
			C457.2,131.7,454.4,140.5,454.4,156.2z"/>
	</g>
	<g>
		<path class="st0" d="M314.9,204.7h22v4.7h-16.7v15.9h15.7v4.6h-15.7v22.5H315L314.9,204.7L314.9,204.7z"/>
		<path class="st0" d="M369.4,228.1c0,16.3-3.9,25-14.2,25c-9.8,0-13.9-8.4-13.9-24.9c0-16.2,4.8-24.2,14.1-24.2
			C365.3,204,369.4,212,369.4,228.1z M346.7,228.1c0,13.6,2.7,20.4,8.7,20.4c6.1,0,8.6-6.7,8.6-20.4c0-13.9-2.7-19.6-8.7-19.6
			C349.5,208.6,346.7,215.1,346.7,228.1z"/>
		<path class="st0" d="M382,204.7v33.4c0,5.3,1.5,10.4,7.8,10.4s7.8-4.3,7.8-10.5v-33.4h5.2v33.5c0,8.7-3.1,14.9-13.2,14.9
			c-9.7,0-13-5.9-13-14.6v-33.8h5.4V204.7z"/>
		<path class="st0" d="M411.8,252.4v-47.7h6.4c13.2,33,15,37.5,15.6,39.6h0.1c-0.3-6.4-0.4-13.6-0.4-21.3v-18.2h4.9v47.7h-6.2
			c-13.7-34.7-15.4-39-15.9-40.9h-0.1c0.4,6,0.4,13.8,0.4,22.4v18.6h-4.8V252.4z"/>
		<path class="st0" d="M447.9,204.7h10.6c11,0,15.9,7.7,15.9,22.6c0,16.2-4.5,25.1-16.7,25.1h-9.8V204.7z M453.1,247.9h4.4
			c8.7,0,11.5-6.9,11.5-20.4c0-12.7-3.3-18.2-11.4-18.2h-4.4v38.6H453.1z"/>
		<path class="st0" d="M486.5,237.2l-3.5,15.1h-5.2l11.5-47.7h6.8l11.9,47.7h-5.6l-3.5-15.1H486.5z M497.8,232.6
			c-2.8-11.7-4.6-19.2-5.2-23h-0.2c-0.7,4.1-2.6,12.7-4.9,23H497.8z"/>
		<path class="st0" d="M515.5,209.4h-10.6v-4.7h26.5v4.7h-10.6v43h-5.2v-43H515.5z"/>
		<path class="st0" d="M541.7,204.7v47.7h-5.2v-47.7H541.7z"/>
		<path class="st0" d="M577.4,228.1c0,16.3-3.9,25-14.2,25c-9.8,0-13.9-8.4-13.9-24.9c0-16.2,4.8-24.2,14.1-24.2
			C573.4,204,577.4,212,577.4,228.1z M554.8,228.1c0,13.6,2.7,20.4,8.7,20.4c6.1,0,8.6-6.7,8.6-20.4c0-13.9-2.7-19.6-8.7-19.6
			C557.5,208.6,554.8,215.1,554.8,228.1z"/>
		<path class="st0" d="M585,252.4v-47.7h6.4c13.2,33,15,37.5,15.6,39.6h0.1c-0.3-6.4-0.4-13.6-0.4-21.3v-18.2h4.9v47.7h-6.2
			c-13.7-34.7-15.4-39-15.9-40.9h-0.1c0.4,6,0.4,13.8,0.4,22.4v18.6H585V252.4z"/>
	</g>
</g>
<g>
	<path class="st0" d="M52.9,171.1c0,0-1,25,1,31s1.5,12.5,12.8,21.2s81.2,34.8,81.2,34.8v-86L52.9,171.1z"/>
	<path class="st0" d="M152.9,108.1v65c0,0,86,1,86,0s-1-65-1-65S152.9,108.1,152.9,108.1z"/>
	<g>
		<path d="M250.9,177.5c0-41.2-0.1-82.5,0.1-123.7c0-5.3-1.3-7.1-6.8-6.8c-7.3,0.5-14.7,0.2-22.1,0.1c-1.6,0-3.5,0.5-4.8-0.6H56.9
			c-1.8,1.5-4.1,0.5-6.2,0.6c-3.8,0.1-6,0-7.2,0.4c-0.5,0.3-0.9,0.7-1.2,1.2c-0.4,1.2-0.2,3.4-0.3,7.2c0,44.5,0,88.9-0.1,133.4
			c0,2.3,0,22.3,13.4,33.6c24.2,21.6,53.7,35.2,84.8,43.6c2.5,0.7,4.6,2.2,7.6,1.4c30.8-7.9,60-20.1,84.9-40.5
			C254.6,210.6,250.9,186.4,250.9,177.5z M92.1,148.1c0.7-1.3,1.3-3.5,3.8-2.3c-1.8-3.3-3.1-6.5-0.9-10.2c-0.4-1.2-2.1-2-1.2-4
			c3.1,0.7,5.9,2.3,9.5,0.4c1.9-1,5.3,1.1,5.1,4.8c-0.8,1.2-1.5,2.4-2.4,3.7c10.2,10,3.2,21.2-4,27c-0.8,0.6-1.6,1.3-2.7,0.4
			c-1.4-1.4,0.8-1.9,0.8-2.5c0.1-2.9,2.7-3.9,3.8-5.9c-0.7-1.9-2.2-0.1-3.1-0.6c-0.9-0.5-2.6-0.8-2.3-2.1c0.3-1,1.6-1.8,3-1.6
			c1,0.1,2.1,2,2.9,0.2c0.5-1.2-1.1-1.9-2.1-2.6c-0.6,1.1-1.6,1.2-2.8,1.1c-2.4,0.8-5.3,2.7-4.6-2.3c-0.4-0.3-0.8-0.6-1.1-0.9
			C92.3,150.2,91.4,149.3,92.1,148.1z M63,127.3c-0.2-0.6-0.6-1.5-0.6-1.6c4.1-1.9,3-6.1,4.2-9.3c-2.1-0.4-2.9-1.7-3-4.4
			c3.9,3,7.6,1.2,11.4,0.7c0.4-0.1,2.9-3.1,1.9,0.6c-0.4,1.5,7,3.9-0.4,4.4c1.4,1.1,3,2.2,0,3.4c8.1,11.3,6.1,21-6.5,28.3
			c-0.9-4.2,2-6.7,4.5-9.9c-1.8,0.4-2.7,0.6-3.7,0.8l0,0c-7.1,2.9-6.3-4.9-9.4-7.2C59.7,131.8,58.8,128.2,63,127.3z M128.4,137.6
			c0.2-2.5,3.5-1.1,6.3-0.9c-1.6-2.5-3.2-4.5-4.3-6.6c-0.9-1.9-4-3.2-2.3-6.1c2.8-0.4,2.4,4,5.7,3.1c-0.1-2.3-3-4-1.9-6.4
			c7.5,2.1,10.8,8.6,8.1,16.7c-1.4,4.3-4.3,7.7-7.8,10.6c-0.9,0.8-2,1.7-3.2,0.7c-1.5-1.3,0.5-1.7,0.8-2.5c0.8-2.5,2.6-4.3,4.8-6.2
			C132,139,128.2,141,128.4,137.6z M126.2,136c-0.5,0.1-1.6-1.2-1.8-2c-0.3-1.7,1.3-1.6,2.4-2c1.1,0,2.2,0.6,2.3,1.5
			C129.1,134.9,127.5,135.8,126.2,136z M137.9,117.4c-4.5-1.6-9.6-0.3-13.9-2.5c-0.4-0.2-0.5-1-1.6-3.5c4.7,3.1,8.2,2.5,11.4,1.1
			c4.1-1.8,2.6,3.8,5.3,3.7C138.6,116.6,138.1,117.5,137.9,117.4z M124.6,126.6c0.7,0.1,1.2,1.4,1.9,2.1c-0.5,1.7-1.9,2.2-3.2,2.4
			c-1.3,0.2-1.9-1-1.4-1.9C122.3,128.1,122.9,126.4,124.6,126.6z M142.5,255.5c-0.1,0.1-0.2,0.1-0.4,0.2
			c-19.8-7.6-39.4-15.5-58.2-25.3c-17.4-9.3-27.3-23.1-28.8-42.8c-0.2-2.3,0.1-4.8,0.2-7.2c0.1-2.6,3.3-10,6.3-10
			c27.6,0.2,53.5,1.6,81.1,1.8c2.3,1.3,1.1,8.4,1.1,10.4c0.1,22.5,0.1,45,0,67.5C143.9,251.8,144.8,254.2,142.5,255.5z M152.6,98.3
			c-1,0.5-2.9,0.8-2.3,2.1c2.3,4.8-2.4,3.7-4,4.4c-2.2,1-4.3,0.1-4.9-2.6c0-0.1,0.9-0.5,1.4-0.7l0,0c6.7-3.5,2.3-9.5,2.9-14.4
			c-0.7,3.3-1.4,6.4-2.6,11.2c-0.3-2.4-0.5-3.5-0.6-4.4c-0.2,4.6-3,4.1-6.1,3c-2.2,2-4.3,1.4-6.4,0c0.2,1.2-0.2,1.9-1.6,1.7
			c-10.9-1.2-21.5,0.5-32.4,1.9c-0.9,0.6-2.5,0.8-2.3-0.4c0.7-5.4,2.7-10.4,6.9-14.2c0.8-2.9,1.5-5.7,5.4-5.9c1-2.1,2.8-4.3,3.1-6.5
			c1-7.9,6.5-8,12.5-7.6c4.5,0.3,9,0.8,13.2,2.2c9.3,3.2,9.4,3.3,9.2,13.8c2-2.2,0.6-5,1.1-7.4c0.4-2,1.2-2.3,2.6-0.6
			c11.5-7.2,24.1-10.1,37.7-9.1c1.6,0.1,2.7,0.6,3.2,2.1c2.6,8.4,5.3,16.8,7.8,25.2c0.3,0.8-0.2,1.5-0.9,1.9
			c0.9,1.6,1.8,3.3-1.3,3.6c0.6,0.5,1.6,1.2,1.6,1.6c-0.3,1.5-1.5,0.8-2.4,0.6c-8.7-2-17.4-0.8-26.2-1.2c-2.9-0.1-5.6,3.3-8.5,0.2
			C157,97.6,154.5,100.4,152.6,98.3z M162.1,217.7c-0.3,0.1-0.9-0.6-1.4-0.9l0,0l0,0l0,0c-1.4-0.3-2.2-1.4-1.9-2.6
			c0.9-3.5,0.2-6.1-3-8.2c-2.4-1.5-2.1-4.2-1.8-6.5c-0.7-1.6,0.8-2.6,1.1-4c-0.3-1.9,0.2-3.1,2.2-4c1.8-0.8,2,0.2,2.6,1.1
			c2.4-0.9,2.6,2.4,4.5,2.2c1.9-1.8-3-4.4,0.2-5.5c2.6-0.9,4.4,1.6,5.9,3.6C176,200.2,171,215,162.1,217.7z M155.4,180.9
			c4.5,1.6,4.5,1.6,13.7-0.5c0.4,5.1-3.1,5-6.4,5.1C159.4,185.4,155.7,185.9,155.4,180.9z M194.2,235.4c-0.8,0.6-1.4,2.3-2.9,1
			c-1.5-1.3,0.3-2.2,0.5-3.4c0.6-2.6,3.4-3.4,4.5-5.9c-2.4-0.6-5.5,0.9-6.7-2.2l0,0l0,0c-0.1-0.5-0.1-1.1-0.2-1.6
			c-1.6,0.1-3.1-0.7-2.9-2.1c0.3-1.9,2.2-2.4,4.1-1.9c-0.6-1-1.8-1.1-2.9-1.2l0,0c-1.2-0.3-2.6,1.7-3.8,0.1
			c-0.9-1.2,0.4-2.1,0.6-3.3c2.1-9.9,2.1-9.9,12.4-10.1c-2.2-1.5-4.6-1-7-0.9c-2.6,0.1-4.3-0.5-4.8-3.8c3.4,0.8,6.6,2.1,10.1,0.1
			c2.2-1.2,3.3,3.1,6,3.1c-0.3,1.8-1.6,1.9-3.2,1.8c1.6,2,3.7,4,2.8,7C204.4,221.7,202.3,229.1,194.2,235.4z M223.7,216.7
			c-1,0.7-1.9,1.7-3,0.3c-1.1-1.3,0.2-1.7,0.7-2.7c1.1-2.2,2.9-3.8,4.6-5.6c-1.6-1.9-6.6,1.5-5.9-3.6c0-0.4-0.1-0.9-0.1-1.3
			c-0.4,0.2-0.9,0.5-1.3,0.7c-1.4,5.3-3.7,0.2-4.6-0.1c-2.4-0.8-3.1-3.1,0.1-4.5l0,0c-1-3.2-0.1-4.8,3.4-4.7
			c-3.3-3.2-1.2-6.8-1-10.3c-0.6-1.2-2-2.1-1.3-4.3c3.3,1,6.3,2.4,10.1,0.3c3.5-2,2.6,3.5,4.6,4.7c-2.2,2.4,1.9,4.6,0.2,7
			C234.4,201.8,231.9,211.1,223.7,216.7z M237.3,170.5c-1,2.1-3.1,1.5-4.8,1.5c-23.8,0-47.5,0-71.4,0c-1.8,0-3.8,0.5-4.7-1.7
			c-0.1-1-0.2-2.1-0.3-3.2c-0.3-0.9-0.9-1.8-0.9-2.7c-0.1-17.1,0-34.2,0-51.3c0-1.6-0.2-3.3,1.8-4.1c25.2,0,50.2,0.1,75.4-0.1
			c3.9,0,5.3,0.8,5.2,4.9c-0.3,16.9-0.2,33.9-0.2,50.8C237.3,166.6,237.3,168.5,237.3,170.5z"/>
		<path class="st2" d="M142.7,224.3c0.1-15.9,0-31.8,0-47.6c-26.8-0.1-53.6-0.2-80.4-0.5c-2.9,0-4,1.2-4.1,3.8
			c-0.1,2.4-0.4,4.7-0.2,7.1c1.4,19.2,11,32.9,27.9,42c18.2,9.8,37.2,17.5,56.4,24.9C143.4,244.1,142.6,234.2,142.7,224.3z
			 M83.6,212.2c-3.7-2.7-7-1.9-11.5,0.5c2.5-3.9,2.1-6.5-1.8-8.2c4.6-0.2,6.9-2.3,7.8-7c2.3,3.9,3.9,7.7,9.1,6.1
			C84.7,206.2,81.7,208,83.6,212.2z M122.2,226.3c2.6,4.3-0.6,9.7-5.6,9.8c-2.3,0-4.7,0.4-7.2-0.9c1.2-2.7,3.3-2.5,5.4-2
			c1.4,0.4,2.3-0.1,2.8-1.4c0.7-1.8-0.5-2.5-1.9-3c-2.9-1.1-5.3-2-6.6-5.8c-0.8-2.3-6.2-2.3-8.3-0.3c-4.2,4.1-6.7,3.5-9.6-1.2
			c-0.7-1.1-2.5-1.6-4-2.4c2.8-2.5,4.3-0.4,6,1.3s3.8,3.2,4.6-0.6c1.3-6.1,5.5-6.4,11.9-4.8c-6.3-8.7-13.5-13.2-22.3-15.4
			c-1.3-0.3-4,0.6-3.6-1.8c0.4-2.3,2.6-1.6,4.3-0.9c2.6,1,5.2,1.9,8.7,0.8c-3.7-3.1-6.2-7.1-11.3-7.8c-0.9-0.1-2.2,0.2-2.1-1.3
			c0.1-1.6,1.5-1.6,2.7-1.6c1.6,0,3.1,0.4,4.2,1.8c2.4,3.2,5.8,3.7,9.4,3.3c1.1-2.2-1.2-2.8-2-3.7c-2.4-2.7,0.4-5.2,1.2-5.3
			c6.5-0.6,12.1-4.8,19.1-3.8c4.3,0.6,5.5,2.8,5.9,6.3c0.7,5-0.8,9.6-2.5,14.1c-0.2,0.4-0.6,1.1-0.9,1.2c-9,0.3-2.4,4.7-1.3,6.3
			c2.1,3,4.7,5.7,6.1,9.3c0,0.1,0.4,0.1,0.5,0c0.2-0.1,0.3-0.3,0.4-0.4c2.6-5.8,2.2-11.9,2.5-18c0.1-1.7-0.5-3.6,1.4-4.8
			c1.4-0.8,3.2-1.5,4.4-0.3c1.2,1.3-0.2,2.8-1.4,3.3c-2.7,1.1-2.3,3.2-2.2,5.3c0.4,5.2,0,10.2-3.1,14.7c-1.1,2.4-2.9,4.3-5,5.8
			C121.5,223.1,120.8,224.1,122.2,226.3z M137.3,242.2c-1.4-0.7-2.1-1-2.7-1.4c-1.6-1.2-3.2-1.1-5-0.2c-2.6,1.3-3.7,1.2-2-2.2
			c1.1-2.1-2.3-2.3-2.8-4.7c4-0.2,6.4-1.8,6.7-6.5c2.7,3.4,4.1,7.6,9.4,5.9C137.9,235.7,135.6,238,137.3,242.2z"/>
		<path class="st2" d="M229.7,109.9c-24.4,0.2-48.7,0.1-73.1,0.1c-0.9,16.6-0.3,33.3-0.3,49.9c-0.1,1-0.1,1.9-0.2,2.9
			c-0.1,1.4-0.2,2.8-0.2,4.2c0.1,1,0.2,2.1,0.3,3.1c0.8,0,1.7,0,2.5,0c11.6,0.1,23.2,0.2,34.8,0.3c5.4,0,10.8,0.1,16.2,0.1
			c2,0,4,0,5.9,0c5.4-0.1,10.8-0.2,16.2-0.3c1,0,1.9,0,2.9-0.1c0-1.9-0.1-3.8-0.1-5.6c0-16.6-0.1-33.3,0.2-49.9
			C234.8,110.7,233.5,109.9,229.7,109.9z M172.2,166.4c-4-2.4-7.2-1.9-11.7,0.5c2.7-4.2,1.9-6.6-1.9-8.4c4.6-0.4,7.5-1.6,7.9-6.4
			c1.9,4,4.1,6.6,9.1,5.3C174.1,160.7,169.1,161.6,172.2,166.4z M211.1,159.8c1.4,3.2-0.1,5.8-1.4,8.6c-0.1,0-0.3,0-0.4,0
			c-3.1,0-6.2,0-9.3,0c-0.4,0-0.7,0-1.1,0c-0.8-2.2,0.5-2.4,2.2-2.6c1.8-0.2,3.8,0.9,5.2-1.1c0-0.2,0-0.4,0-0.5
			c-0.3-0.6-0.7-1.2-1.1-1.8c-0.5-0.3-1.1-0.5-1.6-0.8c-1.4-0.6-4-1.2-4-2c-0.3-5.9-5.5-3.7-8.3-5.3c-2.4,1.9-4.9,3.8-7.6,5.9
			c-1.9-3.4-3.4-6.9-7.6-8.2c4.4-2.4,6.2,1.5,9.4,4c0.9-7.5,5.4-9.7,12-8.5c-2.5-5.3-7.5-7.9-11.8-11.3c-3.8-0.9-6.9-3.8-11-3.5
			c-1.1,0.1-2.7,0-2.4-1.6c0.3-1.4,1.5-2.3,3.1-1.5c3.2,1.6,6.5,2.6,10.1,1.4c-0.4-0.6-0.7-1.2-1.1-1.9c-4.3-2-6.8-6.9-12.2-7.3
			c6-3.9,8.7,3.4,13.4,3.8c1.2-0.5,4.9,1.1,1.8-2.8c-1.9-2.5-5.8-2-6.9-5.9c7.1,2.6,12.2-2.9,18.5-3.6c4-0.5,8.4-2.2,11.3,0.8
			c4.1,4.2,2.9,10,0.9,14.8c-0.8,2,0.2,7-5.5,5.6c-1.3-0.3-0.1,3.4,1,4.8c2.6,3.5,6,6.5,7.2,11l0.1,0.1c3.7-5.8,2.6-12.5,3.6-18.8
			c0.2-1.2-0.2-2.4,0.1-3.5c0.5-1.8,2.3-2,3.8-2.2c0.6-0.1,1.8,0.2,2,0.7c0.6,1.6-0.7,2.8-1.8,3.3c-2.5,1.1-2,2.9-1.8,4.9
			c0.4,5.8,0,11.4-4.1,16.1c-0.9,2.3-2.8,3.8-4.8,5C208.7,157,210.2,158.4,211.1,159.8z M228.8,166.4c-3.7-1.6-7-2.6-10.8-0.2
			c2.6-3.9,0.2-5.5-3.2-7c3.6-1.9,8.2-1.3,7.8-7.8c2.6,4.8,4.8,7.6,9.6,6.1C231.1,160.7,225.2,161.4,228.8,166.4z"/>
		<path class="st2" d="M276.1,196.8c-0.3,0-0.6-0.1-0.8-0.2c0.1,0.2,0.2,0.4,0.2,0.6C275.7,197.1,275.9,196.9,276.1,196.8z"/>
		<path class="st2" d="M45.5,50.7c0.3-0.5,0.7-0.9,1.2-1.2C46.1,49.6,45.7,50,45.5,50.7z"/>
		<path class="st3" d="M160.6,204.4c0.2-0.2,0.5-0.4,0.6-0.6C161,203.9,160.7,204.1,160.6,204.4z"/>
		<path class="st3" d="M205.3,162.3c0.4,0.6,0.7,1.2,1.1,1.8C206.4,163.2,205.9,162.7,205.3,162.3z"/>
		<path class="st3" d="M245.6,203.1c2.9-8.5,2.2-17.2,2.2-25.9c0-40.5-0.1-81,0.1-121.5c0-5.2-1.3-7-6.6-6.7
			c-7.1,0.5-14.3,0.2-21.4,0.1c-1.6,0-3.4,0.5-4.7-0.6H59.7c-1.7,1.5-4,0.5-6,0.6c-3.7,0.1-5.8,0-7,0.4c-0.5,0.3-0.9,0.7-1.2,1.2
			c-0.4,1.2-0.2,3.3-0.3,7.1c0,43.7,0,87.3-0.1,131c0,2.3,0.9,4.8-1,6.8c0.5,11.4,6.2,20.2,14.4,27.6c23.5,21.2,51.7,33.2,81.8,41.5
			c2.4,0.7,4.5,2.2,7.4,1.4c29.9-7.8,58.3-19.1,82.4-39.1c6.9-5.7,13.5-11.7,16.3-20.7C245.4,205.4,245.2,204.2,245.6,203.1z
			 M93.8,148.3c0.7-1.3,1.3-3.4,3.7-2.3c-1.7-3.2-3-6.4-0.9-10c-0.4-1.2-2-2-1.2-3.9c3,0.7,5.7,2.3,9.2,0.4c1.8-1,5.1,1.1,4.9,4.7
			c-0.8,1.2-1.5,2.4-2.3,3.6c9.9,9.8,3.1,20.8-3.9,26.5c-0.8,0.6-1.6,1.3-2.6,0.4c-1.4-1.4,0.8-1.9,0.8-2.5c0.1-2.8,2.6-3.8,3.7-5.8
			c-0.7-1.9-2.1-0.1-3-0.6s-2.5-0.8-2.2-2.1c0.3-1,1.6-1.8,2.9-1.6c1,0.1,2,2,2.8,0.2c0.5-1.2-1.1-1.9-2-2.6
			c-0.6,1.1-1.6,1.2-2.7,1.1c-2.3,0.8-5.1,2.7-4.5-2.3c-0.4-0.3-0.8-0.6-1.1-0.9C94,150.4,93.1,149.5,93.8,148.3z M65.6,127.9
			c-0.2-0.6-0.6-1.5-0.6-1.6c4-1.9,2.9-6,4.1-9.1c-2-0.4-2.8-1.7-2.9-4.3c3.8,2.9,7.4,1.2,11.1,0.7c0.4-0.1,2.8-3,1.8,0.6
			c-0.4,1.5,6.8,3.8-0.4,4.3c1.4,1.1,2.9,2.2,0,3.3c7.9,11.1,5.9,20.6-6.3,27.8c-0.9-4.1,1.9-6.6,4.4-9.7c-1.7,0.4-2.6,0.6-3.6,0.8
			l0,0c-6.9,2.8-6.1-4.8-9.1-7.1C62.4,132.3,61.5,128.8,65.6,127.9z M141.6,174.6c-0.1,0.2-0.2,0.4-0.3,0.5c-27.1,0-54.3,0-81.4,0
			c0-0.2,0-0.4,0-0.5C87.1,174.6,114.4,174.6,141.6,174.6z M129,138c0.2-2.5,3.4-1.1,6.1-0.9c-1.6-2.5-3.1-4.4-4.2-6.5
			c-0.9-1.9-3.9-3.1-2.2-6c2.7-0.4,2.3,3.9,5.5,3c-0.1-2.3-2.9-3.9-1.8-6.3c7.3,2.1,10.5,8.4,7.9,16.4c-1.4,4.2-4.2,7.6-7.6,10.4
			c-0.9,0.8-1.9,1.7-3.1,0.7c-1.5-1.3,0.5-1.7,0.8-2.5c0.8-2.5,2.5-4.2,4.7-6.1C132.5,139.4,128.8,141.3,129,138z M126.9,136.4
			c-0.5,0.1-1.6-1.2-1.7-2c-0.3-1.7,1.3-1.6,2.3-2c1.1,0,2.1,0.6,2.2,1.5C129.7,135.4,128.2,136.2,126.9,136.4z M138.2,118.2
			c-4.4-1.6-9.3-0.3-13.5-2.5c-0.4-0.2-0.5-1-1.6-3.4c4.6,3,8,2.5,11.1,1.1c4-1.8,2.5,3.7,5.1,3.6
			C138.9,117.4,138.4,118.3,138.2,118.2z M125.3,127.2c0.7,0.1,1.2,1.4,1.8,2.1c-0.5,1.7-1.8,2.2-3.1,2.4c-1.3,0.2-1.8-1-1.4-1.9
			C123.1,128.7,123.7,127,125.3,127.2z M142.7,253.8c-0.1,0.1-0.2,0.1-0.4,0.2c-19.2-7.5-38.2-15.2-56.4-24.9
			C69,220,59.4,206.4,58,187.1c-0.2-2.3,0.1-4.7,0.2-7.1c0.1-2.6,1.2-3.8,4.1-3.8c26.8,0.2,53.6,0.3,80.4,0.5
			c2.2,1.3,1.4,3.5,1.4,5.4c0.1,22.1,0.1,44.2,0,66.3C144.1,250.2,144.9,252.5,142.7,253.8z M152.5,99.4c-1,0.5-2.8,0.8-2.2,2.1
			c2.2,4.7-2.3,3.6-3.9,4.3c-2.1,1-4.2,0.1-4.8-2.6c0-0.1,0.9-0.5,1.4-0.7l0,0c6.5-3.4,2.2-9.3,2.8-14.1c-0.7,3.2-1.4,6.3-2.5,11
			c-0.3-2.4-0.5-3.4-0.6-4.3c-0.2,4.5-2.9,4-5.9,2.9c-2.1,2-4.2,1.4-6.2,0c0.2,1.2-0.2,1.9-1.6,1.7c-10.6-1.2-20.9,0.5-31.4,1.9
			c-0.9,0.6-2.4,0.8-2.2-0.4c0.7-5.3,2.6-10.2,6.7-13.9c0.8-2.8,1.5-5.6,5.2-5.8c1-2.1,2.7-4.2,3-6.4c1-7.8,6.3-7.9,12.1-7.5
			c4.4,0.3,8.7,0.8,12.8,2.2c9,3.1,9.1,3.2,8.9,13.6c1.9-2.2,0.6-4.9,1.1-7.3c0.4-2,1.2-2.3,2.5-0.6c11.2-7.1,23.4-9.9,36.6-8.9
			c1.6,0.1,2.6,0.6,3.1,2.1c2.5,8.3,5.1,16.5,7.6,24.8c0.3,0.8-0.2,1.5-0.9,1.9c0.9,1.6,1.7,3.2-1.3,3.5c0.6,0.5,1.6,1.2,1.6,1.6
			c-0.3,1.5-1.5,0.8-2.3,0.6c-8.4-2-16.9-0.8-25.4-1.2c-2.8-0.1-5.4,3.2-8.2,0.2C156.8,98.7,154.3,101.5,152.5,99.4z M161.7,216.7
			c-0.3,0.1-0.9-0.6-1.4-0.9l0,0l0,0l0,0c-1.4-0.3-2.1-1.4-1.8-2.6c0.9-3.4,0.2-6-2.9-8.1c-2.3-1.5-2-4.1-1.7-6.4
			c-0.7-1.6,0.8-2.6,1.1-3.9c-0.3-1.9,0.2-3,2.1-3.9c1.7-0.8,1.9,0.2,2.5,1.1c2.3-0.9,2.5,2.4,4.4,2.2c1.8-1.8-2.9-4.3,0.2-5.4
			c2.5-0.9,4.3,1.6,5.7,3.5C175.2,199.5,170.3,214,161.7,216.7z M155.2,180.5c4.4,1.6,4.4,1.6,13.3-0.5c0.4,5-3,4.9-6.2,5
			C159.1,185,155.5,185.5,155.2,180.5z M192.8,234.1c-0.8,0.6-1.4,2.3-2.8,1c-1.5-1.3,0.3-2.2,0.5-3.3c0.6-2.6,3.3-3.3,4.4-5.8
			c-2.3-0.6-5.3,0.9-6.5-2.2l0,0l0,0c-0.1-0.5-0.1-1.1-0.2-1.6c-1.6,0.1-3-0.7-2.8-2.1c0.3-1.9,2.1-2.4,4-1.9
			c-0.6-1-1.7-1.1-2.8-1.2l0,0c-1.2-0.3-2.5,1.7-3.7,0.1c-0.9-1.2,0.4-2.1,0.6-3.2c2-9.7,2-9.7,12-9.9c-2.1-1.5-4.5-1-6.8-0.9
			c-2.5,0.1-4.2-0.5-4.7-3.7c3.3,0.8,6.4,2.1,9.8,0.1c2.1-1.2,3.2,3,5.8,3c-0.3,1.8-1.6,1.9-3.1,1.8c1.6,2,3.6,3.9,2.7,6.9
			C202.7,220.6,200.7,227.9,192.8,234.1z M221.5,215.7c-1,0.7-1.8,1.7-2.9,0.3c-1.1-1.3,0.2-1.7,0.7-2.7c1.1-2.2,2.8-3.7,4.5-5.5
			c-1.6-1.9-6.4,1.5-5.7-3.5c0-0.4-0.1-0.9-0.1-1.3c-0.4,0.2-0.9,0.5-1.3,0.7c-1.4,5.2-3.6,0.2-4.5-0.1c-2.3-0.8-3-3,0.1-4.4l0,0
			c-1-3.1-0.1-4.7,3.3-4.6c-3.2-3.1-1.2-6.7-1-10.1c-0.6-1.2-1.9-2.1-1.3-4.2c3.2,1,6.1,2.4,9.8,0.3c3.4-2,2.5,3.4,4.5,4.6
			c-2.1,2.4,1.8,4.5,0.2,6.9C231.8,201.1,229.4,210.2,221.5,215.7z M234.6,170.3c-1,2.1-3,1.5-4.7,1.5c-23.1,0-46.1,0-69.2,0
			c-1.7,0-3.7,0.5-4.6-1.7c-0.1-1-0.2-2.1-0.3-3.1c-0.3-0.9-0.9-1.8-0.9-2.7c-0.1-16.8,0-33.6,0-50.4c0-1.6-0.2-3.2,1.7-4
			c24.4,0,48.7,0.1,73.1-0.1c3.8,0,5.1,0.8,5,4.8c-0.3,16.6-0.2,33.3-0.2,49.9C234.6,166.5,234.6,168.4,234.6,170.3z"/>
		<path class="st3" d="M214.3,150.2l-0.1-0.1C214.2,150.2,214.3,150.2,214.3,150.2C214.2,150.3,214.3,150.2,214.3,150.2z"/>
		<path class="st3" d="M188.4,211.2c0,0,0.1,0,0.1-0.1C188.5,211.1,188.5,211.1,188.4,211.2L188.4,211.2z"/>
		<path class="st3" d="M192.3,208.6c0.5-0.7,1-1.2,1.4-1.6c-0.3-0.1-0.7-0.1-1-0.1C192.4,207.5,192.3,208.1,192.3,208.6z"/>
		<path class="st3" d="M217.8,192.5c-1,1-0.7,1.9-0.1,2.8c0.3-0.7,0.9-1.5,1.7-2.8C219.1,191.9,218.6,191.7,217.8,192.5z"/>
		<path class="st3" d="M70.4,124.5C70.4,124.6,70.4,124.6,70.4,124.5C70.5,124.6,70.5,124.5,70.4,124.5
			C70.5,124.6,70.4,124.5,70.4,124.5z"/>
		<path class="st4" d="M223.9,269.7L223.9,269.7c-1.3,0.4-2,1.4-2.5,2.6c2.5,3.9,0.8,6.1-2.8,8.3c-18.4,11-38.7,14.9-59.7,15.9
			c-24.4,1.1-48.4-0.8-71-11c-14.9-6.7-14.8-6.9-8-21.3c0.4-0.9,0.9-1.8,0.9-1.8c41,19.8,82.4,20.6,124.6,5.1
			c1.1-0.4,2.1-1.1,3.1-1.7c-0.9-0.7-1.8-1.5-2.7-2.2c-38.8,14.6-77.4,13.9-115.7-1c3.1-2,4.4-3,4.4-4.1c0-2.4-2-3.3-3.6-4.3
			c-1.7-1-3.6-1.6-5.3-2.6c-29-16-47.7-39.3-51.9-73c-0.5-4.4-1.5-8.6-3.6-12.4c-0.6-1.1-1.1-3-2.8-2.6c-2,0.4-1,2.3-1,3.5
			c0.1,7.5-1.9,14.4-4.9,21.2c-1.2,2.6-2.1,2.8-4.3,1.1c-4.3-3.4-8.8-6.7-14.3-10.9c2.1,8.7,4.3,15.9,7.3,22.8
			c12.5,28.6,33,50.1,59,66.7c2.9,1.8,4.2,3.4,2,6.3c-2.3,3-1.3,4.6,1.5,6.6c7.7,5.4,15.9,9.7,24.9,12.4c24.5,7.3,49.5,8.9,74.8,5.8
			c17.8-2.2,35-6.3,50.3-16.5c4.7-3.1,6.5-6,2.3-10.6c-0.1-0.1-0.1-0.2-0.1-0.3C224.5,271,224.2,270.3,223.9,269.7z M71.8,265.4
			c-9.4-6.6-19.4-12.6-26.6-22c-5-2.4-7.8-7-11.2-10.9c-11-12.7-19.3-26.9-24.7-44.3c3.9,2.9,6.9,4.9,9.7,7.2c2.1,1.7,3.1,1.8,4-1.1
			c1.7-5.2,3.9-10.3,6.4-16.9c5.1,37.1,25.3,62,56.5,79.4c-6.1-0.5-9.5,2.1-10.9,7.6C74.5,266,73.4,266.5,71.8,265.4z"/>
		<path class="st5" d="M275.4,187c-2.4-5.3-3.3-10.9-4.6-16.5c-0.5-2.4,1.9-6.4-0.9-6.7c-3-0.3-3.6,4.1-4.5,6.8
			c-1,2.8-1.6,5.7-1.8,8.7c-0.4,5.6-1.6,11-3.3,16.2c-8.9,26.7-26.8,45.3-51.6,57.7c1.2,0.7,2.4,1.4,3.6,2.2
			c4.9-1.3,8.5-5.1,13.1-7.1c10.4-7.9,19.7-16.8,27.2-27.6c7.9-12.9,13.7-26.5,15.9-42c2.3,5.9,4.6,11.8,7,18
			c0.3,0.1,0.5,0.2,0.8,0.2c3.8-2.8,7.3-5.4,11.7-8.6c-3.8,12.5-8.7,23.2-16,32.7l0,0c-9.6,14.5-21.6,26.7-35.8,36.8
			c-3.6,2.8-7.2,5.5-10.8,8.3c-0.8,1-2.2,1.9-1.4,3.4c0.9,0.3,0.7,1.4,1,2.2c0,0.1,0.1,0.2,0.1,0.3c-0.3-3,2.5-3.3,4.1-4.3
			c15.6-10.1,29.4-22.2,40.8-36.9c11.9-15.3,20.1-32.3,24.7-52.2c-5,3.7-9.5,6.6-13.5,10.1C277.8,191.6,276.9,190.3,275.4,187z"/>
		<path class="st5" d="M223.9,269.7L223.9,269.7c0.3,0.6,0.5,1.2,0.8,1.9c-0.2-0.8,0-1.9-1-2.2C223.8,269.5,223.9,269.6,223.9,269.7
			L223.9,269.7z"/>
		<path class="st5" d="M224.9,271.9c0-0.1-0.1-0.2-0.1-0.3C224.8,271.7,224.8,271.8,224.9,271.9z"/>
		<path class="st6" d="M219.5,48.5c7.9,0.1,15.9,0.2,23.8,0c3.6-0.1,5.2,0.6,5.2,4.8c-0.2,46.4-0.1,92.8-0.1,139.1
			c0,4.8-2.2,9.2-2,14c3.8-8.9,2.8-18.3,2.8-27.6c0-42.1-0.1-84.2,0.1-126.3c0-1.9-0.2-3.2-0.8-4h-32.9
			C216.8,48.9,218.3,48.4,219.5,48.5z"/>
		<path class="st6" d="M248.5,53.3c0-4.2-1.6-4.9-5.2-4.8c-7.9,0.2-15.9,0.1-23.8,0c-1.3,0-2.7,0.5-3.9,0h-0.4
			c1.3,1.2,3.1,0.6,4.7,0.6c7.1,0.1,14.3,0.4,21.4-0.1c5.4-0.4,6.6,1.5,6.6,6.7c-0.2,40.5-0.1,81-0.1,121.5c0,8.7,0.7,17.4-2.2,25.9
			c-0.4,1.1-0.2,2.4,0.8,3.3c-0.1-4.8,2-9.2,2-14C248.4,146,248.3,99.6,248.5,53.3z"/>
		<path d="M44.6,179.1c0.1-39.9,0.1-79.7,0.1-119.6c0-4.7,0-7.3,0.8-8.9c0.2-0.6,0.6-1,1.2-1.2c1.5-0.8,4.1-0.9,8.7-1
			c1.3,0,2.9,0.7,4.2,0H44.2c-0.7,0.9-0.8,2.4-0.8,4.4c0.2,41.7,0.1,83.3,0.1,125c0,5.9-0.7,11.9,0.6,17.8
			C45.2,190.2,44.6,184.6,44.6,179.1z"/>
		<path d="M45.2,188.8c0.1-43.7,0-87.3,0.1-131c0-3.8-0.1-5.9,0.3-7.1c-0.8,1.5-0.8,4.2-0.8,8.9c0,39.9,0.1,79.7-0.1,119.6
			c0,5.5,0.7,11.1-0.4,16.5C46.1,193.6,45.2,191.1,45.2,188.8z"/>
		<path d="M55.4,48.4c-4.6,0.1-7.2,0.1-8.7,1c1.2-0.4,3.3-0.3,7-0.4c2-0.1,4.3,0.9,6-0.6h-0.2C58.3,49.1,56.7,48.4,55.4,48.4z"/>
		<path class="st7" d="M208.7,265.6c7.4-3.8,7.4-3.8,11.2,4.2c0.3,0.5,0.6,1.1,0.9,1.6c0.4-1,1.1-1.7,2.3-2.1c0.1,0,0.2,0,0.3,0
			c-1.5-1.3-0.7-2.4,0.2-3.5c-0.3,0-0.5-0.1-0.6-0.3c-1.9-5.3-4.8-9.3-11.2-8.6c0-0.2,0.1-0.5,0.1-0.7c-1.7-0.4-3.4-0.8-3.4-3.1
			c-7.1,3.4-7.1,3.4-2.1,8.8c0.2,0.2-0.4,1-0.6,1.5C207.8,263.1,208.6,264,208.7,265.6z"/>
		<path class="st7" d="M223.1,269.3c-1.2,0.4-1.9,1.1-2.3,2.1c0.2,0.3,0.4,0.6,0.6,0.9c0.5-1.2,1.2-2.2,2.5-2.6
			c-0.2-0.1-0.3-0.3-0.5-0.4C223.3,269.3,223.3,269.3,223.1,269.3z"/>
		<path class="st7" d="M208.7,265.6c-0.1-1.6-1-2.4-2.9-2.1c0.9,0.7,1.8,1.5,2.7,2.2C208.6,265.7,208.6,265.6,208.7,265.6z"/>
		<path class="st7" d="M223.4,269.3c0.1,0,0.2,0,0.3,0.1c-0.8-1.6,0.7-2.4,1.4-3.4c-0.4-0.1-1.1-0.1-1.5-0.2
			C222.7,266.9,221.9,268,223.4,269.3z"/>
		<path class="st7" d="M212,256.2c0.1-0.3,0.1-0.6,0.2-0.9l0,0c-1.2-0.7-2.4-1.4-3.6-2.2C208.6,255.4,210.3,255.8,212,256.2z"/>
		<path class="st7" d="M223.9,269.7L223.9,269.7c-0.1-0.1-0.1-0.2-0.2-0.3c-0.1,0-0.2,0-0.3-0.1
			C223.6,269.4,223.7,269.6,223.9,269.7z"/>
		<path class="st8" d="M187.8,94.9c2.2,0.1,4.3,0.5,6.4,0.8c0.8-0.4,1.2-1.1,0.9-1.9c-2.5-8.3-5.1-16.5-7.6-24.8
			c-0.5-1.6-1.5-2-3.1-2.1c-13.2-1.1-25.4,1.8-36.6,8.9l0,0c0.3,7.3,0.9,14.6,0.6,21.9c-0.1,2.4,0.8,8.5-5.6,4.9
			c-0.5,0.2-1.4,0.6-1.4,0.7c0.6,2.7,2.7,3.6,4.8,2.6c1.6-0.7,6.1,0.4,3.9-4.3c-0.6-1.3,1.2-1.7,2.2-2.1
			C163.7,93.5,175.8,94.6,187.8,94.9z"/>
		<path class="st9" d="M144.3,83.6c0.2-10.3,0.1-10.5-8.9-13.6c-4.2-1.4-8.5-1.9-12.8-2.2c-5.9-0.4-11.2-0.4-12.1,7.5
			c-0.3,2.2-2,4.3-3,6.4c-1,4.8-4.1,9-4.3,14.4c11.4-1.3,22.8-1.9,33.8,2.1c3,1,5.7,1.5,5.9-2.9C142.7,91.3,143,87.4,144.3,83.6z"/>
		<path class="st10" d="M74.3,120.1c-1.5,2.9,1.5,5,2,7.5c-3.2,0.7-2.8-2.8-5.7-3.1c0,0-0.1,0-0.1,0.1c0.4,5.2,4.4,8.1,6.7,12.3
			c-2.2,0.4-5-1.5-6.4,1c-0.8,1.6,2,1.5,2.4,2.8l0,0l0,0c0.9-0.2,1.9-0.4,3.6-0.8c-2.5,3.1-5.3,5.6-4.4,9.7
			c12.2-7.2,14.2-16.7,6.3-27.8C77.1,121.3,76.1,119.7,74.3,120.1z"/>
		<path class="st11" d="M164.3,188.8c-3.1,1.1,1.5,3.6-0.2,5.4c-1.9,0.2-2.1-3.1-4.4-2.2c0.2,5,4.7,7.7,6.8,12.4
			c-1.7,0-4-1.1-5.2-0.6c-0.2,0.2-0.4,0.4-0.6,0.6c-0.1,0.2-0.2,0.5-0.2,0.8c-0.3,3.2,3.5,1.2,5.6,2.2c-2.1,2.9-5.3,4.7-5.7,8.4l0,0
			c0.5,0.3,1.1,1,1.4,0.9c8.6-2.8,13.5-17.3,8.2-24.4C168.5,190.4,166.8,187.9,164.3,188.8z"/>
		<path class="st12" d="M193.7,207c-0.4,0.4-0.9,0.9-1.4,1.6c0.2,1.8,2.1,3.1,1.5,4.9c-2.5,0.7-2.5-3-5.3-2.4c0,0-0.1,0-0.1,0.1
			c0.7,4.7,4.4,7.7,7.4,12.1c-3.1-0.8-5.5-1.5-7.4,0.5l0,0c1.2,3.1,4.2,1.7,6.5,2.2c-1.1,2.5-3.8,3.2-4.4,5.8c-0.3,1.1-2,2-0.5,3.3
			c1.4,1.3,2-0.4,2.8-1c7.9-6.2,9.9-13.5,6.4-23C197.6,209.5,196.1,207.6,193.7,207z"/>
		<path class="st13" d="M130.3,146.3c-0.2,0.8-2.3,1.2-0.8,2.5c1.1,1,2.1,0.1,3.1-0.7c3.4-2.8,6.2-6.2,7.6-10.4
			c2.6-8-0.6-14.3-7.9-16.4c-1.1,2.4,1.7,4.1,1.8,6.3c-3.2,0.8-2.8-3.4-5.5-3c-1.6,2.9,1.3,4.1,2.2,6c1.1,2.1,2.6,4,4.2,6.5
			c-2.7-0.2-5.9-1.6-6.1,0.9c-0.2,3.3,3.5,1.4,6.1,2.2C132.8,142.1,131.1,143.8,130.3,146.3z"/>
		<path class="st13" d="M104.8,146.3c-0.4,0.1-0.8,0.3-1.1,0.2c-1.7-0.4-2-4.1-3.8-2.7c-2.3,1.7,0.7,3.3,1.5,4.8
			c0.7,1.4,1.5,2.8,2.3,4.1c0.9,0.7,2.5,1.3,2,2.6c-0.8,1.9-1.8-0.1-2.8-0.2c-1.3-0.2-2.6,0.6-2.9,1.6c-0.3,1.3,1.3,1.6,2.2,2.1
			c0.9,0.5,2.3-1.2,3,0.6c-1.1,2-3.6,3-3.7,5.8c0,0.6-2.2,1-0.8,2.5c0.9,0.9,1.8,0.2,2.6-0.4c7-5.7,13.8-16.7,3.9-26.5
			c-1.3-0.4-2.5-0.9-3.8-1.3C102.2,142.3,105.2,143.9,104.8,146.3z"/>
		<path class="st14" d="M221.6,188.1c-1.2,2.8,1.8,4.5,1.3,6.8c-1.8,0.6-2.5-1.4-3.4-2.4c-0.9,1.2-1.5,2.1-1.7,2.8
			c0.7,1,1.9,2,2.4,3c0.9,2,2.6,3.7,4.6,6.4c-2.8-0.4-4.8-1.8-6.7-0.4c-0.7,5,4.1,1.6,5.7,3.5c-1.7,1.8-3.5,3.3-4.5,5.5
			c-0.5,1-1.8,1.4-0.7,2.7c1.2,1.4,2,0.4,2.9-0.3c7.9-5.5,10.3-14.5,6.3-23.6C226.1,190.3,224.1,188.8,221.6,188.1z"/>
		<path class="st15" d="M219.6,199.7c-1.9-2.3-2.3-3.2-1.8-4.5c-0.6-0.9-0.9-1.8,0.1-2.8c0.7-0.7,1.2-0.5,1.7,0
			c0.2-0.3,0.4-0.6,0.6-0.9c1-1.5,0.1-4.5,3.4-3.8c2.1,0.5,4.1,1.6,4.3,4.2c1.5-2.3-2.4-4.5-0.2-6.9c-4.3-0.3-8.6-1.4-13-0.7
			c-0.2,3.4-2.2,7,1,10.1c1.1,3.2-0.8,4.1-3.3,4.6l0,0c-3,1.5-2.4,3.6-0.1,4.4c0.9,0.3,3.2,5.3,4.5,0.1c-1.5-0.7-3.1-1.3-1.8-3.3
			c0.7-1,1.8-1.6,3.1-0.7c1.4,1,1.5,2.2,0.1,3.3c0,0.4,0.1,0.9,0.1,1.3C218.7,202.8,222,202.7,219.6,199.7z"/>
		<path class="st15" d="M223.5,187.8c-3.3-0.7-2.4,2.2-3.4,3.8c-0.2,0.3-0.4,0.6-0.6,0.9c0.8,1,1.6,3,3.4,2.4
			c0.5-2.3-2.6-3.9-1.3-6.8c2.5,0.7,4.5,2.2,6.3,3.9C227.6,189.4,225.7,188.3,223.5,187.8z"/>
		<path class="st15" d="M224.8,204.7c-2-2.7-3.7-4.4-4.6-6.4c-0.5-1-1.7-2-2.4-3c-0.5,1.3,0,2.2,1.8,4.5c2.4,3-0.9,3.1-1.5,4.5
			C220,202.9,222,204.3,224.8,204.7z"/>
		<path class="st16" d="M65.6,127.9L65.6,127.9L65.6,127.9L65.6,127.9z"/>
		<path class="st16" d="M64,133.6c3,2.3,2.2,10,9.1,7.1l0,0c-2.7-0.5-5.4-2-1.9-4.2c3.6-2.2,1.1-3.5,0.4-5.2c-1-2.2-3.9-5.7-1.3-6.7
			h0.1c0,0,0,0,0-0.1h0.1c2.9-1.2,1.5-4.2,3.4-5c2.2-1,3.8,0.1,4.7,2.2c2.8-1.1,1.4-2.2,0-3.3c-3-1.7-6.2-1.9-9.5-1.3
			c-1.2,3.1-0.1,7.2-4.1,9.1c0,0,0.4,1,0.6,1.6c0,0,0,0,0.1,0l0,0l0,0l0,0l0,0c1.1-0.8,2.2-1.5,3.1,0.4c0.5,1.1,0.5,1.9-0.5,2.5
			c-0.9,0.5-1.9,1.7-3.1,0.6c-1.6-1.3,0.1-2.3,0.4-3.5l0,0l0,0C61.5,128.8,62.4,132.3,64,133.6z M69.7,132.3
			c1.4-0.3,2.4,0.7,2.4,1.9c-0.1,1-1.1,2-1.3,2.2c-2.7,0-3.5-1.2-3.6-2.1C67.1,132.9,68.5,132.5,69.7,132.3z"/>
		<path class="st16" d="M65.7,127.9L65.7,127.9L65.7,127.9C65.6,127.9,65.6,127.9,65.7,127.9C65.6,127.9,65.7,127.9,65.7,127.9z"/>
		<path class="st16" d="M65.7,127.9C65.6,127.9,65.6,127.9,65.7,127.9C65.6,127.9,65.6,127.9,65.7,127.9
			C65.6,127.9,65.6,127.9,65.7,127.9z"/>
		<path class="st16" d="M73.9,119.5c-1.9,0.8-0.5,3.8-3.4,5c3,0.2,2.6,3.8,5.7,3.1c-0.5-2.5-3.4-4.6-2-7.5c1.8-0.4,2.8,1.2,4.3,1.7
			C77.7,119.6,76.1,118.6,73.9,119.5z"/>
		<path class="st16" d="M70.7,137.8c1.3-2.5,4.2-0.6,6.4-1c-2.3-4.1-6.4-7.1-6.7-12.3h-0.1c-2.6,0.9,0.3,4.4,1.3,6.7
			c0.8,1.7,3.3,3-0.4,5.2c-3.5,2.2-0.8,3.7,1.9,4.2C72.7,139.4,69.9,139.4,70.7,137.8z"/>
		<path class="st17" d="M158.6,100.4c3.9-1,7.7-2.7,11.9-2.2c4.2,0,8.5,0,12.7,0c3.2,0.3,6.4,0.7,9.7,1l0,0c2.9-0.2,2.1-1.8,1.3-3.5
			c-1.1,1.1-2.5,1.3-3.8,1.1c-12.8-2-25.3,0.3-37.8,2.6C154.3,101.5,156.8,98.7,158.6,100.4z"/>
		<path class="st17" d="M190.4,96.8c1.4,0.2,2.8,0,3.8-1.1c-2.1-0.3-4.3-0.8-6.4-0.8c-12-0.3-24-1.3-35.2,4.5
			C165.1,97.1,177.6,94.7,190.4,96.8z"/>
		<path class="st18" d="M105.7,97.5c-3.8,0.2-4.5-1.7-3.7-4.8c1.1-4,2.2-8,5.4-11c-3.7,0.2-4.4,3-5.2,5.8l0,0
			c-0.6,4.3-3.2,7.7-4.6,11.7c11-0.2,22-2.5,33.1-1.1l0,0c2.1,1.4,4.1,2,6.2,0C126.5,97,116.1,96.9,105.7,97.5z"/>
		<path class="st18" d="M103.1,96c0.2-5.4,3.3-9.6,4.3-14.4c-3.2,3-4.3,7-5.4,11c-0.8,3.1-0.2,5,3.7,4.8c10.4-0.6,20.8-0.5,31.2,0.7
			C125.9,94.1,114.5,94.8,103.1,96z"/>
		<path class="st19" d="M193.1,221.1c-2.3-1.4-2.8-3.9-4.3-5.7c-1.1-1.4-2.1-3.2-0.4-4.2l0,0h0.1c0.4-0.2,0.8-0.4,1.4-0.5
			c0.4-0.1,0.8-0.1,1.1-0.4c0.5-0.6,0.9-1.1,1.3-1.6c-0.1-0.5,0-1.1,0.4-1.7c0.4,0,0.7,0.1,1,0.1c2-1.8,3-0.5,5.5,4.1
			c1-3-1.1-4.8-2.7-6.9c-0.3-0.3-0.6-0.4-1-0.3c-10,0.3-10,0.3-12,9.9c4.2-2.1,3.7,0.4,3.1,3.1c1.1,0.1,2.1,0.2,2.8,1.2
			c1.3,1.8,0.1,2.9-1.2,3.9c0.1,0.5,0.1,1.1,0.2,1.6l0,0C189,221.4,191,221.2,193.1,221.1z"/>
		<path class="st19" d="M195.8,223.3c-3-4.4-6.7-7.5-7.4-12.1c-1.7,1-0.7,2.8,0.4,4.2c1.4,1.8,2,4.3,4.3,5.7
			c-2.1,0.1-4.1,0.2-4.7,2.7C190.4,221.8,192.7,222.5,195.8,223.3z"/>
		<path class="st19" d="M190,210.6c-0.6,0.1-1.1,0.3-1.4,0.5c2.8-0.7,2.8,3,5.3,2.4c0.6-1.8-1.4-3.1-1.5-4.9c-0.4,0.5-0.8,1-1.3,1.6
			C190.8,210.5,190.4,210.5,190,210.6z"/>
		<path class="st19" d="M193.7,207c2.3,0.5,3.8,2.4,5.5,4.1C196.7,206.5,195.7,205.3,193.7,207z"/>
		<path class="st20" d="M159.4,213.6c1.2-2.4,5.2-4.7,0.2-7.3c-0.3-0.2-0.3-0.9,0-1.1c0.4-0.2,0.7-0.5,1-0.7
			c0.2-0.3,0.4-0.5,0.6-0.6c2.7-3.1-1.6-5.7-2.3-8.5c-0.3-1.2-0.3-2.3,0.7-3.2c-0.6-0.9-0.8-1.9-2.5-1.1c-1.9,0.9-2.5,2-2.1,3.9
			c2-1.3,3.2,0.1,3.2,1.6c-0.1,2.4-2.1,2.8-4.2,2.3c-0.4,2.4-0.7,4.9,1.7,6.4c3.1,2,3.8,4.6,2.9,8.1c-0.3,1.2,0.3,2.3,1.8,2.6
			C159,215.5,158.9,214.6,159.4,213.6z M158.8,203.4c-1.5,0-2.3-1.1-2.2-2.2c0.1-1.2,1.3-1.9,2.5-1.9c1.1,0,1.9,0.8,1.9,1.8
			C161.1,202.6,159.9,203,158.8,203.4z"/>
		<path class="st20" d="M158.9,195.3c0.7,2.8,5,5.4,2.3,8.5c1.2-0.5,3.4,0.6,5.2,0.6c-2.1-4.7-6.6-7.4-6.8-12.4
			C158.6,193,158.6,194.1,158.9,195.3z"/>
		<path class="st20" d="M160.4,205.2c0-0.3,0.1-0.6,0.2-0.8c-0.3,0.2-0.6,0.5-1,0.7c-0.3,0.2-0.3,0.9,0,1.1c5,2.6,1,4.9-0.2,7.3
			c-0.5,1-0.4,1.9,0.9,2.2l0,0c0.4-3.7,3.6-5.5,5.7-8.4C163.9,206.4,160.1,208.4,160.4,205.2z"/>
		<path class="st20" d="M160.3,215.8L160.3,215.8L160.3,215.8z"/>
		<path class="st16" d="M95.3,150.7c0.4,0.3,0.8,0.6,1.1,0.9c2.3-0.9,4.6-1.5,4.5,2.3c1.1,0.1,2.1,0,2.7-1.1c-3.1-0.8-4.1-3.4-4.9-6
			c-0.6-1.8-1.2-4.2,2.2-3.9c1,0.1,1.1,0,1.3-1c0.8-4.6,2.9-2.9,4.9-0.9c0.8-1.2,1.5-2.4,2.3-3.6c-4.2-1-8.5-1.9-12.9-1.2
			c-2.1,3.5-0.8,6.8,0.9,10C98.7,148.5,97,149.6,95.3,150.7z"/>
		<path class="st16" d="M102.2,141.8c-0.2,1-0.3,1.1-1.3,1c-3.4-0.3-2.8,2.1-2.2,3.9c0.8,2.6,1.8,5.2,4.9,6
			c-0.8-1.4-1.6-2.7-2.3-4.1c-0.8-1.6-3.8-3.1-1.5-4.8c1.8-1.4,2.1,2.3,3.8,2.7c0.3,0.1,0.7-0.1,1.1-0.2c0.4-2.3-2.6-3.9-1.4-6.7
			c1.3,0.4,2.5,0.9,3.8,1.3C105.1,138.9,103,137.2,102.2,141.8z"/>
		<path d="M141.3,175.1c0.1-0.2,0.2-0.4,0.3-0.5c-27.2,0-54.4,0-81.7,0c0,0.2,0,0.4,0,0.5C87.1,175.1,114.2,175.1,141.3,175.1z"/>
		<path class="st21" d="M147.8,97.5c0.6-5.6-1.5-10.9-1.2-16.4c0.1-1.9-0.6-4,1.4-5.4l0,0c-1.3-1.7-2.2-1.4-2.5,0.6
			c-0.5,2.4,0.8,5.1-1.1,7.3c0.8,4,0.1,7.9-1.5,11.6c0.1,0.9,0.2,1.8,0.6,4.3c1.1-4.7,1.8-7.8,2.5-11c-0.7,4.8,3.7,10.7-2.8,14.1
			l0,0C146.8,102.9,147.4,100.6,147.8,97.5z"/>
		<path class="st21" d="M148.6,97.6c0.3-7.3-0.3-14.6-0.6-21.9c-2,1.4-1.3,3.5-1.4,5.4c-0.3,5.5,1.9,10.8,1.2,16.4
			c-0.4,3.1-1,5.4-4.8,5.1C149.4,106.1,148.5,100,148.6,97.6z"/>
		<path class="st21" d="M144.3,83.6c-1.3,3.8-1.6,7.7-1.5,11.6C144.4,91.5,145.1,87.7,144.3,83.6z"/>
		<path d="M230.9,171.2c-23.7,0-47.4,0-71.1,0c-1.3,0-2.8,0.7-3.7-1c0.9,2.2,2.9,1.7,4.6,1.7c23.1,0,46.1,0,69.2,0
			c1.7,0,3.7,0.6,4.7-1.5C233.7,171.8,232.2,171.2,230.9,171.2z"/>
		<path d="M227.8,170.7c-4-0.4-8.1,0-12.2-0.1c-2,0-4,0-5.9,0c-5.4,0-10.8-0.1-16.2-0.1c-10.6,0.4-21.3-0.1-31.9,0.2
			c-1.2,0-2.2-0.1-2.9-0.5c-0.8,0-1.7,0-2.5,0c0.8,1.7,2.4,1,3.7,1c23.7,0,47.4,0,71.1,0c1.3,0,2.8,0.6,3.8-0.9c-1,0-1.9,0-2.9,0.1
			C230.7,170.8,229.4,170.9,227.8,170.7z"/>
		<path d="M193.5,170.5c-11.6-0.1-23.2-0.2-34.8-0.3c0.8,0.4,1.7,0.5,2.9,0.5C172.2,170.4,182.8,170.9,193.5,170.5z"/>
		<path d="M227.8,170.7c1.7,0.2,3,0,4-0.4c-5.4,0.1-10.8,0.2-16.2,0.3C219.7,170.7,223.7,170.3,227.8,170.7z"/>
		<path d="M144.1,182c0-1.8,0.8-4-1.4-5.4c1.3,1.1,0.8,2.6,0.8,3.9c0,23.1,0,46.2,0,69.3c0,1.3,0.8,3-0.8,3.9
			c2.2-1.3,1.4-3.6,1.4-5.5C144.2,226.2,144.2,204.1,144.1,182z"/>
		<path d="M143.5,249.9c0.1-23.1,0.1-46.2,0-69.3c0-1.3,0.4-2.8-0.8-3.9c0,15.9,0.2,31.8,0,47.6c-0.1,9.9,0.7,19.8-0.4,29.7
			c0.1-0.1,0.3-0.1,0.4-0.2C144.2,252.9,143.5,251.2,143.5,249.9z"/>
		<path d="M155.8,160.7c-0.1-0.4-0.2-0.9-0.3-1.3c-0.1-15.1,0-30.1,0-45.2c0-1.4-0.9-3.2,1.1-4.2c-1.9,0.8-1.7,2.4-1.7,4
			c0,16.8,0,33.6,0,50.4c0,0.9,0.6,1.8,0.9,2.7C155.5,164.9,155,162.7,155.8,160.7z"/>
		<path d="M155.5,114.2c0,15.1-0.1,30.1,0,45.2c0.1,0.4,0.2,0.8,0.3,1.3c0.1-0.3,0.2-0.5,0.4-0.8c0-16.6-0.6-33.3,0.3-49.9
			C154.6,111,155.5,112.8,155.5,114.2z"/>
		<path d="M155.8,160.7c-0.8,2.1-0.4,4.2,0,6.3c0.1-1.4,0.2-2.8,0.2-4.2C156,162.1,156,161.4,155.8,160.7z"/>
		<path d="M156.1,162.8c0.1-1,0.1-1.9,0.2-2.9c-0.2,0.3-0.3,0.5-0.4,0.8C156,161.4,156,162.1,156.1,162.8z"/>
		<path class="st22" d="M97.5,99.3c-1.4,0.9-1.3,1.7,0.3,2.5c10.4-1.3,20.8-3,31.4-1.9c1.4,0.2,1.7-0.5,1.6-1.7
			c-10.6,0.4-21.3,1-31.9,2C98.3,99.9,97.8,99.6,97.5,99.3z"/>
		<path class="st22" d="M97.6,99.2L97.6,99.2c0.2,0.4,0.6,0.7,1.2,1c10.6-1,21.2-1.6,31.9-2l0,0C119.6,96.7,108.7,99,97.6,99.2z"/>
		<path class="st23" d="M183.1,99.1c-1.4,0-2.8,0-4.2,0c-1.3,0.1-2.5,0.1-3.8,0c-1.3,0-2.7,0-4,0c-4.3-0.8-8.2,1.9-12.4,1.3l0,0
			c2.8,2.9,5.4-0.3,8.2-0.2c8.5,0.3,17-0.9,25.4,1.2c0.8,0.2,2.1,0.9,2.3-0.6c0.1-0.4-1-1.1-1.6-1.6l0,0
			C189.7,101,186.4,98.7,183.1,99.1z"/>
		<path class="st23" d="M171,99.1c1.3,0,2.7,0,4,0c-1.5-0.2-3-0.5-4.5-1c-4.2-0.5-8,1.2-11.9,2.2l0,0C162.9,101,166.8,98.3,171,99.1
			z"/>
		<path class="st23" d="M183.3,98.2c-1.5,0.5-2.9,0.8-4.4,1c1.4,0,2.8,0,4.2,0c3.3-0.5,6.6,1.8,9.8,0l0,0l0,0
			C189.7,98.8,186.5,98.5,183.3,98.2z"/>
		<path class="st24" d="M134.2,113.4c-3.2,1.4-6.5,1.9-11.1-1.1c1.1,2.3,1.2,3.1,1.6,3.4c4.2,2.2,9.1,0.9,13.5,2.5
			c0.2,0.1,0.8-0.8,1.1-1.2C136.7,117.2,138.2,111.6,134.2,113.4z"/>
		<path class="st25" d="M162.4,184.9c3.2,0,6.6,0.1,6.2-5c-9,2.1-9,2.1-13.3,0.5C155.5,185.5,159.1,185,162.4,184.9z"/>
		<path class="st26" d="M78.6,118.5c7.2-0.5,0-2.8,0.4-4.3c1.1-3.6-1.4-0.7-1.8-0.6c-3.7,0.5-7.3,2.1-11.1-0.7
			c0.1,2.7,0.9,3.9,2.9,4.3C72.6,115.1,75.8,114.8,78.6,118.5z"/>
		<path class="st26" d="M78.6,118.5c-2.7-3.7-6-3.4-9.5-1.3C72.4,116.6,75.6,116.8,78.6,118.5z"/>
		<path class="st27" d="M227.6,185.2c-2-1.2-1.1-6.6-4.5-4.6c-3.7,2.1-6.6,0.7-9.8-0.3c-0.5,2,0.7,3,1.3,4.2
			C219.1,181.1,223.4,183.3,227.6,185.2z"/>
		<path class="st27" d="M227.6,185.2c-4.3-1.9-8.5-4.1-13-0.7C219,183.8,223.3,184.8,227.6,185.2z"/>
		<path class="st28" d="M196.6,204.2c1.5,0.2,2.8,0,3.1-1.8c-2.5,0-3.7-4.2-5.8-3c-3.5,1.9-6.5,0.7-9.8-0.1c0.5,3.2,2.2,3.8,4.7,3.7
			c2.3-0.1,4.7-0.6,6.8,0.9C196,203.7,196.4,203.8,196.6,204.2z"/>
		<path class="st28" d="M196.6,204.2c-0.2-0.5-0.5-0.6-1-0.3C196,203.8,196.3,203.9,196.6,204.2z"/>
		<path class="st29" d="M109.5,137.2c0.3-3.6-3-5.7-4.9-4.7c-3.5,1.9-6.2,0.3-9.2-0.4c-0.8,1.9,0.8,2.7,1.2,3.9
			C101.1,134.3,105.5,133.7,109.5,137.2z"/>
		<path class="st29" d="M109.5,137.2c-4-3.5-8.4-2.9-12.9-1.2C101,135.3,105.2,136.2,109.5,137.2z"/>
		<path class="st30" d="M96.1,100.2c0-0.8,0.6-1.1,1.4-1C97,98.5,97,97.7,97.6,97c2.3-2.8,2.5-6.6,4.8-9.4l0,0
			c-4.1,3.7-6,8.6-6.7,13.9c-0.2,1.2,1.3,1,2.2,0.4C96.6,101.9,96,101.3,96.1,100.2z"/>
		<path class="st30" d="M97.5,96.9c-0.6,0.8-0.6,1.6-0.1,2.2c0.1,0,0.1,0,0.2,0c1.4-3.9,4.1-7.4,4.6-11.7l0,0l0,0
			C100,90.3,99.8,94.1,97.5,96.9z"/>
		<path class="st30" d="M97.5,99.3C97.5,99.2,97.4,99.2,97.5,99.3c-0.8-0.2-1.4,0.1-1.5,0.9c-0.1,1.1,0.5,1.7,1.7,1.5
			C96.2,101,96.1,100.2,97.5,99.3z"/>
		<path class="st30" d="M97.5,99.3L97.5,99.3C97.5,99.2,97.5,99.2,97.5,99.3C97.4,99.2,97.5,99.2,97.5,99.3z"/>
		<path class="st31" d="M183.6,213.9c-0.1,1.1-1.5,2-0.6,3.2c1.2,1.6,2.4-0.4,3.7-0.1l0,0l0,0C185.8,215.8,184.8,214.7,183.6,213.9z
			"/>
		<path class="st31" d="M183.6,213.9c1.3,0.8,2.2,1.9,3.1,3.1l0,0C187.3,214.3,187.8,211.7,183.6,213.9z"/>
		<path class="st32" d="M95.3,150.7c0.5-1.7,3.4-2.3,2.2-4.7c-2.4-1.1-3,1.1-3.7,2.3C93.1,149.5,94,150.4,95.3,150.7z"/>
		<path class="st32" d="M95.3,150.7c1.8-1.1,3.5-2.2,2.2-4.7C98.7,148.4,95.8,149,95.3,150.7z"/>
		<path class="st33" d="M124,131.7c1.3-0.2,2.6-0.8,3.1-2.4c-0.6-0.7-1.1-2-1.8-2.1c-1.6-0.2-2.1,1.5-2.7,2.6
			C122.2,130.7,122.7,131.9,124,131.7z"/>
		<path class="st34" d="M155,194.8c-0.3,1.3-1.7,2.3-1.1,3.9C155,197.6,157.5,196.9,155,194.8z"/>
		<path class="st34" d="M158.1,196.4c0.1-1.5-1.2-2.9-3.2-1.6c2.5,2.1,0,2.8-1.1,3.9C156,199.2,158,198.9,158.1,196.4z"/>
		<path class="st35" d="M96.4,151.6c-0.6,5,2.2,3.1,4.5,2.3C99.9,152.2,97.8,152.6,96.4,151.6z"/>
		<path class="st35" d="M96.4,151.6c1.3,1.1,3.5,0.6,4.5,2.3C101,150,98.8,150.7,96.4,151.6z"/>
		<path class="st36" d="M127.5,132.3c-1.1,0.4-2.6,0.4-2.3,2c0.2,0.8,1.2,2.1,1.7,2c1.3-0.2,2.8-0.9,2.8-2.5
			C129.7,132.9,128.7,132.3,127.5,132.3z"/>
		<path class="st33" d="M212.3,199.2c1-1.6,2.1-3.1,3.3-4.6C212.2,194.4,211.3,196.1,212.3,199.2z"/>
		<path class="st33" d="M215.6,194.6c-1.2,1.4-2.4,2.9-3.3,4.6C214.8,198.7,216.7,197.8,215.6,194.6z"/>
		<path class="st37" d="M216.9,202.3c-0.5,0.3-0.4,0.9-0.2,1.4c0.4-0.2,0.9-0.5,1.3-0.7C217.9,202.4,217.5,201.9,216.9,202.3z"/>
		<path class="st37" d="M218,199.6c-1.2-0.9-2.4-0.3-3.1,0.7c-1.3,2,0.4,2.7,1.8,3.3c-0.2-0.5-0.3-1.1,0.2-1.4
			c0.6-0.3,0.9,0.1,1.1,0.7C219.5,201.8,219.4,200.6,218,199.6z"/>
		<path class="st38" d="M185.5,220.1c-0.2,1.3,1.2,2.2,2.8,2.1c0.3-1.3,0.5-2.7,1.2-3.9C187.6,217.7,185.8,218.2,185.5,220.1z"/>
		<path class="st38" d="M189.5,218.2c-0.7,1.2-0.9,2.6-1.2,3.9C189.5,221.1,190.8,220.1,189.5,218.2z"/>
		<path class="st39" d="M219.5,271.2c-1.8-5.4-5.2-7.6-10.7-5.6c0,0.2,0,0.4,0,0.6c-1.9,3.2-5.3,3.9-8.4,5.2
			c-13.3,5.2-27.3,7.2-41.3,8c-18.9,1-37.7-0.5-56-5.8c-5.8-1.7-11.2-4.2-16.3-7.2c-3.3-1.9-5.1-1.8-6.9,1.9c-4,8.1-4,9,4,13.4
			c13.1,7.2,27.5,10.3,42.1,12.2c22.8,2.9,45.5,1.6,67.8-4.4c7.7-2.1,14.9-5.5,21.9-9.2c3-1.6,5.2-3.7,4.9-7.4
			c0-0.2,0.1-0.4,0.1-0.6C220.1,272,219.6,271.7,219.5,271.2z M111.1,288.3c-3.2,0.7-1.1-4-3-5.4c-2.2,0.6-2.7,5.3-5.1,3.7
			c-3.2-2.1-0.9-6-1.8-9.3c4.2,0.6,1.6,3.9,3.3,5.1c2.2-0.4,2.1-4.3,5-3.4c2.7,0.8,0.8,3.5,2,5.3c2.3-0.9,2-4,5.1-3.9
			C115.9,284,114.2,287.6,111.1,288.3z M119.3,291.1c-0.9-1.4-1.3-1.8-1.3-2.1c0.3-2.6,0.4-5.4,2.3-7.5c0.1-0.1,1.3,0.4,1.3,0.7
			C121.6,285,121.1,287.7,119.3,291.1z M130.2,287.1c-0.1,1.5,0.5,3.7-2.3,4.6c-2.1-2.7,2.4-7.6-2.6-9.6c3,0.3,5.9,0.7,10.4,1.2
			C133.1,285.2,130.5,284.2,130.2,287.1z M146.2,293.6c-4-6.3-5.1-6.4-8-1.4c-1.6-3.1-1.6-3.1-0.3-9.1c2.5,5.4,5.4,5.8,8.4,0
			C147.3,287.1,146.9,290,146.2,293.6z M162.6,289.9c0.3,0.9,0.6,2.1-0.7,2.4c-1.8,0.3-1.6-1.2-1.8-2.3c-0.3-2.5,0.1-5.4-3.8-5.8
			c2.9-0.4,5.8-0.7,8.8-1.1C162.1,284.7,161.7,286.9,162.6,289.9z M179.5,289.5c0,1.4-1.6,1.7-2.3,0.2s-1.3-2.8-3.3-2.5
			c-3.2,0.1-0.9,3.3-2.8,4.7c-2.8-2.4-3.5-6.6-2.1-8.5c1.9-2.4,1.5,2.8,3.6,2.8c0.7-0.3,1.4-0.9,2.1-1c2.3-0.1-0.2-5.2,2.9-3.2
			C179.7,283.3,179.5,286.9,179.5,289.5z M188.9,286.5c0.1,0.2-0.4,1.1-0.8,1.3c-0.3,0.2-1.4-0.1-1.4-0.3c-0.9-3.4-4.3-4.2-6.5-6.9
			c4.3,2.3,7.1,0.7,9.4-3.5C190.3,281,186.8,283.5,188.9,286.5z"/>
		<path class="st39" d="M220.5,272.8c0.2,3.7-1.9,5.8-4.9,7.4c-7,3.8-14.2,7.2-21.9,9.2c-22.3,6-45,7.3-67.8,4.4
			c-14.6-1.9-29-5-42.1-12.2c-8-4.4-8-5.3-4-13.4c1.8-3.7,3.6-3.8,6.9-1.9c5.1,3,10.5,5.5,16.3,7.2c18.3,5.4,37.1,6.9,56,5.8
			c14.1-0.8,28.1-2.7,41.3-8c3.1-1.2,6.5-2,8.4-5.2c0-0.2,0-0.4,0-0.6c-0.1,0-0.2,0.1-0.3,0.1c-1,0.6-2,1.3-3.1,1.7
			c-42.1,15.5-83.5,14.7-124.6-5.1c0,0.1-0.5,0.9-0.9,1.8c-6.8,14.4-6.8,14.5,8,21.3c22.6,10.2,46.6,12.1,71,11
			c21-1,41.3-4.9,59.7-15.9c3.7-2.2,5.3-4.3,2.8-8.3c-0.3,0-0.6,0-0.9-0.1C220.6,272.4,220.5,272.6,220.5,272.8z"/>
		<path class="st39" d="M219.5,271.2c0.2,0.5,0.6,0.8,1.1,0.9c0.1-0.3,0.2-0.5,0.3-0.8c-0.3-0.5-0.7-1-0.9-1.6
			c-3.8-7.9-3.8-8-11.2-4.2l0,0C214.2,263.6,217.6,265.8,219.5,271.2z"/>
		<path class="st39" d="M220.6,272.1c0.3,0.1,0.6,0.1,0.9,0.1c-0.2-0.3-0.4-0.6-0.6-0.9C220.8,271.6,220.7,271.9,220.6,272.1z"/>
		<path class="st39" d="M208.7,265.6c-0.1,0-0.2,0.1-0.3,0.1C208.6,265.7,208.6,265.7,208.7,265.6L208.7,265.6z"/>
		<path class="st40" d="M85.9,256.8c-31.2-17.4-51.4-42.3-56.5-79.4c-2.5,6.5-4.6,11.6-6.4,16.9c-1,2.9-1.9,2.8-4,1.1
			c-2.8-2.3-5.8-4.3-9.7-7.2c5.4,17.4,13.7,31.6,24.7,44.3c3.4,3.9,6.3,8.5,11.2,10.9c0,0,0,0-0.1-0.1l0,0l0,0l0.1-0.1
			c0.7-4,4-5.8,6.8-7.9c0.1-0.1,1.1,1,1.1,1c-2.1,2.9-3.9,6.1-7.8,6.9l-0.1,0.1l0,0c7.1,9.4,17.1,15.4,26.6,22
			c1.6,1.1,2.7,0.7,3.1-1C76.4,258.9,79.7,256.3,85.9,256.8z M23.8,214c-0.2-3.3,4.2-5.2,6.6-5.5c3-0.4,4.3,3.6,4.7,6.3
			c0.4,3.2-2,4.8-5.1,5.4C26.3,219.7,23.9,216.8,23.8,214z M38.5,232.3c-3.7-0.5-6-3.3-6-7c0-2.9,2.1-4.8,5.1-4.7
			c4,0.2,5.4,3.4,6.5,6.4C43.4,230.4,41.7,232.8,38.5,232.3z M55.8,247.4c-0.6,1-1.5,3-3.1,1.5c-1.4-1.4,0.5-2.5,1.4-3.3
			c2.4-2,3.3-4,1.4-7.2c2.4,2.1,4.8,4.1,7.2,6.2C59.6,243.8,57.6,244.9,55.8,247.4z"/>
		<path class="st40" d="M45.3,243.4l0.1-0.1h-0.1V243.4z"/>
		<path class="st40" d="M45.2,243.3C45.2,243.4,45.2,243.4,45.2,243.3C45.2,243.4,45.2,243.4,45.2,243.3
			C45.3,243.4,45.2,243.3,45.2,243.3z"/>
		<path class="st40" d="M45.3,243.2l-0.1,0.1C45.2,243.3,45.2,243.3,45.3,243.2C45.3,243.3,45.3,243.2,45.3,243.2z"/>
		<g>
			<path class="st2" d="M138.4,17.7c1.7-0.8,4.3-0.8,4.8-3.5c-0.3-1.8-1.6-1.9-3-2c-2.4-0.1-3.7,0.9-3.6,3.3
				C136.6,16.6,136.9,18.3,138.4,17.7z"/>
			<path class="st2" d="M127.8,25.1c-0.1,0.1-0.2,0.1-0.3,0.2c-0.3,3.6,2.3,1.7,3.6,1.8c1.7,0.1,3.2-0.6,2.1-2.9c-0.1,0-0.1,0-0.2,0
				C131.1,23.8,129.4,24,127.8,25.1z"/>
			<path class="st2" d="M124.7,26.3c-0.2-0.3-0.5-0.7-0.7-1c-0.5-0.7-1-1.4-1.5-2.2V23h-0.1c-1.5-0.2-2.8,0.3-3.8,1.2
				c-0.3,0.3-0.6,0.6-0.9,1C118.7,33.5,122.1,26.9,124.7,26.3z"/>
			<path class="st2" d="M126.3,19.3c0,0.3-0.1,0.7-0.1,1c0,0.2,0,0.5-0.1,0.7c0,0.2,0,0.4-0.1,0.6c3.5,3.3,4.8-1.3,8.4-1.7
				C131,17.7,128.7,19,126.3,19.3z"/>
			<path class="st2" d="M115,17c1.9-0.4,4.7,0.4,5-2.6c0.2-2.5-2.1-2.2-3.9-2.2c-2.4-0.1-4.6,0.4-4.7,3.1
				C111.2,17.8,113.5,16.8,115,17z"/>
			<path class="st2" d="M129,16.7c1.9-0.2,3.4-1.2,3.3-3.3c0-1.4-0.9-2-2.4-1.9c-1.2,1.2-4.4-0.3-4.3,2.7
				C125.7,15.9,127.2,16.9,129,16.7z"/>
			<path class="st2" d="M116.7,19.3c0,0.7,0.1,1.5,0.1,2.2c0.4,0,0.8,0,1.2,0c2.4,0.1,5,0.5,6.8-1.6c0.2-0.2,0.3-0.4,0.5-0.6
				c-0.1-1.2-0.1-2.6-1.9-2.1c-2.2,0.6-4.3,1.3-6.5,2C116.9,19.2,116.8,19.2,116.7,19.3z"/>
			<path class="st2" d="M138.4,23.8c0,0.4,0.1,0.9,0.1,1.4c3-0.6,4.7-2.8,6.5-5h0.1v-0.1C139,17.7,138,18,138.4,23.8z"/>
			<path class="st2" d="M164.4,15.6c-3-0.7-5.9-1.1-6.9,2.9l0,0c0.9,3.7-2.1,6.5-2.7,9.8c-0.1,0.7-0.1,1.3,0,2
				c0.7-0.7,1.4-1.3,2-2.1c2.5-3.6,2.3-9.1,8.1-10.4C166.3,17.7,166,16,164.4,15.6z"/>
			<path class="st2" d="M160.8,27.8c-1.2,0.5-2.6,1-2.3,2.8c0.1,0.9,0.7,1.4,1.5,1.2c1.5-0.4,2.7-1.3,3-3.1
				C162.7,27.5,161.7,27.4,160.8,27.8z"/>
			<path class="st2" d="M109.6,24.2c2.4-0.5,4-2,3.8-4.6c0.1,0,0.1,0.1,0.2,0.1c-0.1-0.1-0.1-0.2-0.2-0.4c-3.1-2.1-4.3,1-6.2,2.2
				c-0.1,0.1-0.3,0.2-0.4,0.2C106.6,23.8,107.9,24.5,109.6,24.2z"/>
			<path class="st2" d="M152.2,27.2c-0.1-0.1-0.2-0.2-0.4-0.4c-0.5-0.6-1.1-1.1-1.6-1.7c0,0,0,0-0.1-0.1c-1.5,0.1-3.3-0.6-4.4,1.4
				C147.9,28.3,150,28.6,152.2,27.2z"/>
			<path class="st2" d="M150,21.7c1.2,0.1,2.7,2.9,3.5,0.1c0.6-1.9-1.2-2.5-3-2.3c-0.6,0-1.1,0-1.7,0c-0.3-1.4,0.4-2.1,1.7-2.6
				c1.1-0.4,2.3-1.1,2-2.6c-0.2-1.1-1.2-1.6-2.3-1.4c-1.3,0.3-3.1,0.3-3.2,2.1c-0.1,1.9-1.2,3.9,0.5,5.6
				C148.1,21.6,149.1,21.6,150,21.7z"/>
			<path class="st2" d="M163.9,39.5c-16.6,2.2-33,1.5-49.4-1.7c-1.6-0.3-3.9,3.2-5.9,5c0.8,0.4,1.7,0.9,2.5,1.3l0,0l0,0l0,0
				c13.1,0,26.2-2,39.2,0.3c-0.4,0.7-1,1.1-1.5,1.3c0.3,0,0.7,0.1,1,0.1c1.1-0.1,2.1-0.7,3-1.3l0,0c3.8-3.6,9.5-1.5,14.3-4.9
				C165.4,39.5,164.7,39.4,163.9,39.5z"/>
			<path class="st2" d="M181.3,23.4c1.1-1.6,6.8-0.4,3.3-4.8c0-0.1-0.1-0.1-0.1-0.2c-4.6,0.9-5,5.3-6.7,8.7c1.1-1,2.2-2.1,3.3-3.1
				C181.1,23.8,181.2,23.6,181.3,23.4z"/>
			<path class="st2" d="M207.4,29.3c0.5-0.6,0.9-1.4,1.5-2c0.5-0.5,1.1-0.9,2-0.8c-2.3-2.9-3.4-0.5-4.7,0.7
				c-0.4,0.3-0.7,0.6-1.2,0.7c-0.2,1.1-0.6,2.2,1.1,2.4C206.7,30.1,207,29.7,207.4,29.3z"/>
			<path class="st2" d="M176.5,43.9c4-2.8,9-1.7,13.5-4.7c-3.6-1.3-5.4-3.9-8.3-5.9C188.8,42.1,176.2,39,176.5,43.9z"/>
			<path class="st2" d="M118.8,45.9c0.4-0.1,0.8-0.1,1.2-0.1c-2.2,0-4.4,0-6.6,0C115.1,46.3,117,46.1,118.8,45.9z"/>
			<path class="st2" d="M97.2,34.8c-0.2-0.9-1.2-0.1-1.9,0.1c-0.3,0.5-0.7,1-1.1,1.4c-3,3-7.6,2.5-11.1,4.4
				c-2.5,0.1-4.5,1.3-6.4,2.7c-0.6,0.4-1.1,0.9-1.7,1.3c-0.3,0.7-0.8,1.5-0.7,2.1c0.1,0.8,1,0.4,1.2,0.1c2.6-3.3,6.5-3.9,10.1-5.2
				c-0.2-0.1-0.5-0.2-0.7-0.3c0.3,0,0.5,0.1,0.7,0.3c3.2-0.8,6.4-1.6,9.5-2.6C97.3,38.5,97.6,36.5,97.2,34.8z"/>
			<path class="st2" d="M100.3,18.5c4.2,1.6,2.7-4,5-5.2c-2.6,0.2-5.4-1.6-7,1.2C97.8,15.4,98.7,17.9,100.3,18.5z"/>
			<path class="st2" d="M68.9,9.9c-2-0.3-4.1,0.1-5.8-1.2c-1.7,0.3-3.4-1-5.2,0.1C61.8,11.7,63.4,11.8,68.9,9.9z"/>
			<path class="st2" d="M89.2,17.7c0.1,0.1,0.1,0.1,0.2,0.2c1.6,0.1,3.1,0.2,4.7,0.3c-0.3-0.1-0.7-0.3-1-0.4
				c-0.4-0.2-0.8-0.5-1.2-0.8c-2.1-1.8-3.8-4.3-7.2-3.8c0.9,0.9,1.7,1.8,2.6,2.6C87.9,16.4,88.6,17,89.2,17.7z"/>
			<path class="st2" d="M81.2,24.3c1.7-1.2,3.9-2.2,1.4-5.2c-2-2.8-5-3.5-8.2-4c-7-1-14.3,0.6-20.9-3c-1.6-0.9-2.3,1.2-3.6,1.4
				c-5.2-1.6-10.6-1.2-16-1.3c-1,0-2,0-3-0.1c0.3,0.5,0.5,1.2,0.9,1.4c3.7,1.7,9-0.4,11.2,5.3c0.5,1.2,1.1-0.9,0.9-1.9
				c-0.7-0.1-1.1-0.4-1.1-1.2l0.1-0.1l0.1,0.1c0.1,0,0.1,0,0.2,0c5.8-0.2,11.8-2,17.3,1.5c0.1,0,0,0.4-0.1,0.5
				c-0.3,0.2-0.6,0.4-0.9,0.6c-0.9,0.3-1.8-0.7-2.8-0.9c-0.6-0.2-1.1,0-1.6,0.9c-0.1,0.2-0.2,0.3-0.2,0.5c2.4,3.1,5.7,3.8,9.4,3
				c0.6-0.1,1.7-0.5,0.5-1.3c-0.4-0.3-1.1-0.1-1.7-0.1c5.8-2.7,11.7-4.2,17.9-1.2c1.6,6.2-5,4.1-6.9,6.8c2,1,3.8,0.2,5.6-0.5
				C80.1,25.1,80.6,24.7,81.2,24.3z"/>
			<path class="st2" d="M105.3,13.3c0.4,0,0.7-0.1,1.1-0.2C105.9,13,105.5,13.1,105.3,13.3z"/>
			<path class="st0" d="M85.7,41.7c-0.2-0.2-0.5-0.3-0.7-0.3C85.2,41.5,85.5,41.6,85.7,41.7z"/>
			<path class="st0" d="M277.8,20.4c-0.3-4.9-4.4-5.7-7.7-7.8c-5.6-3.6-10.4-0.8-15.8,0.2c1.1,2.3,3.2,2.2,4.6,1.4
				c4.9-2.7,6.3,2.2,8.5,4.1c2.5,2.2-1.6,3.8-2.1,5.9c-0.7,3.1-3.9,2-5.7,3.4c-8,2.8-16,2.4-24-0.1c-4.4-1.4-9-2.4-13.6-3.6
				c-11.7-0.7-23.1-2.7-34-7.2c-0.9-0.4-2.3,0.3-3.4,0.4c-4.5-0.7-9-1.7-13.1-3.6c-9.7-3.7-20-2.7-29.9-4.2
				c-11.6-1.8-23.2,0.8-34.9,0.4c-4.3-0.2-8.7,1.5-13.1-0.5C86,5.7,78,3.6,70.1,1.3c-3.2-1-5.7-0.9-8.8,0.5
				C51.1,6.6,40.9,11.2,29,9.2c-5-0.9-5.3,2.8-3.9,6.6c0.6,6.2,5.1,7.2,10.2,8.5c9.5,2.5,19.7,1.5,28.9,5.9
				c5.4,2.5,10.7,5.2,16.7,6.1c1.6,0.2,1.2,1.1,0.9,2.1c-3-0.1-5.3,1.8-7.9,2.8c-5,0.7-8.1,5.6-13.3,6.2c0,0.1-0.1,0.1-0.1,0.2h32.2
				h58.9h62.9c0.7-2.8,0.7-5-3.4-4.2c-1.7,0.3-3.5,0.1-5.3,0.2c1,1.5,2.7,2,4.2,3c-6.4,0-12.6,2-20.2,0c5.1-1.7,9.5-1.1,13.2-3l0,0
				c1-2.1-0.5-6.7,4.2-5.2c15.3,5,30.7,4.9,46.1,1.3c6.1-1.4,12.7-2,17.9-6.5C275.2,29.6,278.2,25.9,277.8,20.4z M156.8,28.4
				c-0.5,0.8-1.3,1.4-2,2.1c-0.1-0.7-0.1-1.4,0-2c0.5-3.4,3.5-6.2,2.7-9.8l0,0c1-4.1,4-3.7,6.9-2.9c1.6,0.4,1.9,2.1,0.5,2.4
				C159.2,19.3,159.3,24.8,156.8,28.4z M163.1,28.7c-0.3,1.7-1.5,2.6-3,3.1c-0.8,0.2-1.4-0.3-1.5-1.2c-0.2-1.8,1.1-2.3,2.3-2.8
				C161.7,27.4,162.7,27.5,163.1,28.7z M150.1,25.1C150.1,25.1,150.2,25.1,150.1,25.1c0.6,0.6,1.1,1.2,1.7,1.7
				c0.1,0.1,0.2,0.2,0.4,0.4c-2.2,1.5-4.2,1.1-6.5-0.7C146.8,24.5,148.6,25.2,150.1,25.1z M147.1,14.9c0.1-1.8,1.9-1.8,3.2-2.1
				c1.1-0.2,2.1,0.3,2.3,1.4c0.2,1.4-1,2.1-2,2.6c-1.3,0.5-2,1.2-1.7,2.6c0.6,0,1.2,0,1.7,0c1.8-0.1,3.6,0.5,3,2.3
				c-0.8,2.8-2.3,0-3.5-0.1c-0.9,0-2,0-2.4-1.2C145.9,18.8,147,16.8,147.1,14.9z M145.1,20.1H145c-1.7,2.2-3.5,4.5-6.5,5
				c0-0.5-0.1-0.9-0.1-1.4C138,18,139,17.7,145.1,20.1C145,20.1,145,20.1,145.1,20.1z M131.1,27c-1.3-0.1-3.9,1.8-3.6-1.8
				c0.1-0.1,0.2-0.1,0.3-0.2c1.6-1,3.4-1.3,5.2-0.9c0.1,0,0.1,0,0.2,0C134.2,26.4,132.7,27.1,131.1,27z M118.5,24.2
				c1-0.9,2.3-1.4,3.8-1.2h0.1v0.1c0.5,0.7,1,1.4,1.5,2.2c0.2,0.3,0.5,0.7,0.7,1c-2.5,0.7-5.9,7.2-7.1-1.1
				C117.9,24.8,118.2,24.5,118.5,24.2z M140.2,12.2c1.4,0.1,2.7,0.2,3,2c-0.4,2.7-3,2.7-4.8,3.5c-1.5,0.7-1.8-1.1-1.9-2.1
				C136.4,13.1,137.8,12.1,140.2,12.2z M134.4,19.9c-3.5,0.5-4.8,5-8.4,1.7c0-0.2,0-0.4,0.1-0.6c0-0.2,0-0.5,0.1-0.7
				c0-0.3,0.1-0.7,0.1-1C128.7,19,131,17.7,134.4,19.9z M129.9,11.4c1.5-0.1,2.4,0.6,2.4,1.9c0,2.2-1.5,3.2-3.3,3.3
				c-1.7,0.2-3.3-0.8-3.4-2.6C125.5,11.1,128.7,12.7,129.9,11.4z M125.3,19.3c-0.2,0.2-0.3,0.4-0.5,0.6c-1.9,2.1-4.4,1.7-6.8,1.6
				c-0.4,0-0.8,0-1.2,0c0-0.7-0.1-1.5-0.1-2.2c0.1,0,0.2-0.1,0.2-0.1c2.2-0.7,4.3-1.4,6.5-2C125.2,16.7,125.2,18.1,125.3,19.3z
				 M116,12.2c1.8,0,4.1-0.3,3.9,2.2c-0.2,3-3.1,2.2-5,2.6c-1.5-0.3-3.8,0.7-3.7-1.7C111.4,12.6,113.7,12.1,116,12.2z M113.4,19.3
				c0.1,0.1,0.1,0.3,0.2,0.4c-0.1,0-0.1-0.1-0.2-0.1c0.1,2.6-1.5,4.1-3.8,4.6c-1.7,0.4-3-0.4-2.8-2.5c0.2-0.1,0.3-0.1,0.4-0.2
				C109.2,20.3,110.4,17.2,113.4,19.3z M98.3,14.5c1.5-2.8,4.4-1,7-1.2c0.3-0.2,0.6-0.2,1.1-0.2c-0.3,0.1-0.7,0.2-1.1,0.2
				c-2.2,1.2-0.7,6.7-5,5.2C98.7,17.9,97.8,15.4,98.3,14.5z M91.9,16.9c0.4,0.3,0.8,0.6,1.2,0.8c0.3,0.2,0.6,0.3,1,0.4
				c-1.6-0.1-3.1-0.2-4.7-0.3c-0.1-0.1-0.1-0.1-0.2-0.2c-0.7-0.7-1.3-1.3-2-2c-0.9-0.9-1.7-1.8-2.6-2.6
				C88.1,12.6,89.8,15.2,91.9,16.9z M63.1,8.7c1.8,1.3,3.9,0.9,5.8,1.2c-5.5,1.9-7.1,1.8-11-1C59.7,7.7,61.4,9,63.1,8.7z M74.2,26
				c1.9-2.7,8.5-0.6,6.9-6.8c-6.2-3-12.1-1.5-17.9,1.2c0.6,0,1.3-0.2,1.7,0.1c1.2,0.8,0.1,1.2-0.5,1.3c-3.7,0.7-6.9,0.1-9.4-3
				c0.1-0.2,0.1-0.4,0.2-0.5c0.5-0.9,1-1,1.6-0.9c0.9,0.3,1.9,1.2,2.8,0.9c0.3-0.2,0.6-0.4,0.9-0.6c0.1-0.1,0.2-0.5,0.1-0.5
				c-5.5-3.6-11.5-1.7-17.3-1.5c-0.1,0-0.1,0-0.2,0L43,15.6l-0.1,0.1c0,0.8,0.4,1.1,1.1,1.2c0.2,1-0.5,3.1-0.9,1.9
				c-2.2-5.7-7.5-3.5-11.2-5.3c-0.4-0.2-0.6-0.9-0.9-1.4c1,0.1,2,0.1,3,0.1c5.4,0.1,10.7-0.3,16,1.3c1.3-0.2,1.9-2.3,3.6-1.4
				c6.6,3.6,13.9,2,20.9,3c3.2,0.5,6.2,1.1,8.2,4c2.4,3,0.3,4-1.4,5.2c-0.6,0.4-1.1,0.8-1.4,1.3C78,26.2,76.2,27,74.2,26z
				 M85.7,41.7c-3.6,1.3-7.5,1.8-10.1,5.2c-0.2,0.3-1.1,0.7-1.2-0.1c-0.1-0.7,0.5-1.4,0.7-2.1c0.6-0.4,1.1-0.9,1.7-1.3
				c1.9-1.4,3.8-2.6,6.4-2.7c3.5-1.9,8.1-1.4,11.1-4.4c0.4-0.4,0.8-0.9,1.1-1.4c0.6-0.2,1.7-1,1.9-0.1c0.4,1.8,0,3.7-2,4.3
				C92.1,40.1,88.9,40.9,85.7,41.7z M118.8,45.9c-1.7,0.2-3.7,0.5-5.4-0.2c2.2,0,4.4,0,6.6,0C119.6,45.8,119.2,45.8,118.8,45.9z
				 M152.8,44.5L152.8,44.5c-1,0.6-1.9,1.2-3,1.3c-0.3,0-0.7-0.1-1-0.1c0.6-0.2,1.1-0.6,1.5-1.3c-13.1-2.2-26.1-0.3-39.2-0.3l0,0
				l0,0l0,0c-0.8-0.4-1.7-0.9-2.5-1.3c2-1.7,4.3-5.3,5.9-5c16.4,3.2,32.8,3.9,49.4,1.7c0.8-0.1,1.5,0,3.2,0
				C162.3,42.9,156.6,40.9,152.8,44.5z M184.5,18.5c0,0.1,0.1,0.1,0.1,0.2c3.5,4.4-2.2,3.2-3.3,4.8c-0.1,0.2-0.2,0.4-0.2,0.6
				c-1.1,1-2.2,2.1-3.3,3.1C179.5,23.8,179.9,19.4,184.5,18.5z M176.5,43.9c-0.2-4.9,12.3-1.8,5.2-10.5c3,2,4.7,4.5,8.3,5.9
				C185.5,42.3,180.4,41.1,176.5,43.9z M205,27.8c0.4-0.1,0.8-0.3,1.2-0.7c1.3-1.3,2.4-3.6,4.7-0.7c-0.9,0-1.5,0.3-2,0.8
				c-0.6,0.6-0.9,1.4-1.5,2c-0.3,0.4-0.7,0.8-1.3,0.9C204.4,30.1,204.8,28.9,205,27.8z"/>
		</g>
		<path class="st41" d="M270.1,187.4c-0.5-1.3-1-2.6-1.5-4.3c-1.2,6.9-3,13.3-5.3,19.5c-2.5,6.5-5.6,12.7-9.5,18.4
			c-0.1,0.1-0.2,0.3-0.3,0.4c0.5,0.4,1,0.9,1.5,1.3c1.8-0.3,2.7,2.1,4.6,1.4l0,0c1.9-2.3,1.4-4.4-1.2-6.7c4.9-0.6,6.4,3.5,9.5,4.5
			c1.1,0.1,1.7-1.6,2.7-1.6c0.1-0.2,0.3-0.4,0.4-0.6c6.1-8.4,10.6-17.6,14-27.3c-4.5,2.9-7.1,4.4-8.9,4.3c-0.2,0.1-0.4,0.3-0.6,0.4
			c-0.1-0.2-0.2-0.4-0.2-0.6C273.5,195.9,272.3,193,270.1,187.4z M272.6,215.2c-1.3,2.4-3.2-0.2-4.2-1.1c-2.4-2.1-4.1-1-6.1,0.6
			c0.9-3.3,2.5-5.9,5.2-8.1c-0.5,2.4-0.9,4.2,1.8,5.4C270.7,212.5,273.7,213.2,272.6,215.2z"/>
		<path class="st41" d="M253.7,221.1c3.9-5.8,7.1-11.9,9.5-18.4c2.3-6.2,4.2-12.6,5.3-19.5c0.5,1.7,1,3,1.5,4.3
			c2.2,5.6,3.4,8.5,5.2,9.2c-2.4-6.2-4.7-12.1-7-18c-2.2,15.5-8,29.1-15.9,42c0.3,0.3,0.7,0.6,1,0.8
			C253.5,221.3,253.6,221.2,253.7,221.1z"/>
		<path class="st41" d="M271,219.8c-0.1,0.2-0.3,0.4-0.4,0.6c0.3,0,0.7,0.1,1.2,0.6l0,0c7.3-9.5,12.2-20.2,16-32.7
			c-4.4,3.3-7.9,5.8-11.7,8.6c1.8,0.1,4.3-1.5,8.9-4.3C281.6,202.2,277.1,211.4,271,219.8z"/>
		<path class="st42" d="M228.1,250.3c0.1-3,1.3-4.3,4.4-2.8c1,0.5,1.9,3.1,3.5,0.6c-0.9-1.9-2.7-3.7-0.2-5.7c1-0.8,1.9-0.6,2.5,0.3
			c1.5,2.2,4,3.8,4.6,6.6c0.1,0.7-0.9,1.1-1.8,0.6c-1.9-1.1-1.8-1.1-2,1.5c-0.4,4-2.7,1.2-4.3,0c-1.5,0.2-1.4,0.9-0.6,1.8
			c1,1,1.8,2,0.5,3.3c0.2,0.1,0.3,0.3,0.5,0.4c0.1-0.1,0.2-0.1,0.3-0.2c13.1-9.8,24.5-21.2,33.9-34.6c-0.5,0.3-1,0.5-1.6,0.4
			c-0.4,1.5-1.2,2.3-2.7,0.6c-2.1-2.2-2.8,0.4-4.1,1c-2,2.5,4.5,3.5,1.2,5.4c-1.9,1.1-3.7-2.1-5.5-3.3c-1-0.6-2.4-1.3-2-2.7
			c-0.6-0.5-1.1-1-1.5-1.6c-7.5,10.6-16.6,19.7-27.3,27.1C226.3,249.8,227.1,250.3,228.1,250.3z M246.6,232.6
			c1.4-2.4,3.1-4.7,6.4-4.1c0.7,0.1,0.2,1.3-0.4,1.9c0.3,0.3,0.6,0.6,1,0.9c1.9-1.7,3.5-0.9,4.1,1c0.9,2.9-1.3,4.7-3.3,6.3
			c-2,1.7-4.2,2.1-6.4,0.2C245.9,237.2,245.2,235.1,246.6,232.6z M242,237.9c2.1,2,4,4.2,5.8,6.5c0.4,0.5-0.2,1.5-0.4,1.5
			c-1.9,0-7.4-6-7.1-7C240.6,238,241.3,237.1,242,237.9z"/>
		<path class="st42" d="M253,222c-0.3-0.4-0.5-0.9-0.6-1.4c-7.5,10.8-16.8,19.7-27.2,27.6c0.2,0.3,0.3,0.6,0.5,0.9
			C236.4,241.7,245.5,232.6,253,222z"/>
		<path class="st42" d="M235.4,256.8c-0.1,0.1-0.2,0.1-0.3,0.2c0.3,0.2,0.6,0.5,0.8,0.7c14.2-10.1,26.2-22.3,35.8-36.8
			c-1,0-1.7,0.8-2.5,1.3C259.9,235.6,248.5,247,235.4,256.8z"/>
		<path class="st42" d="M269.3,222.2c0.4-0.6,0.9-1.2,1.3-1.9c-1,0.1-1.7,1.7-2.7,1.6c0,0.2-0.1,0.5-0.1,0.7
			C268.3,222.7,268.8,222.5,269.3,222.2z"/>
		<path class="st42" d="M254.5,223.6c0.1-0.3,0.2-0.5,0.4-0.9c-0.5-0.4-1-0.9-1.5-1.3c-0.1,0.2-0.3,0.4-0.4,0.6
			C253.4,222.7,253.9,223.2,254.5,223.6z"/>
		<path class="st42" d="M269.3,222.2c0.8-0.5,1.5-1.3,2.5-1.3c-0.5-0.4-0.8-0.6-1.2-0.6C270.2,221,269.7,221.6,269.3,222.2z"/>
		<path class="st42" d="M253.4,221.5c-0.3-0.3-0.7-0.6-1-0.8c0.1,0.5,0.3,1,0.6,1.4C253.1,221.8,253.3,221.7,253.4,221.5z"/>
		<path class="st43" d="M224.7,264.7c3-2.8,6.7-4.7,9.9-7.3c-0.1-0.2-0.2-0.3-0.3-0.5c0-0.2,0.1-0.3,0.1-0.5c-2.9-1.1-3.6-4.6-6.1-6
			c-0.2,0.1-0.4,0.3-0.7,0.4c-1.2-0.1-2.2-0.4-2.4-1.4c-3.5,2-6.4,5.1-10.3,6.3C219.6,256.9,222.7,260.1,224.7,264.7z"/>
		<path class="st43" d="M234.6,257.5c-3.2,2.6-6.9,4.5-9.9,7.3c0.2,0.4,0.3,0.8,0.5,1.3c3.6-2.8,7.2-5.5,10.8-8.3
			C235.3,258.1,234.9,257.9,234.6,257.5z"/>
		<path class="st43" d="M225.2,249.4c-0.1-0.3-0.1-0.7,0-1.2c-4.5,2-8.1,5.8-13.1,7.1c1,0.1,1.9,0.2,2.7,0.4
			C218.7,254.5,221.7,251.4,225.2,249.4z"/>
		<path class="st43" d="M224.7,264.7c-2-4.6-5.1-7.8-9.8-9c-0.8,0.3-1.7,0.5-2.6,0.5c-0.1,0-0.2,0-0.2-0.1c0,0.2-0.1,0.5-0.1,0.7
			c6.5-0.7,9.3,3.3,11.2,8.6c0,0.1,0.3,0.2,0.6,0.3c0.2-0.3,0.5-0.5,0.7-0.8C224.5,264.9,224.6,264.8,224.7,264.7z"/>
		<path class="st43" d="M212,256.2c0.1,0,0.2,0,0.2,0.1c0.9-0.1,1.8-0.3,2.6-0.5c-0.9-0.2-1.8-0.4-2.7-0.4l0,0
			C212.1,255.6,212,255.9,212,256.2z"/>
		<path class="st43" d="M224.3,265c-0.2,0.3-0.5,0.5-0.7,0.8c0.5,0.1,1.1,0.1,1.5,0.2c-0.2-0.4-0.3-0.8-0.5-1.3
			C224.6,264.8,224.5,264.9,224.3,265z"/>
		<path class="st43" d="M227.5,250.8c0.2-0.1,0.5-0.3,0.7-0.4c0,0-0.1,0-0.1-0.1c-1.1-0.1-1.8-0.5-2.4-1.2l0,0
			c-0.2,0.1-0.4,0.2-0.6,0.3C225.4,250.4,226.3,250.7,227.5,250.8z"/>
		<path class="st43" d="M234.3,256.4c0,0.2,0,0.3-0.1,0.5c0.1,0.2,0.2,0.4,0.3,0.5c0.2-0.2,0.4-0.3,0.6-0.5
			c-0.2-0.1-0.3-0.3-0.5-0.4C234.6,256.6,234.5,256.5,234.3,256.4z"/>
		<path class="st43" d="M225.2,249.4c0.2-0.1,0.4-0.2,0.6-0.3l0,0c-0.2-0.3-0.4-0.6-0.5-0.9C225.1,248.7,225.1,249.1,225.2,249.4z"
			/>
		<path class="st43" d="M234.6,257.5c0.3,0.4,0.7,0.7,1.4,0.3c-0.3-0.2-0.6-0.5-0.8-0.7C235,257.1,234.8,257.3,234.6,257.5z"/>
		<path class="st3" d="M123.1,221.9c2.1-1.5,3.9-3.4,5-5.8c-0.6-0.1-1.1-0.1-1.7-0.2c-0.1,0.1-0.3,0.3-0.4,0.4
			c-0.2,0.1-0.5,0.1-0.5,0c-1.4-3.5-4-6.2-6.1-9.3c-1.2-1.7-7.8-6.1,1.3-6.3c0.3,0,0.7-0.7,0.9-1.2c1.7-4.6,3.2-9.2,2.5-14.1
			c-0.5-3.5-1.7-5.7-5.9-6.3c-6.9-1-12.6,3.2-19.1,3.8c-0.9,0.1-3.6,2.6-1.2,5.3c0.8,0.9,3.1,1.5,2,3.7c-3.6,0.3-7-0.1-9.4-3.3
			c-1.1-1.4-2.6-1.8-4.2-1.8c-1.1,0-2.5,0.1-2.7,1.6c-0.1,1.5,1.2,1.2,2.1,1.3c5,0.7,7.6,4.8,11.3,7.8c-3.4,1.1-6.1,0.2-8.7-0.8
			c-1.7-0.7-4-1.4-4.3,0.9c-0.4,2.3,2.3,1.4,3.6,1.8c8.8,2.3,16,6.7,22.3,15.4c-6.4-1.6-10.6-1.3-11.9,4.8c-0.8,3.8-2.9,2.3-4.6,0.6
			s-3.2-3.8-6-1.3c1.5,0.9,3.3,1.3,4,2.4c2.8,4.7,5.4,5.3,9.6,1.2c2-2,7.5-2,8.3,0.3c1.3,3.8,3.7,4.7,6.6,5.8c1.4,0.5,2.6,1.2,1.9,3
			c-0.5,1.3-1.4,1.8-2.8,1.4c-2.1-0.5-4.1-0.6-5.4,2c2.6,1.3,5,0.9,7.2,0.9c5,0,8.2-5.5,5.6-9.8
			C120.8,224.1,121.5,223.1,123.1,221.9z"/>
		<path class="st44" d="M78.1,197.5c-0.9,4.8-3.1,6.8-7.8,7c3.9,1.8,4.4,4.3,1.8,8.2c4.5-2.4,7.8-3.2,11.5-0.5
			c-1.9-4.2,1.1-6,3.6-8.6C82,205.1,80.5,201.4,78.1,197.5z"/>
		<path class="st45" d="M131.5,227.2c-0.3,4.7-2.8,6.3-6.7,6.5c0.5,2.4,3.9,2.6,2.8,4.7c-1.7,3.3-0.6,3.4,2,2.2c1.8-0.9,3.3-1,5,0.2
			c0.6,0.5,1.4,0.7,2.7,1.4c-1.7-4.2,0.5-6.5,3.6-9.2C135.6,234.7,134.2,230.5,131.5,227.2z"/>
		<path class="st46" d="M128.1,216.1c3.1-4.5,3.6-9.5,3.1-14.7c-0.2-2.1-0.6-4.2,2.2-5.3c1.1-0.5,2.6-2,1.4-3.3
			c-1.1-1.2-3-0.6-4.4,0.3c-1.9,1.1-1.4,3.1-1.4,4.8c-0.3,6.1,0,12.3-2.5,18C127,215.5,127.6,215.5,128.1,216.1z"/>
		<path class="st46" d="M126.4,216c0.6,0.1,1.1,0.1,1.7,0.2C127.6,215.5,127,215.5,126.4,216z"/>
		<path class="st3" d="M209.9,161.1c-0.1-0.2-0.1-0.4-0.2-0.6c-2.2-5.6,2.3-7.4,5.3-10.1c-0.1,0-0.1,0-0.2,0l-0.1,0.1
			c-0.1-0.1-0.2-0.1-0.2-0.2c-0.1,0-0.2,0-0.2,0c0-0.1-0.1-0.1-0.1-0.2c-4.5-3.4-7-8.4-9.8-13.1c-0.9-1.5-0.1-2.9,1.5-4
			c4.2-2.9,6.9-11,5.3-15.5c-1.3-3.4-4.1-4-7.3-3.7c-6.4,0.5-12.2,3.2-18.3,5.4c1.6,1.6,4.1,2.9,4,5.6c-0.1,1.6-1.9,1.7-3.3,1.7
			c-0.2,0-0.4-0.1-0.6-0.1c-0.2,0.6-0.4,1.1-0.6,1.7c0.1,0.2,0.3,0.3,0.4,0.5c0.6,1,1.2,2,0.4,3.2c-0.2,0.1-0.3,0.2-0.5,0.3
			c0,1.1,0.9,2.1,0.9,3.2c3.5,2.1,7,4.1,9.7,7.2c1.4,1.6,2.8,3.3,2.3,5.7c-0.3,0-0.5,0.1-0.8,0.1c-1,1.4-2.6,1-4,1
			c-1.2,0.4-2.4,1-3.4,1.8c0,1.8,1.6,1.6,2.9,1.8c1.7,0.2,3.5-0.6,5.4,0.9c-1,0.1-1.9,0.2-2.8,0.2c4.5,1.2,7.5,4.4,10,8.4
			c0.6,0.4,1,0.9,1.1,1.8c0.1,0.1,0.1,0.2,0.2,0.3C207.7,163.3,208.8,162.2,209.9,161.1z"/>
		<path class="st3" d="M189.8,150.8c0,0.1,0,0.1,0,0.2c1-0.8,2.2-1.4,3.4-1.8c-0.2,0-0.5,0-0.7,0
			C191.4,149.4,189.9,149.3,189.8,150.8z"/>
		<path class="st3" d="M206.4,164.1c0,0.2,0,0.3,0,0.5c0.1-0.1,0.1-0.1,0.2-0.2C206.5,164.4,206.4,164.2,206.4,164.1z"/>
		<path class="st3" d="M195.3,153.9c-1.4,0.1-2.7,0.2-4,0.3c2.8,1.6,8-0.6,8.3,5.3c0,0.7,2.6,1.4,4,2c0.6,0.2,1.2,0.5,1.6,0.8
			C202.9,158.3,199.9,155.1,195.3,153.9z"/>
		<path class="st3" d="M198,148c0.5-2.4-0.9-4.1-2.3-5.7c-2.7-3.1-6.2-5.1-9.7-7.2c0,0.3-0.1,0.6-0.3,1c4.3,3.4,9.3,6.1,11.8,11.3
			c-0.1,0.3-0.2,0.5-0.4,0.7C197.5,148.1,197.8,148,198,148z"/>
		<path class="st3" d="M214.7,150.5l0.1-0.1c-0.1,0-0.2,0-0.3,0C214.5,150.4,214.6,150.4,214.7,150.5z"/>
		<path class="st3" d="M185.8,131.7c0.8-1.2,0.2-2.2-0.4-3.2c-0.1-0.2-0.3-0.3-0.4-0.5c-0.1,0.3-0.2,0.6-0.3,1
			c0.4,0.6,0.7,1.2,1.1,1.9c-0.3,0.4-0.4,0.7-0.4,1.1C185.4,131.8,185.6,131.8,185.8,131.7z"/>
		<path class="st3" d="M186.2,126.5c1.4,0,3.2-0.1,3.3-1.7c0.2-2.6-2.3-3.9-4-5.6c6.1-2.2,11.9-4.8,18.3-5.4c3.2-0.3,6,0.3,7.3,3.7
			c1.6,4.4-1.1,12.5-5.3,15.5c-1.6,1.1-2.3,2.5-1.5,4c2.8,4.7,5.3,9.7,9.8,13.1c-1.2-4.4-4.6-7.4-7.2-11c-1.1-1.4-2.3-5.1-1-4.8
			c5.7,1.4,4.7-3.7,5.5-5.6c2-4.8,3.2-10.6-0.9-14.8c-2.9-3-7.3-1.2-11.3-0.8c-6.3,0.7-11.4,6.2-18.5,3.6c1.2,4,5,3.5,6.9,5.9
			c3,4-0.6,2.3-1.8,2.8c-0.1,0.3-0.2,0.6-0.3,0.8C185.7,126.4,185.9,126.4,186.2,126.5z"/>
		<path class="st3" d="M211.2,155.5c2-1.2,3.9-2.7,4.8-5c-0.3,0-0.6-0.1-0.9-0.1c-3.1,2.7-7.6,4.5-5.3,10.1c0.1,0.2,0.2,0.4,0.2,0.6
			c0.4-0.4,0.8-0.8,1.2-1.3C210.2,158.4,208.7,157,211.2,155.5z"/>
		<path class="st47" d="M222.6,151.3c0.3,6.6-4.2,6-7.8,7.8c3.4,1.6,5.8,3.2,3.2,7c3.8-2.4,7.1-1.4,10.8,0.2c-3.7-5,2.2-5.7,3.4-9
			C227.5,158.9,225.2,156.1,222.6,151.3z"/>
		<path class="st48" d="M166.5,152.2c-0.4,4.8-3.3,6-7.9,6.4c3.8,1.8,4.6,4.2,1.9,8.4c4.4-2.4,7.7-2.9,11.7-0.5
			c-3-4.9,1.9-5.8,3.5-9C170.7,158.8,168.4,156.1,166.5,152.2z"/>
		<path class="st49" d="M197,148.2c-0.7,0.1-1.5,0.3-2.2,0.5C195.7,148.8,196.4,148.8,197,148.2z"/>
		<path class="st49" d="M188.9,151.8c-0.9,0.9-1.7,2-2.4,3.5c-1.7,3.6-3.9-1-5.6-1.7c2,4,4.8,4.6,8.2,0.8c0.6-0.7,1.6-0.9,2.6-1
			C190.4,153.4,189.3,153.1,188.9,151.8z"/>
		<path class="st49" d="M195,153.3c-0.9,0-1.9,0-2.9,0c0.3,0,0.5,0,0.8,0.1C193.6,153.4,194.3,153.5,195,153.3z"/>
		<path class="st49" d="M192.9,153.4c-0.3,0-0.5-0.1-0.8-0.1c-0.1,0-0.1,0-0.2,0c-0.1,0-0.1,0-0.2,0c-1,0.1-1.9,0.3-2.6,1
			c-3.4,3.9-6.1,3.2-8.2-0.8c1.7,0.6,3.9,5.3,5.6,1.7c0.7-1.5,1.5-2.6,2.4-3.5c0-0.1-0.1-0.3-0.1-0.4c-0.2-2.1,1.3-2.4,2.9-2.9
			c1-0.3,2.1,0.1,3.1,0.3c0.7-0.2,1.4-0.3,2.2-0.5c0.2-0.2,0.4-0.4,0.6-0.7c-6.6-1.2-11.1,1-12,8.5c-3.3-2.5-5-6.4-9.4-4
			c4.1,1.2,5.6,4.8,7.6,8.2c2.7-2.1,5.2-4,7.6-5.9C191.8,153.7,192.3,153.5,192.9,153.4z"/>
		<path class="st49" d="M191.7,153.4c0.1,0,0.1,0,0.2,0c0.1,0,0.1,0,0.2,0c1,0,2,0,2.9,0c-0.6,0.2-1.4,0-2.1,0.1
			c0.9,0.1,1.7,0.2,2.5,0.5c0.9-0.1,1.8-0.1,2.8-0.2c-1.9-1.5-3.7-0.7-5.4-0.9c-1.3-0.2-2.9,0-2.9-1.8c-0.3,0.2-0.6,0.5-0.9,0.8
			C189.3,153.1,190.4,153.4,191.7,153.4z"/>
		<path class="st49" d="M194.9,148.7c-0.6,0.1-1.1,0.3-1.7,0.5c1.5,0,3.1,0.4,4-1c-0.1,0-0.1,0-0.2,0
			C196.4,148.8,195.7,148.8,194.9,148.7z"/>
		<path class="st49" d="M191.8,148.4c-1.6,0.6-3.1,0.9-2.9,2.9c0,0.2,0.1,0.3,0.1,0.4c0.3-0.3,0.6-0.5,0.9-0.8c0-0.1,0-0.1,0-0.2
			c0.1-1.6,1.6-1.4,2.7-1.6c0.2,0,0.5,0,0.7,0c0.5-0.2,1.1-0.4,1.7-0.5C193.8,148.5,192.7,148,191.8,148.4z"/>
		<path class="st49" d="M191.7,153.4c0.1,0,0.1,0,0.2,0c0.1,0,0.1,0,0.2,0c-0.1,0-0.1,0-0.2,0C191.8,153.3,191.8,153.4,191.7,153.4z
			"/>
		<path class="st49" d="M197.3,148.1c0.1-0.2,0.3-0.4,0.4-0.7c-0.2,0.3-0.4,0.6-0.6,0.7C197.1,148.2,197.2,148.2,197.3,148.1z"/>
		<path class="st49" d="M192.9,153.4c-0.5,0-1.1,0.2-1.5,0.8c1.3-0.1,2.6-0.2,4-0.3C194.6,153.7,193.7,153.5,192.9,153.4z"/>
		<path class="st50" d="M215.4,150c4.2-6.6,3.2-14.2,4-21.4c-1.3,7.2,0.3,15-4.4,21.4C215.2,150,215.3,150,215.4,150L215.4,150z"/>
		<path class="st50" d="M214.3,150.2L214.3,150.2c-0.1,0-0.1,0-0.1,0.1C214.3,150.3,214.3,150.2,214.3,150.2z"/>
		<path class="st50" d="M215.1,150c4.7-6.4,3-14.2,4.4-21.4c-0.8,7.2,0.2,14.8-4,21.4c0,0-0.1,0-0.1,0.1c0.2,0.1,0.4,0.2,0.6,0.4
			c4.1-4.7,4.5-10.3,4.1-16.1c-0.2-2-0.7-3.8,1.8-4.9c1.2-0.5,2.4-1.7,1.8-3.3c-0.1-0.4-1.3-0.8-2-0.7c-1.5,0.2-3.3,0.4-3.8,2.2
			c-0.3,1.1,0.1,2.4-0.1,3.5c-1,6.3,0.1,13-3.6,18.8c0,0,0,0,0.1,0C214.6,150,214.9,149.9,215.1,150z"/>
		<path class="st50" d="M215.1,150c-0.1,0.1-0.2,0.3-0.3,0.4c0.1,0,0.1,0,0.2,0c0.1-0.1,0.3-0.2,0.4-0.3
			C215.3,150,215.2,150,215.1,150z"/>
		<path class="st50" d="M214.2,150.3c0.1,0,0.2,0,0.2,0l-0.1-0.1C214.3,150.2,214.3,150.3,214.2,150.3z"/>
		<path class="st50" d="M215,150.4c0.3,0,0.6,0.1,0.9,0.1c-0.2-0.2-0.4-0.4-0.6-0.4C215.3,150.2,215.1,150.3,215,150.4z"/>
		<path class="st50" d="M214.3,150.2l0.1,0.1c0.1,0,0.2,0,0.3,0c0.1-0.1,0.2-0.3,0.3-0.4C214.9,149.9,214.6,150,214.3,150.2z"/>
		<path class="st51" d="M206.8,164.9c-0.6,1-1.3,1.5-2.2,1.9c1.6,0,3.1,0.4,4.7,1.3c-0.3-1.6,0.4-3.3,0.7-4.9
			c-0.7,0.9-1.8,1.4-3.3,1.4C206.7,164.7,206.8,164.8,206.8,164.9z"/>
		<path class="st51" d="M206.8,164.9c-0.1-0.1-0.1-0.2-0.2-0.3c-0.1,0-0.2,0-0.3,0c-1.4,2.1-3.5,1-5.2,1.1c-1.7,0.2-3,0.4-2.2,2.6
			c1.9-1,3.8-1.5,5.7-1.5C205.5,166.5,206.3,165.9,206.8,164.9z"/>
		<path class="st51" d="M209.3,168.1c0.1,0.1,0.3,0.1,0.4,0.2c1.3-2.7,2.9-5.4,1.4-8.6c-0.1,1.4-0.5,2.6-1.2,3.4
			C209.7,164.9,209,166.5,209.3,168.1z"/>
		<path class="st51" d="M204.6,166.9c-1.4,0.6-3.1,0.9-4.6,1.5c3.1,0,6.2,0,9.3,0c0-0.1,0-0.2,0-0.2
			C207.7,167.3,206.1,166.9,204.6,166.9z"/>
		<path class="st51" d="M209.3,168.4c0.1,0,0.3,0,0.4,0c-0.1-0.1-0.3-0.2-0.4-0.2C209.3,168.2,209.3,168.3,209.3,168.4z"/>
		<path class="st51" d="M198.9,168.4c0.4,0,0.7,0,1.1,0c1.4-0.7,3.1-0.9,4.6-1.5C202.7,166.9,200.8,167.4,198.9,168.4z"/>
		<path class="st51" d="M206.7,164.6c1.5-0.1,2.6-0.6,3.3-1.4c0.1-0.7,0.1-1.4-0.1-2.1c-1.1,1.1-2.2,2.3-3.3,3.4
			C206.6,164.5,206.6,164.6,206.7,164.6z"/>
		<path class="st51" d="M206.6,164.5c-0.1,0.1-0.1,0.1-0.2,0.2c0.1,0,0.2,0,0.3,0C206.6,164.6,206.6,164.5,206.6,164.5z"/>
		<path class="st51" d="M210,163.2c0.7-0.8,1.1-2,1.2-3.4c-0.4,0.4-0.8,0.8-1.2,1.3C210.1,161.8,210.1,162.5,210,163.2z"/>
		<path class="st52" d="M177.2,122c2.3,1.9,5,3.3,7.2,5.4c0-0.5,0.1-0.9,0.4-1.3C182,125.4,179.6,123.6,177.2,122z"/>
		<path class="st52" d="M177.2,122c2.4,1.6,4.8,3.4,7.6,4.2c0.2-0.3,0.5-0.5,1-0.7c-4.7-0.4-7.4-7.7-13.4-3.8
			c5.3,0.4,7.9,5.3,12.2,7.3c-0.1-0.5-0.2-1.1-0.2-1.5C182.2,125.3,179.5,123.9,177.2,122z"/>
		<path class="st52" d="M184.4,127.4c0.2,0.2,0.4,0.4,0.5,0.6c0.2-0.6,0.4-1.1,0.6-1.7c-0.2-0.1-0.5-0.1-0.7-0.2
			C184.5,126.5,184.4,127,184.4,127.4z"/>
		<path class="st52" d="M184.4,127.4c0,0.5,0.1,1,0.2,1.5c0.1-0.3,0.2-0.6,0.3-1C184.8,127.8,184.6,127.6,184.4,127.4z"/>
		<path class="st52" d="M184.8,126.2c0.2,0.1,0.5,0.1,0.7,0.2c0.1-0.3,0.2-0.6,0.3-0.8C185.4,125.7,185,125.9,184.8,126.2z"/>
		<path class="st53" d="M184.8,132.2c-4.1,1.7-7.7-1.6-12.1-1.8c4.4,0.9,8.4,2.2,12.1,4C184.5,133.7,184.4,132.9,184.8,132.2z"/>
		<path class="st53" d="M172.7,130.4c4.4,0.2,7.9,3.4,12.1,1.8c0.2-0.4,0.5-0.9,0.9-1.3c-3.6,1.1-6.9,0.2-10.1-1.4
			c-1.6-0.8-2.9,0.2-3.1,1.5c-0.3,1.6,1.3,1.7,2.4,1.6c4.1-0.2,7.2,2.7,11,3.5c-0.5-0.6-0.8-1.1-1-1.7
			C181.1,132.6,177.1,131.3,172.7,130.4z"/>
		<path class="st53" d="M184.8,134.4c0.4,0.2,0.9,0.4,1.3,0.7c0,0,0,0,0.1,0c0-1.1-0.9-2.1-0.9-3.2c-0.2,0.1-0.3,0.2-0.5,0.2
			C184.4,132.9,184.5,133.7,184.8,134.4z"/>
		<path class="st53" d="M185.3,131.9c0-0.4,0.1-0.7,0.4-1.1c-0.4,0.4-0.8,0.9-0.9,1.3C184.9,132.1,185.1,132,185.3,131.9z"/>
		<path class="st53" d="M186.1,135.1c-0.4-0.2-0.9-0.5-1.3-0.7c0.2,0.6,0.6,1.1,1,1.7C186,135.8,186.1,135.5,186.1,135.1
			L186.1,135.1z"/>
		<path class="st54" d="M65.8,128.1c0.1,0.2,0.2,0.4,0.3,0.7C66.5,128.3,66.1,128.2,65.8,128.1z"/>
		<path class="st54" d="M65.6,127.9c0,0.1,0.1,0.1,0.2,0.1C65.7,128,65.7,127.9,65.6,127.9C65.7,127.9,65.6,127.9,65.6,127.9
			L65.6,127.9z"/>
		<path class="st54" d="M65.7,127.9L65.7,127.9L65.7,127.9z"/>
		<path class="st54" d="M66.1,128.8c-0.1-0.2-0.2-0.5-0.3-0.7c-0.1,0-0.1-0.1-0.2-0.1c-0.4,1.1-2,2.1-0.4,3.5c1.2,1,2.2-0.2,3.1-0.6
			c1-0.5,1-1.4,0.5-2.5c-0.9-1.9-2-1.2-3.1-0.4c0,0.1,0.1,0.1,0.1,0.2C66.1,128.2,66.5,128.3,66.1,128.8z"/>
		<path class="st54" d="M65.6,127.9L65.6,127.9C65.7,127.9,65.7,127.9,65.6,127.9L65.6,127.9L65.6,127.9z"/>
		<path class="st55" d="M70.8,136.4c0.1-0.2,1.2-1.2,1.3-2.2c0.1-1.1-0.9-2.1-2.4-1.9c-1.1,0.2-2.6,0.7-2.5,2
			C67.2,135.2,68.1,136.4,70.8,136.4z"/>
		<path class="st56" d="M183.3,98.2c-4.2,0-8.5,0-12.7,0C174.8,98.8,179,98.8,183.3,98.2z"/>
		<path class="st56" d="M178.9,99.1c-1.3,0-2.5,0-3.8,0C176.3,99.3,177.6,99.3,178.9,99.1z"/>
		<path class="st56" d="M178.9,99.1c1.5-0.1,2.9-0.5,4.4-1c-4.2,0.7-8.5,0.6-12.7,0c1.5,0.5,3,0.8,4.5,1
			C176.3,99.1,177.6,99.1,178.9,99.1z"/>
		<path class="st57" d="M161.1,201.1c-0.1-1.1-0.8-1.8-1.9-1.8c-1.3,0-2.4,0.7-2.5,1.9s0.7,2.2,2.2,2.2
			C159.9,203,161.1,202.6,161.1,201.1z"/>
		<path class="st58" d="M111.5,284.3c-1.2-1.8,0.7-4.5-2-5.3c-2.9-0.9-2.8,3-5,3.4c-1.7-1.2,1-4.6-3.3-5.1c0.9,3.3-1.4,7.3,1.8,9.3
			c2.4,1.6,2.9-3.1,5.1-3.7c1.9,1.5-0.2,6.2,3,5.4c3.1-0.7,4.8-4.3,5.5-7.9C113.5,280.3,113.8,283.4,111.5,284.3z"/>
		<path class="st59" d="M137.9,283.1c-1.3,6.1-1.3,6.1,0.3,9.1c3-5,4-4.9,8,1.4c0.7-3.7,1.1-6.5,0-10.5
			C143.2,288.9,140.4,288.4,137.9,283.1z"/>
		<path class="st60" d="M189.6,277.1c-2.3,4.2-5.1,5.8-9.4,3.5c2.2,2.6,5.6,3.5,6.5,6.9c0.1,0.3,1.1,0.5,1.4,0.3
			c0.4-0.2,0.9-1.1,0.8-1.3C186.8,283.5,190.3,281,189.6,277.1z"/>
		<path class="st61" d="M128,291.6c2.7-0.9,2.1-3.1,2.3-4.6c0.2-2.9,2.8-1.8,5.5-3.8c-4.5-0.5-7.4-0.9-10.4-1.2
			C130.4,284.1,125.9,288.9,128,291.6z"/>
		<path class="st62" d="M177.6,282c-3.1-2-0.6,3.1-2.9,3.2c-0.7,0-1.4,0.6-2.1,1c0.4,0.3,0.8,0.7,1.2,1c1.9-0.3,2.6,1,3.3,2.5
			s2.3,1.2,2.3-0.2C179.5,286.9,179.7,283.3,177.6,282z"/>
		<path class="st63" d="M160.1,289.9c0.1,1.1,0,2.6,1.8,2.3c1.4-0.3,1-1.5,0.7-2.4c-0.9-2.9-0.5-5.1,2.5-6.8
			c-2.9,0.4-5.8,0.7-8.8,1.1C160.2,284.5,159.8,287.4,160.1,289.9z"/>
		<path class="st63" d="M172.6,286.2c-2.1,0.1-1.8-5.2-3.6-2.8c-1.5,1.9-0.7,6.1,2.1,8.5c1.8-1.4-0.4-4.6,2.8-4.7
			C173.3,287.1,172.9,286.7,172.6,286.2z"/>
		<path class="st63" d="M173.9,287.2c-0.4-0.3-0.8-0.7-1.2-1C172.9,286.7,173.3,287.1,173.9,287.2z"/>
		<path class="st64" d="M120.3,281.5c-1.9,2.1-2,4.9-2.3,7.5c0,0.3,0.4,0.6,1.3,2.1c1.8-3.3,2.3-6,2.3-8.9
			C121.6,281.9,120.4,281.4,120.3,281.5z"/>
		<path class="st65" d="M37.6,220.6c-3-0.1-5.1,1.8-5.1,4.7c0,3.7,2.3,6.5,6,7c3.2,0.4,4.9-1.9,5.6-5.4
			C43,224,41.6,220.8,37.6,220.6z M38,229.9c-1.9-0.1-3.3-1.6-3.2-3.6s1.5-3.3,3.5-3.2s3.1,1.6,3.3,3.5C41.3,228.7,40,230,38,229.9z
			"/>
		<path class="st66" d="M35,214.9c-0.4-2.7-1.7-6.7-4.7-6.3c-2.4,0.3-6.8,2.1-6.6,5.5c0.1,2.8,2.6,5.7,6.1,6.2
			C33,219.7,35.5,218.1,35,214.9z M29.5,217.9c-1.7-0.3-3.1-1.5-3.1-2.9c-0.1-2.3,2.4-3,4-3.5c1.9-0.6,2.5,1.6,2.6,3
			C33,216.6,31.1,217.2,29.5,217.9z"/>
		<path class="st67" d="M54.1,245.6c-0.9,0.8-2.8,1.9-1.4,3.3c1.5,1.6,2.5-0.5,3.1-1.5c1.7-2.6,3.7-3.6,7-2.8
			c-2.4-2.1-4.8-4.1-7.2-6.2C57.5,241.6,56.5,243.6,54.1,245.6z"/>
		<path class="st68" d="M50.7,237.9c-1.7,1.6-3,3-4.2,4.2C47.7,240.9,49,239.6,50.7,237.9z"/>
		<path class="st68" d="M45.2,243.3L45.2,243.3L45.2,243.3z"/>
		<path class="st68" d="M50.7,237.9c-1.6,1.7-3,3-4.2,4.2c-0.4,0.4-0.7,0.7-1,1.1c3.9-0.8,5.7-4,7.8-6.9c0-0.1-1-1.1-1.1-1
			c-2.9,2.1-6.2,3.9-6.8,7.9c0.4-0.3,0.7-0.7,1.1-1C47.6,240.9,49,239.6,50.7,237.9z"/>
		<path class="st68" d="M45.4,243.3c0.3-0.4,0.7-0.7,1-1.1C46.1,242.5,45.7,242.9,45.4,243.3C45.3,243.3,45.3,243.3,45.4,243.3
			L45.4,243.3z"/>
		<path class="st68" d="M45.3,243.3L45.3,243.3L45.3,243.3v0.1V243.3z"/>
		<path class="st69" d="M269.3,211.9c-2.8-1.2-2.4-3-1.8-5.4c-2.7,2.2-4.3,4.8-5.2,8.1c2-1.6,3.7-2.7,6.1-0.6c1,0.9,2.9,3.5,4.2,1.1
			C273.7,213.2,270.7,212.5,269.3,211.9z"/>
		<path class="st67" d="M260.4,224.6c0-0.1,0.1-0.2,0.1-0.2c-0.2,0.2-0.4,0.3-0.7,0.5c-1.4,0.5-2.7,0.2-3.9-0.4
			c0.9,0.9,2.1,1.5,3.2,2C261.3,227.5,259.6,225,260.4,224.6z"/>
		<path class="st67" d="M259.8,224.8c0.2-0.1,0.5-0.3,0.7-0.5v-0.1c-0.3,0-0.7,0-1,0c-1.9,0.6-2.8-1.8-4.6-1.4
			c0.2,0.7,0.6,1.2,1,1.7C257.2,225,258.4,225.3,259.8,224.8z"/>
		<path class="st67" d="M260.5,224.4c0,0.1-0.1,0.2-0.1,0.2c-0.8,0.4,0.9,2.9-1.3,1.8c-1.1-0.5-2.3-1.1-3.2-2
			c-0.3-0.2-0.7-0.3-1-0.5c-0.1-0.1-0.3-0.2-0.4-0.3c-0.4,1.4,1.1,2,2,2.7c1.9,1.2,3.6,4.4,5.5,3.3c3.2-1.9-3.3-2.9-1.2-5.4
			c-0.1,0-0.2,0-0.3,0C260.5,224.3,260.5,224.3,260.5,224.4z"/>
		<path class="st67" d="M254.9,223.9c0.3,0.2,0.7,0.4,1,0.5c-0.4-0.5-0.8-1-1-1.7c-0.2,0.3-0.3,0.6-0.4,0.9
			C254.7,223.7,254.8,223.8,254.9,223.9z"/>
		<path class="st67" d="M260.5,224.3v0.1C260.5,224.3,260.5,224.3,260.5,224.3C260.6,224.3,260.5,224.3,260.5,224.3z"/>
		<path class="st70" d="M264.9,221.7c-1-0.6-2-1.3-3-2.2c0,1-0.1,1.9-0.2,2.7C262.6,221.5,263.7,221.6,264.9,221.7z"/>
		<path class="st70" d="M260.6,224c0.3-0.8,0.6-1.4,1.1-1.8c0.2-0.8,0.2-1.7,0.2-2.7c1,0.8,2,1.6,3,2.2c1,0.1,2,0.3,2.9,0.2
			c-3.1-1-4.7-5.2-9.5-4.5c2.6,2.3,3.1,4.5,1.2,6.7C259.9,223.9,260.2,223.8,260.6,224z"/>
		<path class="st70" d="M264.9,221.7c-1.2-0.2-2.4-0.2-3.3,0.5c-0.2,0.7-0.5,1.4-1,1.9c0.1,0,0.1,0.1,0.2,0.1c1.3-0.6,2-3.2,4.1-1
			c1.6,1.6,2.4,0.9,2.7-0.6h-0.1C266.6,222.5,265.8,222.2,264.9,221.7z"/>
		<path class="st70" d="M264.9,221.7c0.8,0.5,1.7,0.8,2.7,0.9h0.1c0.1-0.2,0.1-0.4,0.1-0.7C266.9,222.1,265.9,221.9,264.9,221.7z"/>
		<path class="st70" d="M261.7,222.2c-0.4,0.4-0.8,0.9-1.1,1.8l0.1,0.1C261.2,223.6,261.5,223,261.7,222.2z"/>
		<path class="st70" d="M260.6,224c-0.3-0.2-0.7-0.1-1,0.2l0,0c0.3,0,0.7,0,1,0C260.5,224.2,260.6,224.1,260.6,224z"/>
		<path class="st70" d="M260.6,224.3c0.1,0,0.2,0,0.3,0c-0.1-0.1-0.1-0.1-0.2-0.1C260.7,224.2,260.6,224.2,260.6,224.3z"/>
		<path class="st70" d="M260.7,224.1l-0.1-0.1c0,0.1,0,0.1-0.1,0.2c0,0,0,0,0.1,0C260.6,224.2,260.7,224.2,260.7,224.1z"/>
		<path class="st71" d="M248,238.9c2.2,1.8,4.4,1.4,6.4-0.2c1.9-1.6,4.2-3.4,3.3-6.3c-0.6-2-2.2-2.7-4.1-1c1.1,0.7-4.7,2.6,0.5,2.5
			c2.6-0.1,1.1,1.4,0.6,2c-0.9,1.3-2.2,2.3-4,1.6c-1.4-0.5-2.5-1.6-2.4-3c0.2-2.4,1.8-3.8,4.3-4c0.6-0.6,1.1-1.8,0.4-1.9
			c-3.3-0.6-5,1.7-6.4,4.1C245.2,235.1,245.9,237.2,248,238.9z"/>
		<path class="st72" d="M235.1,251.1c1.9,0.5,2.6-1,3.7-2c1.2-1,1.2-1.8,0.3-2.9c-0.5-0.6-1.2-1.3-1.9-0.7c-0.8,0.7-0.4,1.8-0.6,2.8
			c0,0.1-0.1,0.2-0.2,0.3C237.6,250,235.9,250.4,235.1,251.1z"/>
		<path class="st72" d="M236.4,248.6c0.1-0.1,0.1-0.2,0.2-0.3c0.2-0.9-0.2-2.1,0.6-2.8c0.7-0.6,1.4,0.1,1.9,0.7
			c0.9,1.1,0.9,1.9-0.3,2.9c-1.1,1-1.8,2.5-3.7,2c-0.2,0.1-0.3,0.3-0.3,0.5c1.5,1.2,3.9,3.9,4.3,0c0.3-2.6,0.1-2.6,2-1.5
			c0.9,0.5,1.9,0.1,1.8-0.6c-0.6-2.8-3-4.4-4.6-6.6c-0.6-0.9-1.5-1.1-2.5-0.3c-2.5,2-0.7,3.8,0.2,5.7
			C236.2,248.3,236.3,248.4,236.4,248.6z"/>
		<path class="st73" d="M234.6,251.2c-0.4-1.1,1.6-1.4,1.6-2.4c-0.8,1.3-2.1,1.2-3.5,0.7c-1.8-0.7-3.2-0.1-4.6,0.8
			c2.6,0.6,4.3,2.2,5.5,4.2C233.2,253.4,232.7,252.1,234.6,251.2z"/>
		<path class="st73" d="M233.8,254.6c0.4,0.6,0.7,1.3,1,2c1.3-1.3,0.5-2.3-0.5-3.3c-0.9-0.9-0.9-1.6,0.6-1.8
			c-0.1-0.1-0.1-0.2-0.1-0.3C232.7,252.1,233.2,253.4,233.8,254.6z"/>
		<path class="st73" d="M228.3,250.4c1.4-0.9,2.8-1.5,4.6-0.8c1.3,0.5,2.7,0.6,3.5-0.7c0-0.2-0.1-0.4-0.3-0.7
			c-1.6,2.6-2.5-0.1-3.5-0.6C229.5,246.1,228.3,247.3,228.3,250.4L228.3,250.4C228.2,250.3,228.2,250.4,228.3,250.4z"/>
		<path class="st73" d="M228.3,250.4C228.2,250.4,228.2,250.4,228.3,250.4c2.5,1.5,3.2,4.9,6.1,6.1c0-0.6-0.3-1.2-0.6-1.8
			C232.6,252.5,230.9,251,228.3,250.4z"/>
		<path class="st73" d="M233.8,254.6c0.3,0.6,0.6,1.2,0.6,1.8c0.1,0.1,0.2,0.1,0.4,0.2C234.4,255.9,234.1,255.2,233.8,254.6z"/>
		<path class="st73" d="M228.1,250.3L228.1,250.3C228.2,250.3,228.2,250.4,228.1,250.3c0.1,0.1,0.1,0,0.1,0
			C228.2,250.4,228.2,250.3,228.1,250.3z"/>
		<path class="st73" d="M234.6,251.2c0.1-0.1,0.3-0.1,0.4-0.2l0,0c0.8-0.7,2.5-1.1,1.3-2.5c0,0.1-0.1,0.2-0.1,0.3
			C236.3,249.8,234.3,250.1,234.6,251.2z"/>
		<path class="st73" d="M235.1,251.1c-0.2,0.1-0.3,0.1-0.4,0.2c0,0.1,0.1,0.2,0.1,0.3C234.8,251.3,234.9,251.2,235.1,251.1
			L235.1,251.1z"/>
		<path class="st73" d="M236.4,248.6c-0.1-0.1-0.2-0.3-0.4-0.4c0.2,0.3,0.3,0.5,0.3,0.7C236.3,248.8,236.4,248.7,236.4,248.6z"/>
		<path class="st74" d="M251.8,236.1c-1.3-2.4-0.2-3.7,1.7-4.7c-0.3-0.3-0.6-0.6-1-0.9C251.7,232.2,248.6,233.6,251.8,236.1z"/>
		<path class="st74" d="M248.3,234.4c-0.1,1.4,1,2.5,2.4,3c1.8,0.7,3.1-0.3,4-1.6c0.4-0.6,2-2-0.6-2c-5.1,0.1,0.7-1.8-0.5-2.5
			c-2,1-3.1,2.4-1.7,4.7c-3.3-2.5-0.1-3.9,0.8-5.6C250.2,230.7,248.5,232,248.3,234.4z"/>
		<path class="st65" d="M247.4,245.8c0.2,0,0.8-1,0.4-1.5c-1.8-2.3-3.8-4.4-5.8-6.5c-0.7-0.7-1.4,0.1-1.7,0.9
			C240,239.8,245.5,245.8,247.4,245.8z"/>
		<path class="st75" d="M38.3,223.1c-2-0.1-3.5,1.2-3.5,3.2c-0.1,2,1.3,3.5,3.2,3.6s3.2-1.2,3.6-3.2
			C41.4,224.6,40.4,223.2,38.3,223.1z"/>
		<path class="st76" d="M30.3,211.5c-1.6,0.5-4.1,1.2-4,3.5c0.1,1.4,1.4,2.6,3.1,2.9c1.6-0.7,3.6-1.3,3.4-3.4
			C32.8,213.1,32.2,210.8,30.3,211.5z"/>
	</g>
</g>
</svg>
