<?xml version="1.0" encoding="utf-8"?>
<!-- Generator: Adobe Illustrator 24.2.0, SVG Export Plug-In . SVG Version: 6.00 Build 0)  -->
<svg version="1.1" id="Layer_1" xmlns="http://www.w3.org/2000/svg" xmlns:xlink="http://www.w3.org/1999/xlink" x="0px" y="0px"
	 viewBox="0 0 1955 870" style="enable-background:new 0 0 1955 870;" xml:space="preserve">
<style type="text/css">
	.st0{opacity:0.47;}
	.st1{opacity:0.52;clip-path:url(#SVGID_2_);}
	.st2{fill:#EAE39B;}
	.st3{clip-path:url(#SVGID_2_);fill:#EAE39B;}
</style>
<g class="st0">
	<defs>
		<rect id="SVGID_1_" x="1.2" y="0.4" class="st0" width="1934" height="867"/>
	</defs>
	<clipPath id="SVGID_2_">
		<use xlink:href="#SVGID_1_"  style="overflow:visible;"/>
	</clipPath>
	<g id="_x36_c5v38_2_" class="st1">
		<g>
			<path class="st2" d="M1288.4-30.5c73.9,0,147.9,0,221.8,0c23.6,0,32.7,9.1,32.7,32.7c0,136.3,0,272.5,0,408.8
				c0,21.5-9.8,31.2-31.2,31.2c-141.4-0.1-282.8-0.2-424.2-0.3c-7.8,0-15.6,0.3-23.4,0.3c-18,0.1-28.5-10.3-28.5-28.6
				c0-75.6,0-151.3,0-226.9c0-61.3,0-122.7-0.1-184c0-24.7,8.3-33.2,33.1-33.3C1141.9-30.5,1215.2-30.5,1288.4-30.5z M1489.8,23.1
				c-134.2,0-267.2,0-400.3,0c0,122.4,0,243.9,0,365.6c133.7,0,266.7,0,400.3,0C1489.8,266.7,1489.8,145.5,1489.8,23.1z"/>
			<path class="st2" d="M923.4,722.4c-196.3,0-392.5,0-588.8-0.1c-4.4,0-9-0.2-13.1-1.4c-12.9-3.9-20.1-16-18.1-29.4
				c1.9-12.8,12.1-22.1,25.2-22.2c27.3-0.2,54.5-0.1,81.8-0.1c145.8,0,291.7,0,437.5,0c221.4,0,442.9,0,664.3-0.1
				c9.7,0,18.3,1.5,24.6,9.6c6.4,8.2,8.5,17.2,4.1,26.8c-4.6,9.9-12.2,16.2-23.6,16.9c-3.1,0.2-6.1,0.1-9.2,0.1
				C1313.2,722.4,1118.3,722.4,923.4,722.4z"/>
			<path class="st2" d="M922.8,861.3c-56.6,0-113.1-0.1-169.7,0c-139.7,0.2-279.3,0.5-419,0.2c-7.8,0-17.4-2.6-23.2-7.5
				c-14.9-12.6-8.4-37.6,10.5-43.5c4.1-1.3,8.7-1.6,13.1-1.6c90-0.1,179.9-0.1,269.9-0.1c273.9,0,547.8,0,821.8,0
				c28.9,0,57.9,0.2,86.8,0.7c19.3,0.4,30.4,10.7,30,26.8c-0.4,16-12.1,25.5-31.5,25.5c-196.2,0-392.4,0-588.6,0
				C922.8,861.7,922.8,861.5,922.8,861.3z"/>
			<path class="st2" d="M923.7,582.1c-153,0-306,0-459,0c-43.6,0-87.2,0.1-130.8,0.2c-12,0-22.4-2.9-28.1-14.6
				c-4.6-9.3-3.8-18.4,1.9-27.1c5.9-9,14.8-11.3,24.8-11.3c29.6,0,59.2,0,88.8,0c187.8,0,375.5,0,563.3,0c175.4,0,350.9,0,526.3,0
				c17.6,0,26.2,5.2,30.5,18.3c5.2,15.8-4.6,31.8-21,34.2c-2.3,0.3-4.8,0.4-7.1,0.4c-100.5-0.1-201-0.4-301.5-0.4
				c-84.1,0-168.3,0.3-252.4,0.4C947.5,582.1,935.6,582.1,923.7,582.1z"/>
			<path class="st2" d="M616.3,442.3c-94.7,0-189.3,0.1-284,0c-22.8,0-36.1-19.7-26.3-38.6c5.2-10,13.9-14.4,25.1-14.4
				c29.3,0.1,58.5,0,87.8,0c160.1,0,320.2,0,480.3,0c22.6,0,36,19.8,26.2,38.7c-5.2,10-13.8,14.4-25.1,14.3
				c-41.2-0.1-82.4,0-123.6,0C723.3,442.3,669.8,442.3,616.3,442.3z"/>
			<path class="st2" d="M615.7,162.3c-94.4,0-188.8-0.1-283.2,0.1c-11.1,0-20.1-3.3-25.8-13.2c-5.2-9-5-18.2,0.4-27.2
				c5.4-9.1,14-12.8,24.1-12.8c102.6,0,205.2,0.2,307.8,0.2c85.9,0,171.7-0.2,257.6-0.3c16.3,0,26.1,5.7,30.4,17.5
				c6.2,17.1-5.5,34.9-23.9,35.4c-17.7,0.5-35.4,0.2-53.2,0.2C771.7,162.3,693.7,162.3,615.7,162.3z"/>
			<path class="st2" d="M616,249.4c94.3,0,188.7,0.1,283-0.1c12.4,0,22,4.1,27.1,15.9c4.7,10.8,3.4,21.8-5.6,28.8
				c-6.4,4.9-15.9,8.2-24,8.3c-65.1,0.6-130.1,0.4-195.2,0.4c-122.3,0-244.6,0-366.8,0c-16.5,0-27.4-7.1-30.6-20
				c-3.1-12.3,1.8-24.6,13.4-30.1c5.3-2.5,11.8-3,17.7-3.1C428.6,249.4,522.3,249.5,616,249.4C616,249.4,616,249.4,616,249.4z"/>
			<path class="st2" d="M615.7-29.8c55.9,0,111.7,0.1,167.6,0c39.5-0.1,79-0.7,118.5-0.4c20.4,0.2,33,19.4,24,36.8
				c-3.2,6.2-10.6,10.8-17,14.6c-3.7,2.2-9.3,1.5-14,1.5c-66,0.1-132,0-198.1,0c-119.9,0-239.8,0-359.7,0c-2,0-4.1,0.1-6.1,0
				c-16.2-0.6-28-11.7-28-26.5c0-15.1,11.3-26.3,27.7-26.5c23.8-0.3,47.7-0.1,71.5-0.1c71.2,0,142.4,0,213.6,0
				C615.7-30.3,615.7-30.1,615.7-29.8z"/>
			<path class="st2" d="M1289.6,949.4c74.9,0,149.8,0,224.7,0c14.3,0,22.8,5.6,27,17.3c3.8,10.6,1.2,23.2-8.4,29.1
				c-6.2,3.9-14.5,6.2-21.9,6.2c-137.2,0.4-274.5,0.3-411.7,0.3c-11.9,0-23.8,0.2-35.8,0c-16.5-0.3-27.9-11-28-26.2
				c-0.1-15.9,11-26.6,28.2-26.6C1139.1,949.3,1214.4,949.4,1289.6,949.4z"/>
		</g>
	</g>
	<path class="st3" d="M1517.6,40.4c90.4,0,180.8,0,271.2,0c39.9,0,79.9,0,119.8,0.1c15.5,0,21.5,6,21.6,21.3c0,81.5,0,163.1,0,244.6
		c0,14.3-6.4,20.8-20.8,20.8c-60-0.1-119.9-0.3-179.9-0.3c-70.4,0-140.8,0.3-211.2,0.3c-90.4,0.1-180.8,0-271.1,0
		c-40.6,0-81.3,0-121.9,0.1c-15,0-21.7-6.5-21.7-21.5c0-81.1,0-162.1,0-243.2c0-16.1,6.2-22.2,22.2-22.2
		C1256.5,40.4,1387,40.4,1517.6,40.4C1517.6,40.4,1517.6,40.4,1517.6,40.4z M1139.4,291.4c252.3,0,503.7,0,755,0
		c0-72.2,0-143.6,0-215.2c-251.9,0-503.2,0-755,0C1139.4,148.1,1139.4,219.4,1139.4,291.4z"/>
	<path class="st3" d="M1542.1,219.3c8.7-20.5,16.5-39.3,24.4-58.1c1.2-2.9,1.8-6.5,3.9-8.6c3-2.9,6.8-5.9,10.7-6.8
		c5.1-1.2,9.2,2,11.2,6.9c8.4,20,16.7,40.2,25.1,60.2c0.7,1.6,1.5,3.2,2.6,5.6c1.4-1.9,2.8-3.2,3.4-4.7
		c12.7-30.5,25.3-61.1,38.2-91.6c1.3-3.2,3.5-6.5,6.2-8.6c4.5-3.4,9.7-2.5,13.8,1c4.5,3.9,4.8,9.1,2.6,14.3
		c-5.1,12.4-10.3,24.7-15.5,37c-8.7,20.9-17.5,41.7-26.2,62.6c-3.3,7.9-6.7,15.8-10,23.8c-2.3,5.4-5.6,9.3-12.1,9.1
		c-6.1-0.2-9.3-3.8-11.4-9.1c-7.7-18.6-15.6-37.2-23.4-55.7c-1.1-2.6-2.4-5.2-4.2-9c-2.6,5.8-4.7,10.4-6.7,15.1
		c-7,16.5-13.9,33-20.8,49.5c-2.3,5.4-5.5,9.3-12,9.2c-6.2-0.1-9.2-3.8-11.4-9c-16.8-39.9-33.6-79.8-50.5-119.7
		c-0.5-1.3-1.1-2.5-1.6-3.8c-2.6-7.2-0.4-13.5,5.6-16.1c6.7-2.9,12.7-0.5,15.9,6.9c7.7,17.7,15.1,35.4,22.7,53.2
		C1528.7,187.8,1535,202.6,1542.1,219.3z"/>
	<path class="st3" d="M1295,210.6c0-4,0-8.1,0-12.1c0-24.1,0-48.1,0-72.2c0-8.9,4.2-13.7,11.5-13.7c7.5,0,11.8,4.8,11.8,13.4
		c0,40.4,0,80.8,0.1,121.2c0,6.2-1.6,11.4-7.9,13.6c-6.7,2.4-11.2-1.1-15-6.3c-20.4-28.3-40.8-56.7-61.2-85
		c-1.8-2.5-3.7-5.1-7.2-7.5c0,2.3,0,4.5,0,6.8c0,26.3,0,52.7,0,79c0,7.8-3.1,12.2-8.9,13.4c-7.8,1.7-14.2-3.5-14.3-12.1
		c-0.2-14.3-0.1-28.6-0.1-42.9c0-26.6-0.1-53.1,0.1-79.7c0-5.4,0-11.1,7.1-13.7c7.3-2.7,11.6,0.2,15.5,5.7
		c21.1,29.2,42.2,58.5,63.4,87.7c1.2,1.6,2.4,3.2,3.6,4.7C1294,210.9,1294.5,210.7,1295,210.6z"/>
	<path class="st3" d="M1380.9,197.6c0,13.7,0,26.5,0,40c12,0,23.5,0,35,0c7.5,0,15-0.1,22.5,0.1c7.9,0.3,12.6,5.2,12.4,12.4
		c-0.2,6.9-4.8,11.3-12.6,11.4c-23.2,0.1-46.3,0.1-69.5,0c-7.4,0-12.1-4.5-12.1-11.8c-0.1-42.5-0.1-84.9,0-127.4
		c0-7.7,4.7-12,12.6-12.1c23.2-0.1,46.3-0.1,69.5,0c7.4,0,12.2,4.9,12.2,11.8c0,7-4.6,11.7-12.1,11.8c-16.3,0.2-32.7,0.1-49,0.1
		c-2.7,0-5.4,0-8.6,0c0,13.5,0,26.3,0,40.1c5.5,0,10.9,0,16.2,0c10.9,0,21.8-0.1,32.7,0.1c7.6,0.1,12.4,4.6,12.6,11.3
		c0.2,7.4-4.4,12.1-12.4,12.2c-13.6,0.2-27.2,0.1-40.9,0.1C1386.6,197.6,1383.9,197.6,1380.9,197.6z"/>
	<path class="st3" d="M1770.1,105.9c19.2-0.3,34.6,7.6,49,17.9c5.1,3.6,5.5,10.1,2,15.1c-3.3,4.6-9,5.8-14.5,2.8
		c-6.8-3.6-13.2-8.1-20.3-10.9c-13.8-5.5-27.2-4-39.4,4.6c-11.2,7.9-11,19.8,1.1,26c7.9,4.1,17,5.9,25.6,8.8
		c11.8,3.9,24.4,6.3,35.1,12.1c28,15.2,29.5,48.4,3.3,66.6c-24.9,17.3-51.1,15.8-77.3,2.6c-6.2-3.1-12-7.3-17.6-11.5
		c-5.4-4-6.2-10.8-2.6-15.7c3.5-4.7,10.5-5.8,15.8-1.8c11.2,8.5,23.3,15.1,37.5,16.4c12.1,1.1,23.6-1.5,33.1-9.4
		c10.8-8.9,9.8-22.1-2.8-28.2c-8.9-4.3-18.8-6.4-28.2-9.4c-10.3-3.3-21.1-5.6-30.8-10.1c-13.6-6.3-22.5-17-22.5-32.9
		c0.1-16.1,9-27.1,22.4-34.9C1748.8,108.4,1759.5,105.7,1770.1,105.9z"/>
</g>
</svg>
